{
.appVersion = "1357";
DisplayStrings = (
"AÁ/Abreve/Abreveacute/Abrevedotbelow/Abrevegrave/Abrevehookabove/Abrevetilde/Acaron Â/Acircumflexacute/Acircumflexdotbelow/Acircumflexgrave/Acircumflexhookabove/Acircumflextilde/Adblgrave Ä/Adotbelow À/Ahookabove/Ainvertedbreve/Amacron/Aogonek Å/Aringacute Ã",
"UÚ/Ubreve/Ucaron Û/Udblgrave Ü/Udieresiscaron/Udieresisgrave/Udieresismacron/Udotbelow Ù/Uhookabove/Uhorn/Uhornacute/Uhorndotbelow/Uhorngrave/Uhornhookabove/Uhorntilde/Uhungarumlaut/Uinvertedbreve/Umacron/Uogonek/Uring/Utilde",
"Ó/Obreve/Ocaron Ô/Ocircumflexacute/Ocircumflexdotbelow/Ocircumflexgrave/Ocircumflexhookabove/Ocircumflextilde/Odblgrave Ö/Odieresismacron/Odotaccentmacron/Odotbelow Ò/Ohookabove/Ohorn/Ohornacute/Ohorndotbelow/Ohorngrave/Ohornhookabove/Ohorntilde/Ohungarumlaut/Oinvertedbreve/Omacron/Oogonek Ø/Oslashacute Õ/Otildemacron",
"oó/obreve ô/ocircumflexacute/ocircumflexdotbelow/ocircumflexgrave/ocircumflexhookabove/ocircumflextilde/odblgrave ö/odieresismacron/odotaccentmacron/odotbelow ò/ohookabove/ohorn/ohornacute/ohorndotbelow/ohorngrave/ohornhookabove/ohorntilde/ohungarumlaut/oinvertedbreve/omacron/oogonek ø/oslashacute õ/otildemacron",
"/a.ss01/aacute.ss01/abreve.ss01/abreveacute.ss01/abrevedotbelow.ss01/abrevegrave.ss01/abrevehookabove.ss01/abrevetilde.ss01/acaron.ss01/acircumflex.ss01/acircumflexacute.ss01/acircumflexdotbelow.ss01/acircumflexgrave.ss01/acircumflexhookabove.ss01/acircumflextilde.ss01/adblgrave.ss01/adieresis.ss01/adotbelow.ss01/agrave.ss01/ahookabove.ss01/ainvertedbreve.ss01/amacron.ss01/aogonek.ss01/aring.ss01/aringacute.ss01/atilde.ss01",

glyphs = (
{
color = 3;
glyphname = .notdef;
lastChange = "2021-10-12 06:39:44 +0000";
layers = (
{
background = {
paths = (
{
closed = 1;
nodes = (
"438 -5 LINE",
"449 7 LINE",
"449 575 LINE",
"438 587 LINE",
"47 587 LINE",
"35 575 LINE",
"35 7 LINE",
"47 -5 LINE"
);
},
{
closed = 1;
nodes = (
"142 139 LINE",
"225 292 LINE",
"142 443 LINE",
"153 465 LINE",
"236 314 LINE",
"321 466 LINE",
"334 443 LINE",
"248 290 LINE",
"334 139 LINE",
"321 117 LINE",
"236 267 LINE",
"153 117 LINE"
);
},
{
closed = 1;
nodes = (
"61 561 LINE",
"425 561 LINE",
"425 21 LINE",
"61 21 LINE"
);
},
{
closed = 1;
nodes = (
"402 40 LINE",
"402 538 LINE",
"82 538 LINE",
"82 40 LINE"
);
}
);
};
layerId = "466AD7DC-B026-4005-940F-6404FDF7EB07";
paths = (
{
closed = 1;
nodes = (
"438 -5 LINE",
"449 7 LINE",
"449 575 LINE",
"438 587 LINE",
"47 587 LINE",
"35 575 LINE",
"35 7 LINE",
"47 -5 LINE"
);
},
{
closed = 1;
nodes = (
"142 139 LINE",
"225 292 LINE",
"142 443 LINE",
"153 465 LINE",
"236 314 LINE",
"321 466 LINE",
"334 443 LINE",
"248 290 LINE",
"334 139 LINE",
"321 117 LINE",
"236 267 LINE",
"153 117 LINE"
);
},
{
closed = 1;
nodes = (
"61 561 LINE",
"425 561 LINE",
"425 21 LINE",
"61 21 LINE"
);
},
{
closed = 1;
nodes = (
"402 40 LINE",
"402 538 LINE",
"82 538 LINE",
"82 40 LINE"
);
}
);
width = 484;
}
);
note = .notdef;
},
{
glyphname = A;
lastChange = "2021-10-12 14:30:21 +0000";
layers = (
{
anchors = (
{
name = bottom;
position = "{272, -36}";
},
{
name = ogonek;
position = "{513, -145}";
},
{
name = top;
position = "{740, 602}";
}
);
background = {
paths = (
{
closed = 1;
nodes = (
"652 -109 OFFCURVE",
"653 -106 OFFCURVE",
"653 -102 CURVE SMOOTH",
"653 -93 OFFCURVE",
"644 -85 OFFCURVE",
"635 -85 CURVE SMOOTH",
"631 -85 OFFCURVE",
"626 -87 OFFCURVE",
"622 -92 CURVE SMOOTH",
"603 -114 OFFCURVE",
"566 -134 OFFCURVE",
"536 -134 CURVE SMOOTH",
"510 -134 OFFCURVE",
"490 -119 OFFCURVE",
"490 -78 CURVE SMOOTH",
"490 13 OFFCURVE",
"613 234 OFFCURVE",
"677 293 CURVE",
"674 295 OFFCURVE",
"668 301 OFFCURVE",
"661 301 CURVE SMOOTH",
"658 301 OFFCURVE",
"655 300 OFFCURVE",
"651 297 CURVE",
"655 305 OFFCURVE",
"650 311 OFFCURVE",
"649 311 CURVE",
"643 302 OFFCURVE",
"626 279 OFFCURVE",
"587 234 CURVE SMOOTH",
"513 143 OFFCURVE",
"362 -11 OFFCURVE",
"214 -11 CURVE SMOOTH",
"158 -11 OFFCURVE",
"131 18 OFFCURVE",
"131 76 CURVE SMOOTH",
"131 130 OFFCURVE",
"159 205 OFFCURVE",
"206 280 CURVE SMOOTH",
"303 430 OFFCURVE",
"470 556 OFFCURVE",
"661 556 CURVE SMOOTH",
"672 556 OFFCURVE",
"682 556 OFFCURVE",
"693 555 CURVE SMOOTH",
"780 550 OFFCURVE",
"828 510 OFFCURVE",
"828 467 CURVE SMOOTH",
"828 426 OFFCURVE",
"786 383 OFFCURVE",
"692 361 CURVE SMOOTH",
"656 353 OFFCURVE",
"615 349 OFFCURVE",
"572 349 CURVE SMOOTH",
"464 349 OFFCURVE",
"349 371 OFFCURVE",
"294 385 CURVE SMOOTH",
"172 420 OFFCURVE",
"113 490 OFFCURVE",
"113 535 CURVE SMOOTH",
"113 558 OFFCURVE",
"130 575 OFFCURVE",
"163 575 CURVE SMOOTH",
"180 575 OFFCURVE",
"199 571 OFFCURVE",
"223 562 CURVE",
"226 560 OFFCURVE",
"229 560 OFFCURVE",
"232 560 CURVE SMOOTH",
"241 560 OFFCURVE",
"248 568 OFFCURVE",
"248 576 CURVE SMOOTH",
"248 582 OFFCURVE",
"244 588 OFFCURVE",
"235 591 CURVE SMOOTH",
"206 602 OFFCURVE",
"181 607 OFFCURVE",
"160 607 CURVE SMOOTH",
"104 607 OFFCURVE",
"76 573 OFFCURVE",
"76 532 CURVE SMOOTH",
"76 505 OFFCURVE",
"88 474 OFFCURVE",
"114 448 CURVE SMOOTH",
"142 419 OFFCURVE",
"180 393 OFFCURVE",
"229 371 CURVE SMOOTH",
"312 336 OFFCURVE",
"450 315 OFFCURVE",
"566 315 CURVE SMOOTH",
"617 315 OFFCURVE",
"664 319 OFFCURVE",
"701 328 CURVE SMOOTH",
"808 352 OFFCURVE",
"865 416 OFFCURVE",
"865 474 CURVE SMOOTH",
"865 531 OFFCURVE",
"811 584 OFFCURVE",
"696 591 CURVE SMOOTH",
"686 592 OFFCURVE",
"676 592 OFFCURVE",
"666 592 CURVE SMOOTH",
"485 592 OFFCURVE",
"332 490 OFFCURVE",
"229 371 CURVE SMOOTH",
"164 294 OFFCURVE",
"96 176 OFFCURVE",
"95 76 CURVE SMOOTH",
"95 11 OFFCURVE",
"125 -42 OFFCURVE",
"200 -46 CURVE SMOOTH",
"373 -56 OFFCURVE",
"542 123 OFFCURVE",
"615 211 CURVE SMOOTH",
"654 257 OFFCURVE",
"673 284 OFFCURVE",
"681 293 CURVE",
"683 297 OFFCURVE",
"684 301 OFFCURVE",
"684 305 CURVE SMOOTH",
"684 316 OFFCURVE",
"676 324 OFFCURVE",
"666 324 CURVE SMOOTH",
"661 324 OFFCURVE",
"655 322 OFFCURVE",
"650 317 CURVE SMOOTH",
"579 249 OFFCURVE",
"454 22 OFFCURVE",
"454 -77 CURVE SMOOTH",
"454 -143 OFFCURVE",
"492 -167 OFFCURVE",
"535 -167 CURVE SMOOTH",
"576 -167 OFFCURVE",
"622 -145 OFFCURVE",
"649 -113 CURVE SMOOTH"
);
}
);
};
layerId = "466AD7DC-B026-4005-940F-6404FDF7EB07";
paths = (
{
closed = 1;
nodes = (
"576 -167 OFFCURVE",
"622 -145 OFFCURVE",
"649 -113 CURVE SMOOTH",
"652 -109 OFFCURVE",
"653 -106 OFFCURVE",
"653 -102 CURVE SMOOTH",
"653 -93 OFFCURVE",
"644 -85 OFFCURVE",
"635 -85 CURVE SMOOTH",
"631 -85 OFFCURVE",
"626 -87 OFFCURVE",
"622 -92 CURVE SMOOTH",
"603 -114 OFFCURVE",
"566 -134 OFFCURVE",
"536 -134 CURVE SMOOTH",
"510 -134 OFFCURVE",
"490 -119 OFFCURVE",
"490 -78 CURVE SMOOTH",
"490 13 OFFCURVE",
"613 234 OFFCURVE",
"677 293 CURVE",
"674 295 OFFCURVE",
"668 301 OFFCURVE",
"661 301 CURVE SMOOTH",
"658 301 OFFCURVE",
"655 300 OFFCURVE",
"651 297 CURVE",
"655 305 OFFCURVE",
"650 311 OFFCURVE",
"649 311 CURVE",
"643 302 OFFCURVE",
"626 279 OFFCURVE",
"587 234 CURVE SMOOTH",
"513 143 OFFCURVE",
"362 -11 OFFCURVE",
"214 -11 CURVE SMOOTH",
"158 -11 OFFCURVE",
"131 18 OFFCURVE",
"131 76 CURVE SMOOTH",
"131 130 OFFCURVE",
"159 205 OFFCURVE",
"206 280 CURVE SMOOTH",
"303 430 OFFCURVE",
"470 556 OFFCURVE",
"661 556 CURVE SMOOTH",
"672 556 OFFCURVE",
"682 556 OFFCURVE",
"693 555 CURVE SMOOTH",
"780 550 OFFCURVE",
"828 510 OFFCURVE",
"828 467 CURVE SMOOTH",
"828 426 OFFCURVE",
"786 383 OFFCURVE",
"692 361 CURVE SMOOTH",
"656 353 OFFCURVE",
"615 349 OFFCURVE",
"572 349 CURVE SMOOTH",
"464 349 OFFCURVE",
"349 371 OFFCURVE",
"294 385 CURVE SMOOTH",
"172 420 OFFCURVE",
"113 490 OFFCURVE",
"113 535 CURVE SMOOTH",
"113 558 OFFCURVE",
"130 575 OFFCURVE",
"163 575 CURVE SMOOTH",
"180 575 OFFCURVE",
"199 571 OFFCURVE",
"223 562 CURVE",
"226 560 OFFCURVE",
"229 560 OFFCURVE",
"232 560 CURVE SMOOTH",
"241 560 OFFCURVE",
"248 568 OFFCURVE",
"248 576 CURVE SMOOTH",
"248 582 OFFCURVE",
"244 588 OFFCURVE",
"235 591 CURVE SMOOTH",
"206 602 OFFCURVE",
"181 607 OFFCURVE",
"160 607 CURVE SMOOTH",
"104 607 OFFCURVE",
"76 573 OFFCURVE",
"76 532 CURVE SMOOTH",
"76 505 OFFCURVE",
"88 474 OFFCURVE",
"114 448 CURVE SMOOTH",
"142 419 OFFCURVE",
"180 393 OFFCURVE",
"229 371 CURVE SMOOTH",
"312 336 OFFCURVE",
"450 315 OFFCURVE",
"566 315 CURVE SMOOTH",
"617 315 OFFCURVE",
"664 319 OFFCURVE",
"701 328 CURVE SMOOTH",
"808 352 OFFCURVE",
"865 416 OFFCURVE",
"865 474 CURVE SMOOTH",
"865 531 OFFCURVE",
"811 584 OFFCURVE",
"696 591 CURVE SMOOTH",
"686 592 OFFCURVE",
"676 592 OFFCURVE",
"666 592 CURVE SMOOTH",
"485 592 OFFCURVE",
"332 490 OFFCURVE",
"229 371 CURVE SMOOTH",
"164 294 OFFCURVE",
"96 176 OFFCURVE",
"95 76 CURVE SMOOTH",
"95 11 OFFCURVE",
"125 -42 OFFCURVE",
"200 -46 CURVE SMOOTH",
"373 -56 OFFCURVE",
"542 123 OFFCURVE",
"615 211 CURVE SMOOTH",
"654 257 OFFCURVE",
"673 284 OFFCURVE",
"681 293 CURVE",
"683 297 OFFCURVE",
"684 301 OFFCURVE",
"684 305 CURVE SMOOTH",
"684 316 OFFCURVE",
"676 324 OFFCURVE",
"666 324 CURVE SMOOTH",
"661 324 OFFCURVE",
"655 322 OFFCURVE",
"650 317 CURVE SMOOTH",
"579 249 OFFCURVE",
"454 22 OFFCURVE",
"454 -77 CURVE SMOOTH",
"454 -143 OFFCURVE",
"492 -167 OFFCURVE",
"535 -167 CURVE SMOOTH"
);
}
);
width = 652;
}
);
note = A;
unicode = 0041;
},
{
glyphname = AE;
lastChange = "2021-10-12 06:39:44 +0000";
layers = (
{
anchors = (
{
name = bottom;
position = "{649, 0}";
},
{
name = top;
position = "{886, 579}";
}
);
background = {
paths = (
{
closed = 1;
nodes = (
"1277 404 OFFCURVE",
"1323 454 OFFCURVE",
"1323 498 CURVE SMOOTH",
"1323 537 OFFCURVE",
"1285 572 OFFCURVE",
"1201 580 CURVE SMOOTH",
"1188 581 OFFCURVE",
"1174 582 OFFCURVE",
"1161 582 CURVE SMOOTH",
"1041 582 OFFCURVE",
"935 538 OFFCURVE",
"867 485 CURVE SMOOTH",
"866 484 OFFCURVE",
"865 483 OFFCURVE",
"864 483 CURVE",
"859 541 OFFCURVE",
"795 592 OFFCURVE",
"666 592 CURVE SMOOTH",
"499 592 OFFCURVE",
"356 506 OFFCURVE",
"254 398 CURVE",
"159 436 OFFCURVE",
"113 495 OFFCURVE",
"113 534 CURVE SMOOTH",
"113 558 OFFCURVE",
"131 575 OFFCURVE",
"164 575 CURVE SMOOTH",
"180 575 OFFCURVE",
"199 571 OFFCURVE",
"223 562 CURVE",
"226 560 OFFCURVE",
"229 560 OFFCURVE",
"232 560 CURVE SMOOTH",
"241 560 OFFCURVE",
"248 568 OFFCURVE",
"248 576 CURVE SMOOTH",
"248 582 OFFCURVE",
"244 588 OFFCURVE",
"235 591 CURVE SMOOTH",
"206 602 OFFCURVE",
"181 607 OFFCURVE",
"160 607 CURVE SMOOTH",
"104 607 OFFCURVE",
"76 573 OFFCURVE",
"76 532 CURVE SMOOTH",
"76 505 OFFCURVE",
"88 474 OFFCURVE",
"114 448 CURVE SMOOTH",
"142 419 OFFCURVE",
"180 393 OFFCURVE",
"229 371 CURVE",
"164 294 OFFCURVE",
"96 176 OFFCURVE",
"95 76 CURVE SMOOTH",
"95 11 OFFCURVE",
"125 -42 OFFCURVE",
"200 -46 CURVE SMOOTH",
"313 -53 OFFCURVE",
"425 22 OFFCURVE",
"509 99 CURVE",
"477 31 OFFCURVE",
"454 -35 OFFCURVE",
"454 -77 CURVE SMOOTH",
"454 -143 OFFCURVE",
"492 -167 OFFCURVE",
"535 -167 CURVE SMOOTH",
"576 -167 OFFCURVE",
"622 -145 OFFCURVE",
"649 -113 CURVE SMOOTH",
"652 -109 OFFCURVE",
"653 -106 OFFCURVE",
"653 -102 CURVE SMOOTH",
"653 -93 OFFCURVE",
"644 -85 OFFCURVE",
"635 -85 CURVE SMOOTH",
"631 -85 OFFCURVE",
"626 -87 OFFCURVE",
"622 -92 CURVE SMOOTH",
"603 -114 OFFCURVE",
"566 -134 OFFCURVE",
"536 -134 CURVE SMOOTH",
"510 -134 OFFCURVE",
"490 -119 OFFCURVE",
"490 -78 CURVE SMOOTH",
"490 -15 OFFCURVE",
"548 110 OFFCURVE",
"606 200 CURVE",
"615 211 LINE SMOOTH",
"654 257 OFFCURVE",
"673 284 OFFCURVE",
"681 293 CURVE",
"683 297 OFFCURVE",
"684 301 OFFCURVE",
"684 305 CURVE SMOOTH",
"684 313 OFFCURVE",
"680 319 OFFCURVE",
"673 322 CURVE",
"701 328 LINE SMOOTH",
"737 336 OFFCURVE",
"767 349 OFFCURVE",
"791 364 CURVE",
"788 334 OFFCURVE",
"801 305 OFFCURVE",
"838 284 CURVE",
"672 257 OFFCURVE",
"579 150 OFFCURVE",
"579 54 CURVE SMOOTH",
"579 -32 OFFCURVE",
"656 -110 OFFCURVE",
"825 -110 CURVE SMOOTH",
"1020 -110 OFFCURVE",
"1145 -51 OFFCURVE",
"1217 10 CURVE SMOOTH",
"1245 34 OFFCURVE",
"1287 81 OFFCURVE",
"1287 124 CURVE SMOOTH",
"1287 152 OFFCURVE",
"1270 165 OFFCURVE",
"1257 165 CURVE SMOOTH",
"1248 165 OFFCURVE",
"1241 159 OFFCURVE",
"1241 151 CURVE SMOOTH",
"1241 146 OFFCURVE",
"1243 140 OFFCURVE",
"1250 133 CURVE SMOOTH",
"1252 131 OFFCURVE",
"1253 127 OFFCURVE",
"1253 124 CURVE SMOOTH",
"1253 97 OFFCURVE",
"1202 44 OFFCURVE",
"1192 35 CURVE SMOOTH",
"1127 -18 OFFCURVE",
"1013 -76 OFFCURVE",
"826 -76 CURVE SMOOTH",
"685 -76 OFFCURVE",
"619 -14 OFFCURVE",
"619 57 CURVE SMOOTH",
"619 150 OFFCURVE",
"731 257 OFFCURVE",
"934 257 CURVE SMOOTH",
"949 257 OFFCURVE",
"964 256 OFFCURVE",
"980 255 CURVE",
"995 257 OFFCURVE",
"1004 268 OFFCURVE",
"1004 277 CURVE SMOOTH",
"1004 285 OFFCURVE",
"998 292 OFFCURVE",
"985 292 CURVE SMOOTH",
"875 292 OFFCURVE",
"829 324 OFFCURVE",
"829 365 CURVE SMOOTH",
"829 371 OFFCURVE",
"830 377 OFFCURVE",
"832 383 CURVE",
"895 366 OFFCURVE",
"964 358 OFFCURVE",
"1029 358 CURVE SMOOTH",
"1093 358 OFFCURVE",
"1153 366 OFFCURVE",
"1197 379 CURVE SMOOTH"
);
},
{
closed = 1;
nodes = (
"656 353 OFFCURVE",
"615 349 OFFCURVE",
"572 349 CURVE SMOOTH",
"464 349 OFFCURVE",
"349 371 OFFCURVE",
"294 385 CURVE SMOOTH",
"293 385 OFFCURVE",
"292 386 OFFCURVE",
"291 386 CURVE",
"388 485 OFFCURVE",
"518 556 OFFCURVE",
"662 556 CURVE SMOOTH",
"672 556 OFFCURVE",
"683 556 OFFCURVE",
"693 555 CURVE SMOOTH",
"780 550 OFFCURVE",
"828 510 OFFCURVE",
"828 467 CURVE SMOOTH",
"828 426 OFFCURVE",
"786 383 OFFCURVE",
"692 361 CURVE SMOOTH"
);
},
{
closed = 1;
nodes = (
"1252 541 OFFCURVE",
"1283 519 OFFCURVE",
"1283 492 CURVE SMOOTH",
"1283 465 OFFCURVE",
"1252 433 OFFCURVE",
"1180 411 CURVE SMOOTH",
"1139 398 OFFCURVE",
"1086 391 OFFCURVE",
"1029 391 CURVE SMOOTH",
"970 391 OFFCURVE",
"907 398 OFFCURVE",
"851 414 CURVE",
"850 414 OFFCURVE",
"849 414 OFFCURVE",
"848 415 CURVE",
"894 480 OFFCURVE",
"1019 547 OFFCURVE",
"1160 547 CURVE SMOOTH",
"1172 547 OFFCURVE",
"1185 546 OFFCURVE",
"1197 545 CURVE SMOOTH"
);
},
{
closed = 1;
nodes = (
"629 297 OFFCURVE",
"604 263 OFFCURVE",
"578 223 CURVE",
"501 131 OFFCURVE",
"356 -11 OFFCURVE",
"215 -11 CURVE SMOOTH",
"158 -11 OFFCURVE",
"131 18 OFFCURVE",
"131 76 CURVE SMOOTH",
"131 130 OFFCURVE",
"159 205 OFFCURVE",
"206 280 CURVE SMOOTH",
"223 307 OFFCURVE",
"243 333 OFFCURVE",
"265 358 CURVE",
"349 331 OFFCURVE",
"468 315 OFFCURVE",
"569 315 CURVE SMOOTH",
"599 315 OFFCURVE",
"627 316 OFFCURVE",
"653 319 CURVE SMOOTH",
"652 319 OFFCURVE",
"651 318 OFFCURVE",
"650 317 CURVE SMOOTH"
);
}
);
};
layerId = "466AD7DC-B026-4005-940F-6404FDF7EB07";
paths = (
{
closed = 1;
nodes = (
"576 -167 OFFCURVE",
"622 -145 OFFCURVE",
"649 -113 CURVE SMOOTH",
"652 -109 OFFCURVE",
"653 -106 OFFCURVE",
"653 -102 CURVE SMOOTH",
"653 -93 OFFCURVE",
"644 -85 OFFCURVE",
"635 -85 CURVE SMOOTH",
"631 -85 OFFCURVE",
"626 -87 OFFCURVE",
"622 -92 CURVE SMOOTH",
"603 -114 OFFCURVE",
"566 -134 OFFCURVE",
"536 -134 CURVE SMOOTH",
"510 -134 OFFCURVE",
"490 -119 OFFCURVE",
"490 -78 CURVE SMOOTH",
"490 -15 OFFCURVE",
"548 110 OFFCURVE",
"606 200 CURVE",
"615 211 LINE SMOOTH",
"653 258 OFFCURVE",
"673 284 OFFCURVE",
"681 293 CURVE",
"683 297 OFFCURVE",
"684 301 OFFCURVE",
"684 305 CURVE SMOOTH",
"684 313 OFFCURVE",
"680 319 OFFCURVE",
"673 322 CURVE",
"701 328 LINE SMOOTH",
"737 336 OFFCURVE",
"767 349 OFFCURVE",
"791 364 CURVE",
"788 334 OFFCURVE",
"801 305 OFFCURVE",
"838 284 CURVE",
"672 257 OFFCURVE",
"579 150 OFFCURVE",
"579 54 CURVE SMOOTH",
"579 -32 OFFCURVE",
"656 -110 OFFCURVE",
"825 -110 CURVE SMOOTH",
"1020 -110 OFFCURVE",
"1145 -51 OFFCURVE",
"1217 10 CURVE SMOOTH",
"1245 34 OFFCURVE",
"1287 81 OFFCURVE",
"1287 124 CURVE SMOOTH",
"1287 152 OFFCURVE",
"1270 165 OFFCURVE",
"1257 165 CURVE SMOOTH",
"1248 165 OFFCURVE",
"1241 159 OFFCURVE",
"1241 151 CURVE SMOOTH",
"1241 146 OFFCURVE",
"1243 140 OFFCURVE",
"1250 133 CURVE SMOOTH",
"1252 131 OFFCURVE",
"1253 127 OFFCURVE",
"1253 124 CURVE SMOOTH",
"1253 97 OFFCURVE",
"1202 44 OFFCURVE",
"1192 35 CURVE SMOOTH",
"1127 -18 OFFCURVE",
"1013 -76 OFFCURVE",
"826 -76 CURVE SMOOTH",
"685 -76 OFFCURVE",
"619 -14 OFFCURVE",
"619 57 CURVE SMOOTH",
"619 150 OFFCURVE",
"731 257 OFFCURVE",
"934 257 CURVE SMOOTH",
"949 257 OFFCURVE",
"964 256 OFFCURVE",
"980 255 CURVE",
"995 257 OFFCURVE",
"1004 268 OFFCURVE",
"1004 277 CURVE SMOOTH",
"1004 285 OFFCURVE",
"998 292 OFFCURVE",
"985 292 CURVE SMOOTH",
"875 292 OFFCURVE",
"829 324 OFFCURVE",
"829 365 CURVE SMOOTH",
"829 371 OFFCURVE",
"830 377 OFFCURVE",
"832 383 CURVE",
"895 366 OFFCURVE",
"964 358 OFFCURVE",
"1029 358 CURVE SMOOTH",
"1093 358 OFFCURVE",
"1153 366 OFFCURVE",
"1197 379 CURVE SMOOTH",
"1277 404 OFFCURVE",
"1323 454 OFFCURVE",
"1323 498 CURVE SMOOTH",
"1323 537 OFFCURVE",
"1285 572 OFFCURVE",
"1201 580 CURVE SMOOTH",
"1188 581 OFFCURVE",
"1174 582 OFFCURVE",
"1161 582 CURVE SMOOTH",
"1041 582 OFFCURVE",
"935 538 OFFCURVE",
"867 485 CURVE SMOOTH",
"866 484 OFFCURVE",
"865 483 OFFCURVE",
"864 483 CURVE",
"859 541 OFFCURVE",
"795 592 OFFCURVE",
"666 592 CURVE SMOOTH",
"499 592 OFFCURVE",
"356 506 OFFCURVE",
"254 398 CURVE",
"159 436 OFFCURVE",
"113 495 OFFCURVE",
"113 534 CURVE SMOOTH",
"113 558 OFFCURVE",
"131 575 OFFCURVE",
"164 575 CURVE SMOOTH",
"180 575 OFFCURVE",
"199 571 OFFCURVE",
"223 562 CURVE",
"226 560 OFFCURVE",
"229 560 OFFCURVE",
"232 560 CURVE SMOOTH",
"241 560 OFFCURVE",
"248 568 OFFCURVE",
"248 576 CURVE SMOOTH",
"248 582 OFFCURVE",
"244 588 OFFCURVE",
"235 591 CURVE SMOOTH",
"206 602 OFFCURVE",
"181 607 OFFCURVE",
"160 607 CURVE SMOOTH",
"104 607 OFFCURVE",
"76 573 OFFCURVE",
"76 532 CURVE SMOOTH",
"76 505 OFFCURVE",
"88 474 OFFCURVE",
"114 448 CURVE SMOOTH",
"142 419 OFFCURVE",
"180 393 OFFCURVE",
"229 371 CURVE",
"164 294 OFFCURVE",
"96 176 OFFCURVE",
"95 76 CURVE SMOOTH",
"95 11 OFFCURVE",
"125 -42 OFFCURVE",
"200 -46 CURVE SMOOTH",
"313 -53 OFFCURVE",
"425 22 OFFCURVE",
"509 99 CURVE",
"477 31 OFFCURVE",
"454 -35 OFFCURVE",
"454 -77 CURVE SMOOTH",
"454 -143 OFFCURVE",
"492 -167 OFFCURVE",
"535 -167 CURVE SMOOTH"
);
},
{
closed = 1;
nodes = (
"158 -11 OFFCURVE",
"131 18 OFFCURVE",
"131 76 CURVE SMOOTH",
"131 130 OFFCURVE",
"159 205 OFFCURVE",
"206 280 CURVE SMOOTH",
"223 307 OFFCURVE",
"243 333 OFFCURVE",
"265 358 CURVE",
"349 331 OFFCURVE",
"468 315 OFFCURVE",
"569 315 CURVE SMOOTH",
"599 315 OFFCURVE",
"627 316 OFFCURVE",
"653 319 CURVE SMOOTH",
"652 319 OFFCURVE",
"651 318 OFFCURVE",
"650 317 CURVE SMOOTH",
"629 297 OFFCURVE",
"604 263 OFFCURVE",
"578 223 CURVE",
"501 131 OFFCURVE",
"356 -11 OFFCURVE",
"215 -11 CURVE SMOOTH"
);
},
{
closed = 1;
nodes = (
"464 349 OFFCURVE",
"349 371 OFFCURVE",
"294 385 CURVE SMOOTH",
"293 385 OFFCURVE",
"292 386 OFFCURVE",
"291 386 CURVE",
"388 485 OFFCURVE",
"518 556 OFFCURVE",
"662 556 CURVE SMOOTH",
"672 556 OFFCURVE",
"683 556 OFFCURVE",
"693 555 CURVE SMOOTH",
"780 550 OFFCURVE",
"828 510 OFFCURVE",
"828 467 CURVE SMOOTH",
"828 426 OFFCURVE",
"786 383 OFFCURVE",
"692 361 CURVE SMOOTH",
"656 353 OFFCURVE",
"615 349 OFFCURVE",
"572 349 CURVE SMOOTH"
);
},
{
closed = 1;
nodes = (
"970 391 OFFCURVE",
"907 398 OFFCURVE",
"851 414 CURVE",
"850 414 OFFCURVE",
"849 414 OFFCURVE",
"848 415 CURVE",
"894 480 OFFCURVE",
"1019 547 OFFCURVE",
"1160 547 CURVE SMOOTH",
"1172 547 OFFCURVE",
"1185 546 OFFCURVE",
"1197 545 CURVE SMOOTH",
"1252 541 OFFCURVE",
"1283 519 OFFCURVE",
"1283 492 CURVE SMOOTH",
"1283 465 OFFCURVE",
"1252 433 OFFCURVE",
"1180 411 CURVE SMOOTH",
"1139 398 OFFCURVE",
"1086 391 OFFCURVE",
"1029 391 CURVE SMOOTH"
);
}
);
width = 1298;
}
);
unicode = 00C6;
},
{
glyphname = B;
lastChange = "2021-10-12 06:39:44 +0000";
layers = (
{
background = {
paths = (
{
closed = 1;
nodes = (
"257 -63 OFFCURVE",
"334 -36 OFFCURVE",
"382 0 CURVE SMOOTH",
"464 64 OFFCURVE",
"619 292 OFFCURVE",
"684 384 CURVE SMOOTH",
"765 500 OFFCURVE",
"864 586 OFFCURVE",
"917 586 CURVE SMOOTH",
"929 586 OFFCURVE",
"934 595 OFFCURVE",
"934 604 CURVE SMOOTH",
"934 612 OFFCURVE",
"929 621 OFFCURVE",
"917 621 CURVE SMOOTH",
"743 621 OFFCURVE",
"509 142 OFFCURVE",
"359 28 CURVE SMOOTH",
"315 -6 OFFCURVE",
"242 -29 OFFCURVE",
"185 -28 CURVE SMOOTH",
"135 -25 OFFCURVE",
"114 -1 OFFCURVE",
"114 23 CURVE SMOOTH",
"114 50 OFFCURVE",
"140 77 OFFCURVE",
"180 77 CURVE SMOOTH",
"187 77 OFFCURVE",
"193 76 OFFCURVE",
"200 75 CURVE SMOOTH",
"211 73 OFFCURVE",
"226 67 OFFCURVE",
"245 58 CURVE SMOOTH",
"327 23 OFFCURVE",
"405 -17 OFFCURVE",
"491 -43 CURVE SMOOTH",
"535 -56 OFFCURVE",
"577 -62 OFFCURVE",
"616 -62 CURVE SMOOTH",
"788 -62 OFFCURVE",
"906 49 OFFCURVE",
"906 147 CURVE SMOOTH",
"906 195 OFFCURVE",
"878 239 OFFCURVE",
"814 266 CURVE",
"924 294 OFFCURVE",
"990 362 OFFCURVE",
"990 429 CURVE SMOOTH",
"990 511 OFFCURVE",
"892 591 OFFCURVE",
"658 591 CURVE SMOOTH",
"372 591 OFFCURVE",
"212 472 OFFCURVE",
"178 365 CURVE SMOOTH",
"171 345 OFFCURVE",
"168 326 OFFCURVE",
"168 309 CURVE SMOOTH",
"168 245 OFFCURVE",
"213 209 OFFCURVE",
"276 209 CURVE SMOOTH",
"358 209 OFFCURVE",
"469 270 OFFCURVE",
"549 408 CURVE SMOOTH",
"551 411 OFFCURVE",
"552 414 OFFCURVE",
"552 417 CURVE SMOOTH",
"552 427 OFFCURVE",
"542 434 OFFCURVE",
"533 434 CURVE SMOOTH",
"528 434 OFFCURVE",
"522 432 OFFCURVE",
"518 425 CURVE SMOOTH",
"445 298 OFFCURVE",
"346 244 OFFCURVE",
"281 244 CURVE SMOOTH",
"236 244 OFFCURVE",
"204 266 OFFCURVE",
"204 311 CURVE SMOOTH",
"204 324 OFFCURVE",
"207 338 OFFCURVE",
"212 354 CURVE SMOOTH",
"240 440 OFFCURVE",
"379 555 OFFCURVE",
"658 555 CURVE SMOOTH",
"869 555 OFFCURVE",
"952 494 OFFCURVE",
"952 431 CURVE SMOOTH",
"952 360 OFFCURVE",
"852 287 OFFCURVE",
"714 287 CURVE SMOOTH",
"699 287 OFFCURVE",
"684 288 OFFCURVE",
"669 290 CURVE",
"656 286 OFFCURVE",
"650 278 OFFCURVE",
"650 271 CURVE SMOOTH",
"650 263 OFFCURVE",
"657 256 OFFCURVE",
"668 255 CURVE SMOOTH",
"714 253 OFFCURVE",
"774 248 OFFCURVE",
"817 225 CURVE SMOOTH",
"853 205 OFFCURVE",
"869 176 OFFCURVE",
"869 145 CURVE SMOOTH",
"869 67 OFFCURVE",
"765 -27 OFFCURVE",
"614 -27 CURVE SMOOTH",
"579 -27 OFFCURVE",
"541 -22 OFFCURVE",
"501 -10 CURVE SMOOTH",
"442 8 OFFCURVE",
"382 35 OFFCURVE",
"330 59 CURVE SMOOTH",
"292 75 OFFCURVE",
"249 101 OFFCURVE",
"208 109 CURVE SMOOTH",
"198 111 OFFCURVE",
"188 112 OFFCURVE",
"178 112 CURVE SMOOTH",
"117 112 OFFCURVE",
"79 67 OFFCURVE",
"79 22 CURVE SMOOTH",
"79 -21 OFFCURVE",
"113 -63 OFFCURVE",
"193 -63 CURVE SMOOTH"
);
}
);
};
layerId = "466AD7DC-B026-4005-940F-6404FDF7EB07";
paths = (
{
closed = 1;
nodes = (
"257 -63 OFFCURVE",
"334 -36 OFFCURVE",
"382 0 CURVE SMOOTH",
"464 64 OFFCURVE",
"619 292 OFFCURVE",
"684 384 CURVE SMOOTH",
"765 500 OFFCURVE",
"864 586 OFFCURVE",
"917 586 CURVE SMOOTH",
"929 586 OFFCURVE",
"934 595 OFFCURVE",
"934 604 CURVE SMOOTH",
"934 612 OFFCURVE",
"929 621 OFFCURVE",
"917 621 CURVE SMOOTH",
"743 621 OFFCURVE",
"509 142 OFFCURVE",
"359 28 CURVE SMOOTH",
"315 -6 OFFCURVE",
"242 -29 OFFCURVE",
"185 -28 CURVE SMOOTH",
"135 -25 OFFCURVE",
"114 -1 OFFCURVE",
"114 23 CURVE SMOOTH",
"114 50 OFFCURVE",
"140 77 OFFCURVE",
"180 77 CURVE SMOOTH",
"187 77 OFFCURVE",
"193 76 OFFCURVE",
"200 75 CURVE SMOOTH",
"211 73 OFFCURVE",
"226 67 OFFCURVE",
"245 58 CURVE SMOOTH",
"327 23 OFFCURVE",
"405 -17 OFFCURVE",
"491 -43 CURVE SMOOTH",
"535 -56 OFFCURVE",
"577 -62 OFFCURVE",
"616 -62 CURVE SMOOTH",
"788 -62 OFFCURVE",
"906 49 OFFCURVE",
"906 147 CURVE SMOOTH",
"906 195 OFFCURVE",
"878 239 OFFCURVE",
"814 266 CURVE",
"924 294 OFFCURVE",
"990 362 OFFCURVE",
"990 429 CURVE SMOOTH",
"990 511 OFFCURVE",
"892 591 OFFCURVE",
"658 591 CURVE SMOOTH",
"372 591 OFFCURVE",
"212 472 OFFCURVE",
"178 365 CURVE SMOOTH",
"171 345 OFFCURVE",
"168 326 OFFCURVE",
"168 309 CURVE SMOOTH",
"168 245 OFFCURVE",
"213 209 OFFCURVE",
"276 209 CURVE SMOOTH",
"358 209 OFFCURVE",
"469 270 OFFCURVE",
"549 408 CURVE SMOOTH",
"551 411 OFFCURVE",
"552 414 OFFCURVE",
"552 417 CURVE SMOOTH",
"552 427 OFFCURVE",
"542 434 OFFCURVE",
"533 434 CURVE SMOOTH",
"528 434 OFFCURVE",
"522 432 OFFCURVE",
"518 425 CURVE SMOOTH",
"445 298 OFFCURVE",
"346 244 OFFCURVE",
"281 244 CURVE SMOOTH",
"236 244 OFFCURVE",
"204 266 OFFCURVE",
"204 311 CURVE SMOOTH",
"204 324 OFFCURVE",
"207 338 OFFCURVE",
"212 354 CURVE SMOOTH",
"240 440 OFFCURVE",
"379 555 OFFCURVE",
"658 555 CURVE SMOOTH",
"869 555 OFFCURVE",
"952 494 OFFCURVE",
"952 431 CURVE SMOOTH",
"952 360 OFFCURVE",
"852 287 OFFCURVE",
"714 287 CURVE SMOOTH",
"699 287 OFFCURVE",
"684 288 OFFCURVE",
"669 290 CURVE",
"656 286 OFFCURVE",
"650 278 OFFCURVE",
"650 271 CURVE SMOOTH",
"650 263 OFFCURVE",
"657 256 OFFCURVE",
"668 255 CURVE SMOOTH",
"714 253 OFFCURVE",
"774 248 OFFCURVE",
"817 225 CURVE SMOOTH",
"853 205 OFFCURVE",
"869 176 OFFCURVE",
"869 145 CURVE SMOOTH",
"869 67 OFFCURVE",
"765 -27 OFFCURVE",
"614 -27 CURVE SMOOTH",
"579 -27 OFFCURVE",
"541 -22 OFFCURVE",
"501 -10 CURVE SMOOTH",
"442 8 OFFCURVE",
"382 35 OFFCURVE",
"330 59 CURVE SMOOTH",
"292 75 OFFCURVE",
"249 101 OFFCURVE",
"208 109 CURVE SMOOTH",
"198 111 OFFCURVE",
"188 112 OFFCURVE",
"178 112 CURVE SMOOTH",
"117 112 OFFCURVE",
"79 67 OFFCURVE",
"79 22 CURVE SMOOTH",
"79 -21 OFFCURVE",
"113 -63 OFFCURVE",
"193 -63 CURVE SMOOTH"
);
}
);
width = 902;
}
);
note = B;
unicode = 0042;
},
{
glyphname = C;
lastChange = "2021-10-12 06:39:44 +0000";
layers = (
{
anchors = (
{
name = bottom;
position = "{346, -124}";
},
{
name = top;
position = "{759, 581}";
}
);
background = {
paths = (
{
closed = 1;
nodes = (
"570 -109 OFFCURVE",
"749 -22 OFFCURVE",
"864 107 CURVE SMOOTH",
"868 111 OFFCURVE",
"870 116 OFFCURVE",
"870 120 CURVE SMOOTH",
"870 129 OFFCURVE",
"863 137 OFFCURVE",
"854 137 CURVE SMOOTH",
"849 137 OFFCURVE",
"845 135 OFFCURVE",
"840 130 CURVE SMOOTH",
"722 7 OFFCURVE",
"558 -73 OFFCURVE",
"435 -86 CURVE SMOOTH",
"411 -88 OFFCURVE",
"388 -90 OFFCURVE",
"368 -90 CURVE SMOOTH",
"211 -90 OFFCURVE",
"146 -23 OFFCURVE",
"146 67 CURVE SMOOTH",
"146 156 OFFCURVE",
"208 266 OFFCURVE",
"307 359 CURVE SMOOTH",
"419 464 OFFCURVE",
"581 545 OFFCURVE",
"759 545 CURVE SMOOTH",
"855 545 OFFCURVE",
"909 510 OFFCURVE",
"909 469 CURVE SMOOTH",
"909 433 OFFCURVE",
"866 392 OFFCURVE",
"771 368 CURVE SMOOTH",
"717 353 OFFCURVE",
"617 339 OFFCURVE",
"510 339 CURVE SMOOTH",
"441 339 OFFCURVE",
"371 345 OFFCURVE",
"307 359 CURVE SMOOTH",
"182 388 OFFCURVE",
"124 449 OFFCURVE",
"124 490 CURVE SMOOTH",
"124 514 OFFCURVE",
"145 532 OFFCURVE",
"185 532 CURVE SMOOTH",
"201 532 OFFCURVE",
"220 529 OFFCURVE",
"242 523 CURVE SMOOTH",
"257 518 OFFCURVE",
"268 529 OFFCURVE",
"268 539 CURVE SMOOTH",
"268 546 OFFCURVE",
"264 553 OFFCURVE",
"254 556 CURVE SMOOTH",
"227 564 OFFCURVE",
"203 567 OFFCURVE",
"182 567 CURVE SMOOTH",
"117 567 OFFCURVE",
"85 532 OFFCURVE",
"85 490 CURVE SMOOTH",
"85 460 OFFCURVE",
"101 427 OFFCURVE",
"133 400 CURVE SMOOTH",
"217 329 OFFCURVE",
"371 303 OFFCURVE",
"518 303 CURVE SMOOTH",
"617 303 OFFCURVE",
"714 315 OFFCURVE",
"783 333 CURVE SMOOTH",
"892 361 OFFCURVE",
"948 421 OFFCURVE",
"948 475 CURVE SMOOTH",
"948 531 OFFCURVE",
"886 581 OFFCURVE",
"759 581 CURVE SMOOTH",
"548 581 OFFCURVE",
"359 474 OFFCURVE",
"238 342 CURVE SMOOTH",
"153 248 OFFCURVE",
"106 148 OFFCURVE",
"106 65 CURVE SMOOTH",
"106 -44 OFFCURVE",
"188 -124 OFFCURVE",
"371 -124 CURVE SMOOTH",
"392 -124 OFFCURVE",
"414 -123 OFFCURVE",
"437 -121 CURVE SMOOTH"
);
}
);
};
layerId = "466AD7DC-B026-4005-940F-6404FDF7EB07";
paths = (
{
closed = 1;
nodes = (
"392 -124 OFFCURVE",
"414 -123 OFFCURVE",
"437 -121 CURVE SMOOTH",
"570 -109 OFFCURVE",
"749 -22 OFFCURVE",
"864 107 CURVE SMOOTH",
"868 111 OFFCURVE",
"870 116 OFFCURVE",
"870 120 CURVE SMOOTH",
"870 129 OFFCURVE",
"863 137 OFFCURVE",
"854 137 CURVE SMOOTH",
"849 137 OFFCURVE",
"845 135 OFFCURVE",
"840 130 CURVE SMOOTH",
"722 7 OFFCURVE",
"558 -73 OFFCURVE",
"435 -86 CURVE SMOOTH",
"411 -88 OFFCURVE",
"388 -90 OFFCURVE",
"368 -90 CURVE SMOOTH",
"211 -90 OFFCURVE",
"146 -23 OFFCURVE",
"146 67 CURVE SMOOTH",
"146 156 OFFCURVE",
"208 266 OFFCURVE",
"307 359 CURVE SMOOTH",
"419 464 OFFCURVE",
"581 545 OFFCURVE",
"759 545 CURVE SMOOTH",
"855 545 OFFCURVE",
"909 510 OFFCURVE",
"909 469 CURVE SMOOTH",
"909 433 OFFCURVE",
"866 392 OFFCURVE",
"771 368 CURVE SMOOTH",
"717 353 OFFCURVE",
"617 339 OFFCURVE",
"510 339 CURVE SMOOTH",
"441 339 OFFCURVE",
"371 345 OFFCURVE",
"307 359 CURVE SMOOTH",
"182 388 OFFCURVE",
"124 449 OFFCURVE",
"124 490 CURVE SMOOTH",
"124 514 OFFCURVE",
"145 532 OFFCURVE",
"185 532 CURVE SMOOTH",
"201 532 OFFCURVE",
"220 529 OFFCURVE",
"242 523 CURVE SMOOTH",
"257 518 OFFCURVE",
"268 529 OFFCURVE",
"268 539 CURVE SMOOTH",
"268 546 OFFCURVE",
"264 553 OFFCURVE",
"254 556 CURVE SMOOTH",
"227 564 OFFCURVE",
"203 567 OFFCURVE",
"182 567 CURVE SMOOTH",
"117 567 OFFCURVE",
"85 532 OFFCURVE",
"85 490 CURVE SMOOTH",
"85 460 OFFCURVE",
"101 427 OFFCURVE",
"133 400 CURVE SMOOTH",
"217 329 OFFCURVE",
"371 303 OFFCURVE",
"518 303 CURVE SMOOTH",
"617 303 OFFCURVE",
"714 315 OFFCURVE",
"783 333 CURVE SMOOTH",
"892 361 OFFCURVE",
"948 421 OFFCURVE",
"948 475 CURVE SMOOTH",
"948 531 OFFCURVE",
"886 581 OFFCURVE",
"759 581 CURVE SMOOTH",
"548 581 OFFCURVE",
"359 474 OFFCURVE",
"238 342 CURVE SMOOTH",
"153 248 OFFCURVE",
"106 148 OFFCURVE",
"106 65 CURVE SMOOTH",
"106 -44 OFFCURVE",
"188 -124 OFFCURVE",
"371 -124 CURVE SMOOTH"
);
}
);
width = 795;
}
);
note = C;
unicode = 0043;
},
{
glyphname = D;
lastChange = "2021-10-12 06:39:44 +0000";
layers = (
{
anchors = (
{
name = bottom;
position = "{523, 0}";
},
{
name = center;
position = "{605, 272}";
},
{
name = top;
position = "{1050, 595}";
}
);
background = {
paths = (
{
closed = 1;
nodes = (
"293 -53 OFFCURVE",
"371 -25 OFFCURVE",
"419 12 CURVE SMOOTH",
"503 77 OFFCURVE",
"659 310 OFFCURVE",
"725 404 CURVE SMOOTH",
"807 523 OFFCURVE",
"906 611 OFFCURVE",
"960 611 CURVE SMOOTH",
"972 611 OFFCURVE",
"977 620 OFFCURVE",
"977 629 CURVE SMOOTH",
"977 638 OFFCURVE",
"972 647 OFFCURVE",
"960 647 CURVE SMOOTH",
"784 647 OFFCURVE",
"547 157 OFFCURVE",
"396 40 CURVE SMOOTH",
"354 6 OFFCURVE",
"284 -17 OFFCURVE",
"228 -17 CURVE SMOOTH",
"172 -17 OFFCURVE",
"149 9 OFFCURVE",
"149 35 CURVE SMOOTH",
"149 62 OFFCURVE",
"175 90 OFFCURVE",
"216 90 CURVE SMOOTH",
"222 90 OFFCURVE",
"229 90 OFFCURVE",
"236 88 CURVE SMOOTH",
"246 86 OFFCURVE",
"261 80 OFFCURVE",
"281 71 CURVE SMOOTH",
"364 35 OFFCURVE",
"443 -6 OFFCURVE",
"529 -33 CURVE SMOOTH",
"584 -49 OFFCURVE",
"636 -57 OFFCURVE",
"684 -57 CURVE SMOOTH",
"837 -57 OFFCURVE",
"954 20 OFFCURVE",
"1004 131 CURVE SMOOTH",
"1025 177 OFFCURVE",
"1036 228 OFFCURVE",
"1036 280 CURVE SMOOTH",
"1036 451 OFFCURVE",
"917 625 OFFCURVE",
"678 625 CURVE SMOOTH",
"388 625 OFFCURVE",
"247 493 OFFCURVE",
"213 385 CURVE SMOOTH",
"206 364 OFFCURVE",
"203 345 OFFCURVE",
"203 328 CURVE SMOOTH",
"203 263 OFFCURVE",
"249 226 OFFCURVE",
"312 226 CURVE SMOOTH",
"395 226 OFFCURVE",
"507 288 OFFCURVE",
"588 429 CURVE SMOOTH",
"590 432 OFFCURVE",
"591 436 OFFCURVE",
"591 439 CURVE SMOOTH",
"591 449 OFFCURVE",
"582 456 OFFCURVE",
"572 456 CURVE SMOOTH",
"567 456 OFFCURVE",
"561 454 OFFCURVE",
"557 447 CURVE SMOOTH",
"482 315 OFFCURVE",
"381 262 OFFCURVE",
"314 262 CURVE SMOOTH",
"270 262 OFFCURVE",
"239 284 OFFCURVE",
"239 330 CURVE SMOOTH",
"239 343 OFFCURVE",
"242 357 OFFCURVE",
"247 374 CURVE SMOOTH",
"276 463 OFFCURVE",
"398 589 OFFCURVE",
"678 589 CURVE SMOOTH",
"894 589 OFFCURVE",
"1001 434 OFFCURVE",
"1001 280 CURVE SMOOTH",
"1001 234 OFFCURVE",
"991 188 OFFCURVE",
"972 147 CURVE SMOOTH",
"928 50 OFFCURVE",
"825 -21 OFFCURVE",
"683 -21 CURVE SMOOTH",
"639 -21 OFFCURVE",
"591 -14 OFFCURVE",
"540 1 CURVE SMOOTH",
"480 19 OFFCURVE",
"419 47 OFFCURVE",
"367 72 CURVE SMOOTH",
"320 93 OFFCURVE",
"264 126 OFFCURVE",
"214 126 CURVE SMOOTH",
"151 126 OFFCURVE",
"113 79 OFFCURVE",
"113 34 CURVE SMOOTH",
"113 -10 OFFCURVE",
"148 -53 OFFCURVE",
"229 -53 CURVE SMOOTH"
);
}
);
};
layerId = "466AD7DC-B026-4005-940F-6404FDF7EB07";
paths = (
{
closed = 1;
nodes = (
"837 -57 OFFCURVE",
"954 20 OFFCURVE",
"1004 131 CURVE SMOOTH",
"1025 177 OFFCURVE",
"1036 228 OFFCURVE",
"1036 280 CURVE SMOOTH",
"1036 451 OFFCURVE",
"917 625 OFFCURVE",
"678 625 CURVE SMOOTH",
"388 625 OFFCURVE",
"247 493 OFFCURVE",
"213 385 CURVE SMOOTH",
"206 364 OFFCURVE",
"203 345 OFFCURVE",
"203 328 CURVE SMOOTH",
"203 263 OFFCURVE",
"249 226 OFFCURVE",
"312 226 CURVE SMOOTH",
"395 226 OFFCURVE",
"507 288 OFFCURVE",
"588 429 CURVE SMOOTH",
"590 432 OFFCURVE",
"591 436 OFFCURVE",
"591 439 CURVE SMOOTH",
"591 449 OFFCURVE",
"582 456 OFFCURVE",
"572 456 CURVE SMOOTH",
"567 456 OFFCURVE",
"561 454 OFFCURVE",
"557 447 CURVE SMOOTH",
"482 315 OFFCURVE",
"381 262 OFFCURVE",
"314 262 CURVE SMOOTH",
"270 262 OFFCURVE",
"239 284 OFFCURVE",
"239 330 CURVE SMOOTH",
"239 343 OFFCURVE",
"242 357 OFFCURVE",
"247 374 CURVE SMOOTH",
"276 463 OFFCURVE",
"398 589 OFFCURVE",
"678 589 CURVE SMOOTH",
"894 589 OFFCURVE",
"1001 434 OFFCURVE",
"1001 280 CURVE SMOOTH",
"1001 234 OFFCURVE",
"991 188 OFFCURVE",
"972 147 CURVE SMOOTH",
"928 50 OFFCURVE",
"825 -21 OFFCURVE",
"683 -21 CURVE SMOOTH",
"639 -21 OFFCURVE",
"591 -14 OFFCURVE",
"540 1 CURVE SMOOTH",
"480 19 OFFCURVE",
"419 47 OFFCURVE",
"367 72 CURVE SMOOTH",
"320 93 OFFCURVE",
"264 126 OFFCURVE",
"214 126 CURVE SMOOTH",
"151 126 OFFCURVE",
"113 79 OFFCURVE",
"113 34 CURVE SMOOTH",
"113 -10 OFFCURVE",
"148 -53 OFFCURVE",
"229 -53 CURVE SMOOTH",
"293 -53 OFFCURVE",
"371 -25 OFFCURVE",
"419 12 CURVE SMOOTH",
"503 77 OFFCURVE",
"659 310 OFFCURVE",
"725 404 CURVE SMOOTH",
"807 523 OFFCURVE",
"906 611 OFFCURVE",
"960 611 CURVE SMOOTH",
"972 611 OFFCURVE",
"977 620 OFFCURVE",
"977 629 CURVE SMOOTH",
"977 638 OFFCURVE",
"972 647 OFFCURVE",
"960 647 CURVE SMOOTH",
"784 647 OFFCURVE",
"547 157 OFFCURVE",
"396 40 CURVE SMOOTH",
"354 6 OFFCURVE",
"284 -17 OFFCURVE",
"228 -17 CURVE SMOOTH",
"172 -17 OFFCURVE",
"149 9 OFFCURVE",
"149 35 CURVE SMOOTH",
"149 62 OFFCURVE",
"175 90 OFFCURVE",
"216 90 CURVE SMOOTH",
"222 90 OFFCURVE",
"229 90 OFFCURVE",
"236 88 CURVE SMOOTH",
"246 86 OFFCURVE",
"261 80 OFFCURVE",
"281 71 CURVE SMOOTH",
"364 35 OFFCURVE",
"443 -6 OFFCURVE",
"529 -33 CURVE SMOOTH",
"584 -49 OFFCURVE",
"636 -57 OFFCURVE",
"684 -57 CURVE SMOOTH"
);
}
);
width = 1045;
}
);
note = D;
unicode = 0044;
},
{
glyphname = E;
lastChange = "2021-10-12 06:39:44 +0000";
layers = (
{
anchors = (
{
name = bottom;
position = "{306, -105}";
},
{
name = ogonek;
position = "{645, -14}";
},
{
name = top;
position = "{674, 582}";
},
{
name = topleft;
position = "{20, 560}";
}
);
background = {
paths = (
{
closed = 1;
nodes = (
"520 -110 OFFCURVE",
"645 -51 OFFCURVE",
"717 10 CURVE SMOOTH",
"745 34 OFFCURVE",
"787 81 OFFCURVE",
"787 124 CURVE SMOOTH",
"787 152 OFFCURVE",
"770 165 OFFCURVE",
"757 165 CURVE SMOOTH",
"748 165 OFFCURVE",
"741 159 OFFCURVE",
"741 151 CURVE SMOOTH",
"741 146 OFFCURVE",
"743 140 OFFCURVE",
"750 133 CURVE SMOOTH",
"752 131 OFFCURVE",
"753 127 OFFCURVE",
"753 124 CURVE SMOOTH",
"753 97 OFFCURVE",
"702 44 OFFCURVE",
"692 35 CURVE SMOOTH",
"627 -18 OFFCURVE",
"513 -76 OFFCURVE",
"326 -76 CURVE SMOOTH",
"185 -76 OFFCURVE",
"119 -14 OFFCURVE",
"119 57 CURVE SMOOTH",
"119 150 OFFCURVE",
"231 257 OFFCURVE",
"434 257 CURVE SMOOTH",
"449 257 OFFCURVE",
"464 256 OFFCURVE",
"480 255 CURVE",
"495 257 OFFCURVE",
"504 268 OFFCURVE",
"504 277 CURVE SMOOTH",
"504 285 OFFCURVE",
"498 292 OFFCURVE",
"485 292 CURVE SMOOTH",
"375 292 OFFCURVE",
"329 324 OFFCURVE",
"329 365 CURVE SMOOTH",
"329 440 OFFCURVE",
"481 547 OFFCURVE",
"659 547 CURVE SMOOTH",
"672 547 OFFCURVE",
"684 546 OFFCURVE",
"697 545 CURVE SMOOTH",
"752 541 OFFCURVE",
"783 519 OFFCURVE",
"783 492 CURVE SMOOTH",
"783 465 OFFCURVE",
"752 433 OFFCURVE",
"680 411 CURVE SMOOTH",
"639 398 OFFCURVE",
"586 391 OFFCURVE",
"529 391 CURVE SMOOTH",
"470 391 OFFCURVE",
"407 398 OFFCURVE",
"351 414 CURVE SMOOTH",
"227 449 OFFCURVE",
"171 508 OFFCURVE",
"171 544 CURVE SMOOTH",
"171 563 OFFCURVE",
"185 575 OFFCURVE",
"213 575 CURVE SMOOTH",
"226 575 OFFCURVE",
"242 572 OFFCURVE",
"261 566 CURVE SMOOTH",
"274 562 OFFCURVE",
"282 571 OFFCURVE",
"282 581 CURVE SMOOTH",
"282 588 OFFCURVE",
"278 596 OFFCURVE",
"268 599 CURVE SMOOTH",
"241 608 OFFCURVE",
"218 613 OFFCURVE",
"200 613 CURVE SMOOTH",
"153 613 OFFCURVE",
"133 587 OFFCURVE",
"133 554 CURVE SMOOTH",
"133 527 OFFCURVE",
"147 494 OFFCURVE",
"172 468 CURVE SMOOTH",
"247 391 OFFCURVE",
"399 358 OFFCURVE",
"532 358 CURVE SMOOTH",
"595 358 OFFCURVE",
"653 365 OFFCURVE",
"697 379 CURVE SMOOTH",
"777 404 OFFCURVE",
"823 454 OFFCURVE",
"823 498 CURVE SMOOTH",
"823 537 OFFCURVE",
"785 572 OFFCURVE",
"701 580 CURVE SMOOTH",
"688 581 OFFCURVE",
"674 582 OFFCURVE",
"661 582 CURVE SMOOTH",
"541 582 OFFCURVE",
"435 538 OFFCURVE",
"367 485 CURVE SMOOTH",
"330 454 OFFCURVE",
"291 403 OFFCURVE",
"291 356 CURVE SMOOTH",
"291 329 OFFCURVE",
"304 303 OFFCURVE",
"338 284 CURVE",
"172 257 OFFCURVE",
"79 150 OFFCURVE",
"79 54 CURVE SMOOTH",
"79 -32 OFFCURVE",
"156 -110 OFFCURVE",
"325 -110 CURVE SMOOTH"
);
}
);
};
layerId = "466AD7DC-B026-4005-940F-6404FDF7EB07";
paths = (
{
closed = 1;
nodes = (
"520 -110 OFFCURVE",
"645 -51 OFFCURVE",
"717 10 CURVE SMOOTH",
"745 34 OFFCURVE",
"787 81 OFFCURVE",
"787 124 CURVE SMOOTH",
"787 152 OFFCURVE",
"770 165 OFFCURVE",
"757 165 CURVE SMOOTH",
"748 165 OFFCURVE",
"741 159 OFFCURVE",
"741 151 CURVE SMOOTH",
"741 146 OFFCURVE",
"743 140 OFFCURVE",
"750 133 CURVE SMOOTH",
"752 131 OFFCURVE",
"753 127 OFFCURVE",
"753 124 CURVE SMOOTH",
"753 97 OFFCURVE",
"702 44 OFFCURVE",
"692 35 CURVE SMOOTH",
"627 -18 OFFCURVE",
"513 -76 OFFCURVE",
"326 -76 CURVE SMOOTH",
"185 -76 OFFCURVE",
"119 -14 OFFCURVE",
"119 57 CURVE SMOOTH",
"119 150 OFFCURVE",
"231 257 OFFCURVE",
"434 257 CURVE SMOOTH",
"449 257 OFFCURVE",
"464 256 OFFCURVE",
"480 255 CURVE",
"495 257 OFFCURVE",
"504 268 OFFCURVE",
"504 277 CURVE SMOOTH",
"504 285 OFFCURVE",
"498 292 OFFCURVE",
"485 292 CURVE SMOOTH",
"375 292 OFFCURVE",
"329 324 OFFCURVE",
"329 365 CURVE SMOOTH",
"329 440 OFFCURVE",
"481 547 OFFCURVE",
"659 547 CURVE SMOOTH",
"672 547 OFFCURVE",
"684 546 OFFCURVE",
"697 545 CURVE SMOOTH",
"752 541 OFFCURVE",
"783 519 OFFCURVE",
"783 492 CURVE SMOOTH",
"783 465 OFFCURVE",
"752 433 OFFCURVE",
"680 411 CURVE SMOOTH",
"639 398 OFFCURVE",
"586 391 OFFCURVE",
"529 391 CURVE SMOOTH",
"470 391 OFFCURVE",
"407 398 OFFCURVE",
"351 414 CURVE SMOOTH",
"227 449 OFFCURVE",
"171 508 OFFCURVE",
"171 544 CURVE SMOOTH",
"171 563 OFFCURVE",
"185 575 OFFCURVE",
"213 575 CURVE SMOOTH",
"226 575 OFFCURVE",
"242 572 OFFCURVE",
"261 566 CURVE SMOOTH",
"274 562 OFFCURVE",
"282 571 OFFCURVE",
"282 581 CURVE SMOOTH",
"282 588 OFFCURVE",
"278 596 OFFCURVE",
"268 599 CURVE SMOOTH",
"241 608 OFFCURVE",
"218 613 OFFCURVE",
"200 613 CURVE SMOOTH",
"153 613 OFFCURVE",
"133 587 OFFCURVE",
"133 554 CURVE SMOOTH",
"133 527 OFFCURVE",
"147 494 OFFCURVE",
"172 468 CURVE SMOOTH",
"247 391 OFFCURVE",
"399 358 OFFCURVE",
"532 358 CURVE SMOOTH",
"595 358 OFFCURVE",
"653 365 OFFCURVE",
"697 379 CURVE SMOOTH",
"777 404 OFFCURVE",
"823 454 OFFCURVE",
"823 498 CURVE SMOOTH",
"823 537 OFFCURVE",
"785 572 OFFCURVE",
"701 580 CURVE SMOOTH",
"688 581 OFFCURVE",
"674 582 OFFCURVE",
"661 582 CURVE SMOOTH",
"541 582 OFFCURVE",
"435 538 OFFCURVE",
"367 485 CURVE SMOOTH",
"330 454 OFFCURVE",
"291 403 OFFCURVE",
"291 356 CURVE SMOOTH",
"291 329 OFFCURVE",
"304 303 OFFCURVE",
"338 284 CURVE",
"172 257 OFFCURVE",
"79 150 OFFCURVE",
"79 54 CURVE SMOOTH",
"79 -32 OFFCURVE",
"156 -110 OFFCURVE",
"325 -110 CURVE SMOOTH"
);
}
);
width = 804;
}
);
note = E;
unicode = 0045;
},
{
glyphname = F;
lastChange = "2021-10-12 06:39:44 +0000";
layers = (
{
background = {
paths = (
{
closed = 1;
nodes = (
"560 -126 OFFCURVE",
"696 35 OFFCURVE",
"796 207 CURVE SMOOTH",
"848 298 OFFCURVE",
"889 384 OFFCURVE",
"938 458 CURVE SMOOTH",
"966 499 OFFCURVE",
"994 515 OFFCURVE",
"1014 515 CURVE SMOOTH",
"1020 515 OFFCURVE",
"1025 514 OFFCURVE",
"1029 511 CURVE SMOOTH",
"1032 509 OFFCURVE",
"1036 508 OFFCURVE",
"1039 508 CURVE SMOOTH",
"1049 508 OFFCURVE",
"1056 517 OFFCURVE",
"1056 527 CURVE SMOOTH",
"1056 533 OFFCURVE",
"1054 538 OFFCURVE",
"1048 542 CURVE SMOOTH",
"1037 549 OFFCURVE",
"1026 552 OFFCURVE",
"1014 552 CURVE SMOOTH",
"976 552 OFFCURVE",
"936 520 OFFCURVE",
"908 478 CURVE SMOOTH",
"767 267 OFFCURVE",
"660 -90 OFFCURVE",
"346 -90 CURVE SMOOTH",
"186 -90 OFFCURVE",
"124 -4 OFFCURVE",
"124 82 CURVE SMOOTH",
"124 165 OFFCURVE",
"180 247 OFFCURVE",
"262 254 CURVE SMOOTH",
"273 255 OFFCURVE",
"278 263 OFFCURVE",
"278 271 CURVE SMOOTH",
"278 281 OFFCURVE",
"271 291 OFFCURVE",
"258 290 CURVE SMOOTH",
"154 280 OFFCURVE",
"87 181 OFFCURVE",
"87 83 CURVE SMOOTH",
"87 -22 OFFCURVE",
"162 -126 OFFCURVE",
"346 -126 CURVE SMOOTH"
);
},
{
closed = 1;
nodes = (
"494 162 OFFCURVE",
"545 177 OFFCURVE",
"606 177 CURVE SMOOTH",
"684 177 OFFCURVE",
"779 153 OFFCURVE",
"847 153 CURVE SMOOTH",
"863 153 OFFCURVE",
"878 155 OFFCURVE",
"890 158 CURVE SMOOTH",
"901 161 OFFCURVE",
"906 168 OFFCURVE",
"906 174 CURVE SMOOTH",
"906 180 OFFCURVE",
"900 186 OFFCURVE",
"890 186 CURVE SMOOTH",
"886 186 LINE SMOOTH",
"879 185 OFFCURVE",
"869 184 OFFCURVE",
"858 184 CURVE SMOOTH",
"835 184 OFFCURVE",
"804 187 OFFCURVE",
"774 190 CURVE SMOOTH",
"726 197 OFFCURVE",
"660 211 OFFCURVE",
"599 211 CURVE SMOOTH",
"530 211 OFFCURVE",
"467 192 OFFCURVE",
"441 120 CURVE SMOOTH",
"437 106 OFFCURVE",
"447 96 OFFCURVE",
"458 96 CURVE SMOOTH",
"465 96 OFFCURVE",
"473 100 OFFCURVE",
"476 109 CURVE SMOOTH"
);
},
{
closed = 1;
nodes = (
"556 210 OFFCURVE",
"635 316 OFFCURVE",
"652 395 CURVE SMOOTH",
"655 409 OFFCURVE",
"644 417 OFFCURVE",
"634 417 CURVE SMOOTH",
"626 417 OFFCURVE",
"619 413 OFFCURVE",
"617 403 CURVE SMOOTH",
"601 331 OFFCURVE",
"531 244 OFFCURVE",
"443 244 CURVE SMOOTH",
"377 244 OFFCURVE",
"346 285 OFFCURVE",
"346 337 CURVE SMOOTH",
"346 419 OFFCURVE",
"423 527 OFFCURVE",
"560 539 CURVE SMOOTH",
"572 540 OFFCURVE",
"584 541 OFFCURVE",
"595 541 CURVE SMOOTH",
"683 541 OFFCURVE",
"767 513 OFFCURVE",
"848 481 CURVE SMOOTH",
"903 461 OFFCURVE",
"1034 402 OFFCURVE",
"1130 402 CURVE SMOOTH",
"1175 402 OFFCURVE",
"1212 415 OFFCURVE",
"1231 450 CURVE SMOOTH",
"1235 458 OFFCURVE",
"1237 465 OFFCURVE",
"1237 471 CURVE SMOOTH",
"1237 486 OFFCURVE",
"1225 494 OFFCURVE",
"1215 494 CURVE SMOOTH",
"1206 494 OFFCURVE",
"1199 489 OFFCURVE",
"1199 480 CURVE SMOOTH",
"1199 478 OFFCURVE",
"1200 475 OFFCURVE",
"1201 472 CURVE",
"1196 445 OFFCURVE",
"1140 436 OFFCURVE",
"1122 437 CURVE SMOOTH",
"949 449 OFFCURVE",
"802 577 OFFCURVE",
"600 577 CURVE SMOOTH",
"586 577 OFFCURVE",
"571 576 OFFCURVE",
"557 575 CURVE SMOOTH",
"397 561 OFFCURVE",
"312 437 OFFCURVE",
"312 336 CURVE SMOOTH",
"312 264 OFFCURVE",
"356 205 OFFCURVE",
"449 208 CURVE SMOOTH"
);
}
);
};
layerId = "466AD7DC-B026-4005-940F-6404FDF7EB07";
paths = (
{
closed = 1;
nodes = (
"560 -126 OFFCURVE",
"696 35 OFFCURVE",
"796 207 CURVE SMOOTH",
"848 298 OFFCURVE",
"889 384 OFFCURVE",
"938 458 CURVE SMOOTH",
"966 499 OFFCURVE",
"994 515 OFFCURVE",
"1014 515 CURVE SMOOTH",
"1020 515 OFFCURVE",
"1025 514 OFFCURVE",
"1029 511 CURVE SMOOTH",
"1032 509 OFFCURVE",
"1036 508 OFFCURVE",
"1039 508 CURVE SMOOTH",
"1049 508 OFFCURVE",
"1056 517 OFFCURVE",
"1056 527 CURVE SMOOTH",
"1056 533 OFFCURVE",
"1054 538 OFFCURVE",
"1048 542 CURVE SMOOTH",
"1037 549 OFFCURVE",
"1026 552 OFFCURVE",
"1014 552 CURVE SMOOTH",
"976 552 OFFCURVE",
"936 520 OFFCURVE",
"908 478 CURVE SMOOTH",
"767 267 OFFCURVE",
"660 -90 OFFCURVE",
"346 -90 CURVE SMOOTH",
"186 -90 OFFCURVE",
"124 -4 OFFCURVE",
"124 82 CURVE SMOOTH",
"124 165 OFFCURVE",
"180 247 OFFCURVE",
"262 254 CURVE SMOOTH",
"273 255 OFFCURVE",
"278 263 OFFCURVE",
"278 271 CURVE SMOOTH",
"278 281 OFFCURVE",
"272 290 OFFCURVE",
"260 290 CURVE SMOOTH",
"258 290 LINE SMOOTH",
"154 280 OFFCURVE",
"87 181 OFFCURVE",
"87 83 CURVE SMOOTH",
"87 -22 OFFCURVE",
"162 -126 OFFCURVE",
"346 -126 CURVE SMOOTH"
);
},
{
closed = 1;
nodes = (
"465 96 OFFCURVE",
"473 100 OFFCURVE",
"476 109 CURVE SMOOTH",
"494 162 OFFCURVE",
"545 177 OFFCURVE",
"606 177 CURVE SMOOTH",
"684 177 OFFCURVE",
"779 153 OFFCURVE",
"847 153 CURVE SMOOTH",
"863 153 OFFCURVE",
"878 155 OFFCURVE",
"890 158 CURVE SMOOTH",
"901 161 OFFCURVE",
"906 168 OFFCURVE",
"906 174 CURVE SMOOTH",
"906 180 OFFCURVE",
"900 186 OFFCURVE",
"890 186 CURVE SMOOTH",
"886 186 LINE SMOOTH",
"879 185 OFFCURVE",
"869 184 OFFCURVE",
"858 184 CURVE SMOOTH",
"835 184 OFFCURVE",
"804 187 OFFCURVE",
"774 190 CURVE SMOOTH",
"726 197 OFFCURVE",
"660 211 OFFCURVE",
"599 211 CURVE SMOOTH",
"530 211 OFFCURVE",
"467 192 OFFCURVE",
"441 120 CURVE SMOOTH",
"437 106 OFFCURVE",
"447 96 OFFCURVE",
"458 96 CURVE SMOOTH"
);
},
{
closed = 1;
nodes = (
"556 210 OFFCURVE",
"635 316 OFFCURVE",
"652 395 CURVE SMOOTH",
"655 409 OFFCURVE",
"644 417 OFFCURVE",
"634 417 CURVE SMOOTH",
"626 417 OFFCURVE",
"619 413 OFFCURVE",
"617 403 CURVE SMOOTH",
"601 331 OFFCURVE",
"531 244 OFFCURVE",
"443 244 CURVE SMOOTH",
"377 244 OFFCURVE",
"346 285 OFFCURVE",
"346 337 CURVE SMOOTH",
"346 419 OFFCURVE",
"423 527 OFFCURVE",
"560 539 CURVE SMOOTH",
"572 540 OFFCURVE",
"584 541 OFFCURVE",
"595 541 CURVE SMOOTH",
"683 541 OFFCURVE",
"767 513 OFFCURVE",
"848 481 CURVE SMOOTH",
"903 461 OFFCURVE",
"1034 402 OFFCURVE",
"1130 402 CURVE SMOOTH",
"1175 402 OFFCURVE",
"1212 415 OFFCURVE",
"1231 450 CURVE SMOOTH",
"1235 458 OFFCURVE",
"1237 465 OFFCURVE",
"1237 471 CURVE SMOOTH",
"1237 486 OFFCURVE",
"1225 494 OFFCURVE",
"1215 494 CURVE SMOOTH",
"1206 494 OFFCURVE",
"1199 489 OFFCURVE",
"1199 480 CURVE SMOOTH",
"1199 478 OFFCURVE",
"1200 475 OFFCURVE",
"1201 472 CURVE",
"1196 445 OFFCURVE",
"1140 436 OFFCURVE",
"1122 437 CURVE SMOOTH",
"949 449 OFFCURVE",
"802 577 OFFCURVE",
"600 577 CURVE SMOOTH",
"586 577 OFFCURVE",
"571 576 OFFCURVE",
"557 575 CURVE SMOOTH",
"397 561 OFFCURVE",
"312 437 OFFCURVE",
"312 336 CURVE SMOOTH",
"312 264 OFFCURVE",
"356 205 OFFCURVE",
"449 208 CURVE SMOOTH"
);
}
);
width = 924;
}
);
note = F;
unicode = 0046;
},
{
glyphname = G;
lastChange = "2021-10-12 06:39:44 +0000";
layers = (
{
anchors = (
{
name = bottom;
position = "{215, -279}";
},
{
name = top;
position = "{628, 553}";
}
);
background = {
paths = (
{
closed = 1;
nodes = (
"235 -298 OFFCURVE",
"369 -247 OFFCURVE",
"473 -151 CURVE SMOOTH",
"491 -134 OFFCURVE",
"508 -113 OFFCURVE",
"524 -91 CURVE",
"578 -99 OFFCURVE",
"638 -113 OFFCURVE",
"650 -133 CURVE",
"652 -139 OFFCURVE",
"656 -141 OFFCURVE",
"660 -141 CURVE SMOOTH",
"668 -141 OFFCURVE",
"676 -132 OFFCURVE",
"676 -121 CURVE SMOOTH",
"676 -118 OFFCURVE",
"676 -115 OFFCURVE",
"674 -112 CURVE SMOOTH",
"659 -81 OFFCURVE",
"602 -66 OFFCURVE",
"547 -58 CURVE",
"599 28 OFFCURVE",
"635 136 OFFCURVE",
"647 222 CURVE",
"647 235 OFFCURVE",
"637 243 OFFCURVE",
"628 243 CURVE SMOOTH",
"622 243 OFFCURVE",
"616 239 OFFCURVE",
"613 232 CURVE SMOOTH",
"591 185 OFFCURVE",
"505 87 OFFCURVE",
"454 61 CURVE SMOOTH",
"408 39 OFFCURVE",
"340 13 OFFCURVE",
"281 13 CURVE SMOOTH",
"221 13 OFFCURVE",
"169 41 OFFCURVE",
"154 116 CURVE",
"148 160 OFFCURVE",
"174 235 OFFCURVE",
"208 293 CURVE SMOOTH",
"215 304 OFFCURVE",
"222 313 OFFCURVE",
"231 323 CURVE",
"294 304 OFFCURVE",
"367 294 OFFCURVE",
"437 294 CURVE SMOOTH",
"518 294 OFFCURVE",
"596 306 OFFCURVE",
"650 323 CURVE SMOOTH",
"728 350 OFFCURVE",
"780 409 OFFCURVE",
"780 460 CURVE SMOOTH",
"780 510 OFFCURVE",
"733 553 OFFCURVE",
"628 553 CURVE SMOOTH",
"459 553 OFFCURVE",
"310 464 OFFCURVE",
"217 364 CURVE",
"141 392 OFFCURVE",
"105 436 OFFCURVE",
"105 467 CURVE SMOOTH",
"105 489 OFFCURVE",
"122 505 OFFCURVE",
"155 505 CURVE SMOOTH",
"166 505 OFFCURVE",
"183 503 OFFCURVE",
"199 497 CURVE SMOOTH",
"202 496 OFFCURVE",
"205 495 OFFCURVE",
"207 495 CURVE SMOOTH",
"218 495 OFFCURVE",
"224 504 OFFCURVE",
"224 514 CURVE SMOOTH",
"224 520 OFFCURVE",
"221 526 OFFCURVE",
"214 529 CURVE SMOOTH",
"199 535 OFFCURVE",
"171 539 OFFCURVE",
"153 539 CURVE SMOOTH",
"98 539 OFFCURVE",
"70 507 OFFCURVE",
"70 467 CURVE SMOOTH",
"70 441 OFFCURVE",
"87 409 OFFCURVE",
"111 384 CURVE",
"133 365 OFFCURVE",
"161 349 OFFCURVE",
"194 336 CURVE",
"154 283 OFFCURVE",
"115 209 OFFCURVE",
"115 140 CURVE SMOOTH",
"115 131 OFFCURVE",
"116 119 OFFCURVE",
"118 111 CURVE SMOOTH",
"136 15 OFFCURVE",
"203 -20 OFFCURVE",
"279 -20 CURVE SMOOTH",
"346 -20 OFFCURVE",
"419 4 OFFCURVE",
"471 30 CURVE SMOOTH",
"507 49 OFFCURVE",
"557 97 OFFCURVE",
"594 140 CURVE",
"575 71 OFFCURVE",
"542 2 OFFCURVE",
"506 -54 CURVE",
"483 -53 OFFCURVE",
"462 -53 OFFCURVE",
"446 -53 CURVE SMOOTH",
"358 -53 OFFCURVE",
"16 -75 OFFCURVE",
"16 -217 CURVE SMOOTH",
"16 -263 OFFCURVE",
"60 -298 OFFCURVE",
"126 -298 CURVE SMOOTH"
);
},
{
closed = 1;
nodes = (
"71 -262 OFFCURVE",
"51 -236 OFFCURVE",
"51 -217 CURVE SMOOTH",
"51 -195 OFFCURVE",
"72 -163 OFFCURVE",
"131 -140 CURVE SMOOTH",
"230 -99 OFFCURVE",
"340 -87 OFFCURVE",
"446 -87 CURVE SMOOTH",
"455 -87 OFFCURVE",
"468 -87 OFFCURVE",
"483 -89 CURVE",
"401 -184 OFFCURVE",
"250 -262 OFFCURVE",
"126 -262 CURVE SMOOTH"
);
},
{
closed = 1;
nodes = (
"378 329 OFFCURVE",
"311 335 OFFCURVE",
"255 351 CURVE",
"350 452 OFFCURVE",
"489 518 OFFCURVE",
"628 518 CURVE SMOOTH",
"702 518 OFFCURVE",
"744 486 OFFCURVE",
"744 449 CURVE SMOOTH",
"744 417 OFFCURVE",
"711 380 OFFCURVE",
"637 355 CURVE SMOOTH",
"586 338 OFFCURVE",
"516 329 OFFCURVE",
"442 329 CURVE SMOOTH"
);
}
);
};
layerId = "466AD7DC-B026-4005-940F-6404FDF7EB07";
paths = (
{
closed = 1;
nodes = (
"235 -298 OFFCURVE",
"369 -247 OFFCURVE",
"473 -151 CURVE SMOOTH",
"491 -134 OFFCURVE",
"508 -113 OFFCURVE",
"524 -91 CURVE",
"578 -99 OFFCURVE",
"638 -113 OFFCURVE",
"650 -133 CURVE",
"652 -139 OFFCURVE",
"656 -141 OFFCURVE",
"660 -141 CURVE SMOOTH",
"668 -141 OFFCURVE",
"676 -132 OFFCURVE",
"676 -121 CURVE SMOOTH",
"676 -118 OFFCURVE",
"676 -115 OFFCURVE",
"674 -112 CURVE SMOOTH",
"659 -81 OFFCURVE",
"602 -66 OFFCURVE",
"547 -58 CURVE",
"599 28 OFFCURVE",
"635 136 OFFCURVE",
"647 222 CURVE",
"647 235 OFFCURVE",
"637 243 OFFCURVE",
"628 243 CURVE SMOOTH",
"622 243 OFFCURVE",
"616 239 OFFCURVE",
"613 232 CURVE SMOOTH",
"591 185 OFFCURVE",
"505 87 OFFCURVE",
"454 61 CURVE SMOOTH",
"408 39 OFFCURVE",
"340 13 OFFCURVE",
"281 13 CURVE SMOOTH",
"221 13 OFFCURVE",
"169 41 OFFCURVE",
"154 116 CURVE",
"148 160 OFFCURVE",
"174 235 OFFCURVE",
"208 293 CURVE SMOOTH",
"215 304 OFFCURVE",
"222 313 OFFCURVE",
"231 323 CURVE",
"294 304 OFFCURVE",
"367 294 OFFCURVE",
"437 294 CURVE SMOOTH",
"518 294 OFFCURVE",
"596 306 OFFCURVE",
"650 323 CURVE SMOOTH",
"728 350 OFFCURVE",
"780 409 OFFCURVE",
"780 460 CURVE SMOOTH",
"780 510 OFFCURVE",
"733 553 OFFCURVE",
"628 553 CURVE SMOOTH",
"459 553 OFFCURVE",
"310 464 OFFCURVE",
"217 364 CURVE",
"141 392 OFFCURVE",
"105 436 OFFCURVE",
"105 467 CURVE SMOOTH",
"105 489 OFFCURVE",
"122 505 OFFCURVE",
"155 505 CURVE SMOOTH",
"166 505 OFFCURVE",
"183 503 OFFCURVE",
"199 497 CURVE SMOOTH",
"202 496 OFFCURVE",
"205 495 OFFCURVE",
"207 495 CURVE SMOOTH",
"218 495 OFFCURVE",
"224 504 OFFCURVE",
"224 514 CURVE SMOOTH",
"224 520 OFFCURVE",
"221 526 OFFCURVE",
"214 529 CURVE SMOOTH",
"199 535 OFFCURVE",
"171 539 OFFCURVE",
"153 539 CURVE SMOOTH",
"98 539 OFFCURVE",
"70 507 OFFCURVE",
"70 467 CURVE SMOOTH",
"70 441 OFFCURVE",
"87 409 OFFCURVE",
"111 384 CURVE",
"133 365 OFFCURVE",
"161 349 OFFCURVE",
"194 336 CURVE",
"154 283 OFFCURVE",
"115 209 OFFCURVE",
"115 140 CURVE SMOOTH",
"115 131 OFFCURVE",
"116 119 OFFCURVE",
"118 111 CURVE SMOOTH",
"136 15 OFFCURVE",
"203 -20 OFFCURVE",
"279 -20 CURVE SMOOTH",
"346 -20 OFFCURVE",
"419 4 OFFCURVE",
"471 30 CURVE SMOOTH",
"507 49 OFFCURVE",
"557 97 OFFCURVE",
"594 140 CURVE",
"575 71 OFFCURVE",
"542 2 OFFCURVE",
"506 -54 CURVE",
"483 -53 OFFCURVE",
"462 -53 OFFCURVE",
"446 -53 CURVE SMOOTH",
"358 -53 OFFCURVE",
"16 -75 OFFCURVE",
"16 -217 CURVE SMOOTH",
"16 -263 OFFCURVE",
"60 -298 OFFCURVE",
"126 -298 CURVE SMOOTH"
);
},
{
closed = 1;
nodes = (
"71 -262 OFFCURVE",
"51 -236 OFFCURVE",
"51 -217 CURVE SMOOTH",
"51 -195 OFFCURVE",
"72 -163 OFFCURVE",
"131 -140 CURVE SMOOTH",
"230 -99 OFFCURVE",
"340 -87 OFFCURVE",
"446 -87 CURVE SMOOTH",
"455 -87 OFFCURVE",
"468 -87 OFFCURVE",
"483 -89 CURVE",
"401 -184 OFFCURVE",
"250 -262 OFFCURVE",
"126 -262 CURVE SMOOTH"
);
},
{
closed = 1;
nodes = (
"378 329 OFFCURVE",
"311 335 OFFCURVE",
"255 351 CURVE",
"350 452 OFFCURVE",
"489 518 OFFCURVE",
"628 518 CURVE SMOOTH",
"702 518 OFFCURVE",
"744 486 OFFCURVE",
"744 449 CURVE SMOOTH",
"744 417 OFFCURVE",
"711 380 OFFCURVE",
"637 355 CURVE SMOOTH",
"586 338 OFFCURVE",
"516 329 OFFCURVE",
"442 329 CURVE SMOOTH"
);
}
);
width = 699;
}
);
note = G;
unicode = 0047;
},
{
glyphname = H;
lastChange = "2021-10-12 06:39:44 +0000";
layers = (
{
anchors = (
{
name = bottom;
position = "{558, 0}";
},
{
name = center;
position = "{558, 280}";
},
{
name = top;
position = "{1085, 560}";
},
{
name = topleft;
position = "{20, 560}";
}
);
background = {
paths = (
{
closed = 1;
nodes = (
"534 -159 OFFCURVE",
"677 -5 OFFCURVE",
"753 183 CURVE SMOOTH",
"770 224 OFFCURVE",
"880 528 OFFCURVE",
"946 511 CURVE",
"945 512 OFFCURVE",
"944 514 OFFCURVE",
"942 514 CURVE",
"946 520 OFFCURVE",
"944 525 OFFCURVE",
"941 528 CURVE",
"933 524 OFFCURVE",
"918 520 OFFCURVE",
"902 517 CURVE SMOOTH",
"794 504 OFFCURVE",
"686 518 OFFCURVE",
"579 493 CURVE SMOOTH",
"367 445 OFFCURVE",
"272 319 OFFCURVE",
"272 227 CURVE SMOOTH",
"272 168 OFFCURVE",
"311 123 OFFCURVE",
"384 123 CURVE SMOOTH",
"445 123 OFFCURVE",
"510 160 OFFCURVE",
"552 205 CURVE SMOOTH",
"571 228 OFFCURVE",
"601 276 OFFCURVE",
"601 315 CURVE SMOOTH",
"601 332 OFFCURVE",
"596 346 OFFCURVE",
"583 357 CURVE SMOOTH",
"578 361 OFFCURVE",
"573 363 OFFCURVE",
"569 363 CURVE SMOOTH",
"559 363 OFFCURVE",
"551 356 OFFCURVE",
"551 347 CURVE SMOOTH",
"551 343 OFFCURVE",
"553 339 OFFCURVE",
"558 335 CURVE SMOOTH",
"561 333 OFFCURVE",
"564 325 OFFCURVE",
"564 313 CURVE SMOOTH",
"564 308 OFFCURVE",
"563 301 OFFCURVE",
"561 293 CURVE SMOOTH",
"540 224 OFFCURVE",
"457 159 OFFCURVE",
"384 159 CURVE SMOOTH",
"340 159 OFFCURVE",
"308 181 OFFCURVE",
"308 227 CURVE SMOOTH",
"308 240 OFFCURVE",
"311 255 OFFCURVE",
"316 272 CURVE SMOOTH",
"337 338 OFFCURVE",
"422 421 OFFCURVE",
"587 458 CURVE SMOOTH",
"693 482 OFFCURVE",
"800 468 OFFCURVE",
"906 482 CURVE SMOOTH",
"957 488 OFFCURVE",
"976 507 OFFCURVE",
"976 523 CURVE SMOOTH",
"976 536 OFFCURVE",
"963 547 OFFCURVE",
"945 547 CURVE SMOOTH",
"911 547 OFFCURVE",
"876 518 OFFCURVE",
"848 478 CURVE SMOOTH",
"803 408 OFFCURVE",
"751 272 OFFCURVE",
"720 196 CURVE SMOOTH",
"647 15 OFFCURVE",
"514 -123 OFFCURVE",
"320 -123 CURVE SMOOTH",
"160 -123 OFFCURVE",
"98 -37 OFFCURVE",
"98 49 CURVE SMOOTH",
"98 131 OFFCURVE",
"154 213 OFFCURVE",
"236 221 CURVE SMOOTH",
"247 222 OFFCURVE",
"252 230 OFFCURVE",
"252 238 CURVE SMOOTH",
"252 248 OFFCURVE",
"245 258 OFFCURVE",
"232 257 CURVE SMOOTH",
"129 247 OFFCURVE",
"62 148 OFFCURVE",
"62 50 CURVE SMOOTH",
"62 -55 OFFCURVE",
"136 -159 OFFCURVE",
"320 -159 CURVE SMOOTH"
);
},
{
closed = 1;
nodes = (
"631 187 OFFCURVE",
"682 202 OFFCURVE",
"744 202 CURVE SMOOTH",
"821 202 OFFCURVE",
"915 178 OFFCURVE",
"982 178 CURVE SMOOTH",
"999 178 OFFCURVE",
"1014 179 OFFCURVE",
"1027 183 CURVE SMOOTH",
"1037 186 OFFCURVE",
"1042 193 OFFCURVE",
"1042 199 CURVE SMOOTH",
"1042 205 OFFCURVE",
"1037 210 OFFCURVE",
"1028 210 CURVE SMOOTH",
"1023 210 LINE SMOOTH",
"1016 209 OFFCURVE",
"1007 208 OFFCURVE",
"996 208 CURVE SMOOTH",
"972 208 OFFCURVE",
"941 211 OFFCURVE",
"911 215 CURVE SMOOTH",
"863 221 OFFCURVE",
"797 236 OFFCURVE",
"735 236 CURVE SMOOTH",
"666 236 OFFCURVE",
"603 217 OFFCURVE",
"578 145 CURVE SMOOTH",
"574 131 OFFCURVE",
"585 121 OFFCURVE",
"596 121 CURVE SMOOTH",
"602 121 OFFCURVE",
"609 124 OFFCURVE",
"612 133 CURVE SMOOTH"
);
},
{
closed = 1;
nodes = (
"1006 -48 OFFCURVE",
"992 -15 OFFCURVE",
"992 34 CURVE SMOOTH",
"992 135 OFFCURVE",
"1052 309 OFFCURVE",
"1127 429 CURVE SMOOTH",
"1176 505 OFFCURVE",
"1229 552 OFFCURVE",
"1254 554 CURVE SMOOTH",
"1265 554 OFFCURVE",
"1270 562 OFFCURVE",
"1270 570 CURVE SMOOTH",
"1270 578 OFFCURVE",
"1264 587 OFFCURVE",
"1253 587 CURVE SMOOTH",
"1205 587 OFFCURVE",
"1142 519 OFFCURVE",
"1098 447 CURVE SMOOTH",
"1005 299 OFFCURVE",
"955 126 OFFCURVE",
"955 26 CURVE SMOOTH",
"955 14 OFFCURVE",
"955 3 OFFCURVE",
"957 -7 CURVE SMOOTH",
"966 -60 OFFCURVE",
"998 -82 OFFCURVE",
"1036 -82 CURVE SMOOTH",
"1076 -82 OFFCURVE",
"1122 -56 OFFCURVE",
"1147 -18 CURVE SMOOTH",
"1150 -14 OFFCURVE",
"1151 -11 OFFCURVE",
"1151 -7 CURVE SMOOTH",
"1151 1 OFFCURVE",
"1144 7 OFFCURVE",
"1137 7 CURVE SMOOTH",
"1132 7 OFFCURVE",
"1128 5 OFFCURVE",
"1124 0 CURVE SMOOTH",
"1107 -22 OFFCURVE",
"1070 -48 OFFCURVE",
"1040 -48 CURVE SMOOTH"
);
}
);
};
layerId = "466AD7DC-B026-4005-940F-6404FDF7EB07";
paths = (
{
closed = 1;
nodes = (
"534 -159 OFFCURVE",
"677 -5 OFFCURVE",
"753 183 CURVE SMOOTH",
"770 224 OFFCURVE",
"880 528 OFFCURVE",
"946 511 CURVE",
"945 512 OFFCURVE",
"944 514 OFFCURVE",
"942 514 CURVE",
"946 520 OFFCURVE",
"944 525 OFFCURVE",
"941 528 CURVE",
"933 524 OFFCURVE",
"918 520 OFFCURVE",
"902 517 CURVE SMOOTH",
"794 504 OFFCURVE",
"686 518 OFFCURVE",
"579 493 CURVE SMOOTH",
"367 445 OFFCURVE",
"272 319 OFFCURVE",
"272 227 CURVE SMOOTH",
"272 168 OFFCURVE",
"311 123 OFFCURVE",
"384 123 CURVE SMOOTH",
"445 123 OFFCURVE",
"510 160 OFFCURVE",
"552 205 CURVE SMOOTH",
"571 228 OFFCURVE",
"601 276 OFFCURVE",
"601 315 CURVE SMOOTH",
"601 332 OFFCURVE",
"596 346 OFFCURVE",
"583 357 CURVE SMOOTH",
"578 361 OFFCURVE",
"573 363 OFFCURVE",
"569 363 CURVE SMOOTH",
"559 363 OFFCURVE",
"551 356 OFFCURVE",
"551 347 CURVE SMOOTH",
"551 343 OFFCURVE",
"553 339 OFFCURVE",
"558 335 CURVE SMOOTH",
"561 333 OFFCURVE",
"564 325 OFFCURVE",
"564 313 CURVE SMOOTH",
"564 308 OFFCURVE",
"563 301 OFFCURVE",
"561 293 CURVE SMOOTH",
"540 224 OFFCURVE",
"457 159 OFFCURVE",
"384 159 CURVE SMOOTH",
"340 159 OFFCURVE",
"308 181 OFFCURVE",
"308 227 CURVE SMOOTH",
"308 240 OFFCURVE",
"311 255 OFFCURVE",
"316 272 CURVE SMOOTH",
"337 338 OFFCURVE",
"422 421 OFFCURVE",
"587 458 CURVE SMOOTH",
"693 482 OFFCURVE",
"800 468 OFFCURVE",
"906 482 CURVE SMOOTH",
"957 488 OFFCURVE",
"976 507 OFFCURVE",
"976 523 CURVE SMOOTH",
"976 536 OFFCURVE",
"963 547 OFFCURVE",
"945 547 CURVE SMOOTH",
"911 547 OFFCURVE",
"876 518 OFFCURVE",
"848 478 CURVE SMOOTH",
"803 408 OFFCURVE",
"751 272 OFFCURVE",
"720 196 CURVE SMOOTH",
"647 15 OFFCURVE",
"514 -123 OFFCURVE",
"320 -123 CURVE SMOOTH",
"160 -123 OFFCURVE",
"98 -37 OFFCURVE",
"98 49 CURVE SMOOTH",
"98 131 OFFCURVE",
"154 213 OFFCURVE",
"236 221 CURVE SMOOTH",
"247 222 OFFCURVE",
"252 230 OFFCURVE",
"252 238 CURVE SMOOTH",
"252 248 OFFCURVE",
"246 257 OFFCURVE",
"234 257 CURVE SMOOTH",
"232 257 LINE SMOOTH",
"129 247 OFFCURVE",
"62 148 OFFCURVE",
"62 50 CURVE SMOOTH",
"62 -55 OFFCURVE",
"136 -159 OFFCURVE",
"320 -159 CURVE SMOOTH"
);
},
{
closed = 1;
nodes = (
"602 121 OFFCURVE",
"609 124 OFFCURVE",
"612 133 CURVE SMOOTH",
"631 187 OFFCURVE",
"682 202 OFFCURVE",
"744 202 CURVE SMOOTH",
"821 202 OFFCURVE",
"915 178 OFFCURVE",
"982 178 CURVE SMOOTH",
"999 178 OFFCURVE",
"1014 179 OFFCURVE",
"1027 183 CURVE SMOOTH",
"1037 186 OFFCURVE",
"1042 193 OFFCURVE",
"1042 199 CURVE SMOOTH",
"1042 205 OFFCURVE",
"1037 210 OFFCURVE",
"1028 210 CURVE SMOOTH",
"1023 210 LINE SMOOTH",
"1016 210 OFFCURVE",
"1007 208 OFFCURVE",
"996 208 CURVE SMOOTH",
"972 208 OFFCURVE",
"941 211 OFFCURVE",
"911 215 CURVE SMOOTH",
"863 221 OFFCURVE",
"797 236 OFFCURVE",
"735 236 CURVE SMOOTH",
"666 236 OFFCURVE",
"603 217 OFFCURVE",
"578 145 CURVE SMOOTH",
"574 131 OFFCURVE",
"585 121 OFFCURVE",
"596 121 CURVE SMOOTH"
);
},
{
closed = 1;
nodes = (
"1076 -82 OFFCURVE",
"1122 -56 OFFCURVE",
"1147 -18 CURVE SMOOTH",
"1150 -14 OFFCURVE",
"1151 -11 OFFCURVE",
"1151 -7 CURVE SMOOTH",
"1151 1 OFFCURVE",
"1144 7 OFFCURVE",
"1137 7 CURVE SMOOTH",
"1132 7 OFFCURVE",
"1128 5 OFFCURVE",
"1124 0 CURVE SMOOTH",
"1107 -22 OFFCURVE",
"1070 -48 OFFCURVE",
"1040 -48 CURVE SMOOTH",
"1006 -48 OFFCURVE",
"992 -15 OFFCURVE",
"992 34 CURVE SMOOTH",
"992 135 OFFCURVE",
"1052 309 OFFCURVE",
"1127 429 CURVE SMOOTH",
"1176 505 OFFCURVE",
"1229 552 OFFCURVE",
"1254 554 CURVE SMOOTH",
"1265 554 OFFCURVE",
"1270 562 OFFCURVE",
"1270 570 CURVE SMOOTH",
"1270 578 OFFCURVE",
"1264 587 OFFCURVE",
"1253 587 CURVE SMOOTH",
"1205 587 OFFCURVE",
"1142 519 OFFCURVE",
"1098 447 CURVE SMOOTH",
"1005 299 OFFCURVE",
"955 126 OFFCURVE",
"955 26 CURVE SMOOTH",
"955 14 OFFCURVE",
"955 3 OFFCURVE",
"957 -7 CURVE SMOOTH",
"966 -60 OFFCURVE",
"998 -82 OFFCURVE",
"1036 -82 CURVE SMOOTH"
);
}
);
width = 1116;
}
);
note = H;
unicode = 0048;
},
{
glyphname = I;
lastChange = "2021-10-12 06:39:44 +0000";
layers = (
{
anchors = (
{
name = bottom;
position = "{308, -135}";
},
{
name = ogonek;
position = "{325, -114}";
},
{
name = top;
position = "{912, 593}";
},
{
name = topleft;
position = "{20, 560}";
}
);
background = {
paths = (
{
closed = 1;
nodes = (
"586 -135 OFFCURVE",
"699 167 OFFCURVE",
"798 391 CURVE SMOOTH",
"838 479 OFFCURVE",
"888 566 OFFCURVE",
"925 558 CURVE",
"924 559 OFFCURVE",
"923 560 OFFCURVE",
"921 561 CURVE",
"924 566 OFFCURVE",
"922 571 OFFCURVE",
"919 575 CURVE",
"911 569 OFFCURVE",
"896 565 OFFCURVE",
"880 564 CURVE",
"788 551 OFFCURVE",
"695 546 OFFCURVE",
"608 510 CURVE SMOOTH",
"469 450 OFFCURVE",
"398 357 OFFCURVE",
"388 280 CURVE SMOOTH",
"387 271 OFFCURVE",
"386 262 OFFCURVE",
"386 254 CURVE SMOOTH",
"386 183 OFFCURVE",
"427 153 OFFCURVE",
"477 153 CURVE SMOOTH",
"553 153 OFFCURVE",
"649 221 OFFCURVE",
"659 327 CURVE SMOOTH",
"663 364 OFFCURVE",
"650 378 OFFCURVE",
"642 390 CURVE SMOOTH",
"638 395 OFFCURVE",
"633 397 OFFCURVE",
"628 397 CURVE SMOOTH",
"620 397 OFFCURVE",
"612 391 OFFCURVE",
"612 382 CURVE SMOOTH",
"612 378 OFFCURVE",
"613 373 OFFCURVE",
"616 368 CURVE SMOOTH",
"622 357 OFFCURVE",
"625 346 OFFCURVE",
"625 334 CURVE SMOOTH",
"625 293 OFFCURVE",
"592 252 OFFCURVE",
"573 233 CURVE SMOOTH",
"545 205 OFFCURVE",
"509 188 OFFCURVE",
"480 188 CURVE SMOOTH",
"448 188 OFFCURVE",
"423 208 OFFCURVE",
"423 256 CURVE SMOOTH",
"423 262 OFFCURVE",
"423 269 OFFCURVE",
"424 276 CURVE SMOOTH",
"431 336 OFFCURVE",
"490 421 OFFCURVE",
"622 477 CURVE SMOOTH",
"705 512 OFFCURVE",
"797 516 OFFCURVE",
"885 527 CURVE SMOOTH",
"936 534 OFFCURVE",
"954 553 OFFCURVE",
"954 569 CURVE SMOOTH",
"954 582 OFFCURVE",
"942 593 OFFCURVE",
"924 593 CURVE SMOOTH",
"888 593 OFFCURVE",
"852 563 OFFCURVE",
"825 521 CURVE SMOOTH",
"807 491 OFFCURVE",
"788 454 OFFCURVE",
"770 413 CURVE SMOOTH",
"678 206 OFFCURVE",
"564 -99 OFFCURVE",
"330 -99 CURVE SMOOTH",
"189 -99 OFFCURVE",
"138 -10 OFFCURVE",
"138 75 CURVE SMOOTH",
"138 130 OFFCURVE",
"165 173 OFFCURVE",
"194 197 CURVE SMOOTH",
"209 208 OFFCURVE",
"226 214 OFFCURVE",
"241 214 CURVE SMOOTH",
"258 214 OFFCURVE",
"273 206 OFFCURVE",
"281 190 CURVE SMOOTH",
"284 184 OFFCURVE",
"288 181 OFFCURVE",
"292 181 CURVE SMOOTH",
"298 181 OFFCURVE",
"305 189 OFFCURVE",
"305 198 CURVE SMOOTH",
"305 202 OFFCURVE",
"305 205 OFFCURVE",
"303 209 CURVE SMOOTH",
"289 237 OFFCURVE",
"265 249 OFFCURVE",
"240 249 CURVE SMOOTH",
"220 249 OFFCURVE",
"198 241 OFFCURVE",
"180 229 CURVE SMOOTH",
"131 196 OFFCURVE",
"102 136 OFFCURVE",
"102 74 CURVE SMOOTH",
"102 -26 OFFCURVE",
"176 -135 OFFCURVE",
"330 -135 CURVE SMOOTH"
);
}
);
};
layerId = "466AD7DC-B026-4005-940F-6404FDF7EB07";
paths = (
{
closed = 1;
nodes = (
"586 -135 OFFCURVE",
"699 167 OFFCURVE",
"798 391 CURVE SMOOTH",
"838 479 OFFCURVE",
"888 566 OFFCURVE",
"925 558 CURVE",
"924 559 OFFCURVE",
"923 560 OFFCURVE",
"921 561 CURVE",
"924 566 OFFCURVE",
"922 571 OFFCURVE",
"919 575 CURVE",
"911 569 OFFCURVE",
"896 565 OFFCURVE",
"880 564 CURVE",
"788 551 OFFCURVE",
"695 546 OFFCURVE",
"608 510 CURVE SMOOTH",
"469 450 OFFCURVE",
"398 357 OFFCURVE",
"388 280 CURVE SMOOTH",
"387 271 OFFCURVE",
"386 262 OFFCURVE",
"386 254 CURVE SMOOTH",
"386 183 OFFCURVE",
"427 153 OFFCURVE",
"477 153 CURVE SMOOTH",
"553 153 OFFCURVE",
"649 221 OFFCURVE",
"659 327 CURVE SMOOTH",
"663 364 OFFCURVE",
"650 378 OFFCURVE",
"642 390 CURVE SMOOTH",
"638 395 OFFCURVE",
"633 397 OFFCURVE",
"628 397 CURVE SMOOTH",
"620 397 OFFCURVE",
"612 391 OFFCURVE",
"612 382 CURVE SMOOTH",
"612 378 OFFCURVE",
"613 373 OFFCURVE",
"616 368 CURVE SMOOTH",
"622 357 OFFCURVE",
"625 346 OFFCURVE",
"625 334 CURVE SMOOTH",
"625 293 OFFCURVE",
"592 252 OFFCURVE",
"573 233 CURVE SMOOTH",
"545 205 OFFCURVE",
"509 188 OFFCURVE",
"480 188 CURVE SMOOTH",
"448 188 OFFCURVE",
"423 208 OFFCURVE",
"423 256 CURVE SMOOTH",
"423 262 OFFCURVE",
"423 269 OFFCURVE",
"424 276 CURVE SMOOTH",
"431 336 OFFCURVE",
"490 421 OFFCURVE",
"622 477 CURVE SMOOTH",
"705 512 OFFCURVE",
"797 516 OFFCURVE",
"885 527 CURVE SMOOTH",
"936 534 OFFCURVE",
"954 553 OFFCURVE",
"954 569 CURVE SMOOTH",
"954 582 OFFCURVE",
"942 593 OFFCURVE",
"924 593 CURVE SMOOTH",
"888 593 OFFCURVE",
"852 563 OFFCURVE",
"825 521 CURVE SMOOTH",
"807 491 OFFCURVE",
"788 454 OFFCURVE",
"770 413 CURVE SMOOTH",
"678 206 OFFCURVE",
"564 -99 OFFCURVE",
"330 -99 CURVE SMOOTH",
"189 -99 OFFCURVE",
"138 -10 OFFCURVE",
"138 75 CURVE SMOOTH",
"138 130 OFFCURVE",
"165 173 OFFCURVE",
"194 197 CURVE SMOOTH",
"209 208 OFFCURVE",
"226 214 OFFCURVE",
"241 214 CURVE SMOOTH",
"258 214 OFFCURVE",
"273 206 OFFCURVE",
"281 190 CURVE SMOOTH",
"284 184 OFFCURVE",
"288 181 OFFCURVE",
"292 181 CURVE SMOOTH",
"298 181 OFFCURVE",
"305 189 OFFCURVE",
"305 198 CURVE SMOOTH",
"305 202 OFFCURVE",
"305 205 OFFCURVE",
"303 209 CURVE SMOOTH",
"289 237 OFFCURVE",
"265 249 OFFCURVE",
"240 249 CURVE SMOOTH",
"220 249 OFFCURVE",
"198 241 OFFCURVE",
"180 229 CURVE SMOOTH",
"131 196 OFFCURVE",
"102 136 OFFCURVE",
"102 74 CURVE SMOOTH",
"102 -26 OFFCURVE",
"176 -135 OFFCURVE",
"330 -135 CURVE SMOOTH"
);
}
);
width = 805;
}
);
note = I;
unicode = 0049;
},
{
glyphname = J;
lastChange = "2021-10-12 06:39:44 +0000";
layers = (
{
anchors = (
{
name = bottom;
position = "{371, 0}";
},
{
name = top;
position = "{821, 582}";
}
);
background = {
paths = (
{
closed = 1;
nodes = (
"391 -218 OFFCURVE",
"523 -67 OFFCURVE",
"611 99 CURVE SMOOTH",
"656 185 OFFCURVE",
"682 274 OFFCURVE",
"729 378 CURVE SMOOTH",
"754 435 OFFCURVE",
"786 495 OFFCURVE",
"813 526 CURVE SMOOTH",
"828 544 OFFCURVE",
"845 550 OFFCURVE",
"858 547 CURVE",
"857 548 OFFCURVE",
"856 549 OFFCURVE",
"854 550 CURVE",
"857 555 OFFCURVE",
"855 560 OFFCURVE",
"852 564 CURVE",
"844 558 OFFCURVE",
"829 555 OFFCURVE",
"813 553 CURVE SMOOTH",
"728 541 OFFCURVE",
"640 544 OFFCURVE",
"560 510 CURVE SMOOTH",
"430 456 OFFCURVE",
"365 369 OFFCURVE",
"356 298 CURVE SMOOTH",
"355 290 OFFCURVE",
"354 282 OFFCURVE",
"354 274 CURVE SMOOTH",
"354 208 OFFCURVE",
"392 180 OFFCURVE",
"439 180 CURVE SMOOTH",
"509 180 OFFCURVE",
"598 244 OFFCURVE",
"608 341 CURVE SMOOTH",
"613 388 OFFCURVE",
"595 403 OFFCURVE",
"578 403 CURVE SMOOTH",
"567 403 OFFCURVE",
"556 395 OFFCURVE",
"556 386 CURVE SMOOTH",
"556 381 OFFCURVE",
"559 376 OFFCURVE",
"567 371 CURVE SMOOTH",
"569 370 OFFCURVE",
"572 366 OFFCURVE",
"572 353 CURVE SMOOTH",
"572 344 LINE",
"565 271 OFFCURVE",
"493 215 OFFCURVE",
"442 215 CURVE SMOOTH",
"413 215 OFFCURVE",
"391 233 OFFCURVE",
"391 275 CURVE SMOOTH",
"391 280 OFFCURVE",
"391 286 OFFCURVE",
"392 293 CURVE SMOOTH",
"398 347 OFFCURVE",
"452 425 OFFCURVE",
"574 477 CURVE SMOOTH",
"651 510 OFFCURVE",
"735 506 OFFCURVE",
"818 517 CURVE SMOOTH",
"869 523 OFFCURVE",
"887 542 OFFCURVE",
"887 558 CURVE SMOOTH",
"887 571 OFFCURVE",
"875 582 OFFCURVE",
"857 582 CURVE SMOOTH",
"821 582 OFFCURVE",
"785 553 OFFCURVE",
"763 517 CURVE SMOOTH",
"684 393 OFFCURVE",
"649 247 OFFCURVE",
"577 112 CURVE SMOOTH",
"496 -42 OFFCURVE",
"373 -182 OFFCURVE",
"183 -182 CURVE SMOOTH",
"89 -182 OFFCURVE",
"32 -136 OFFCURVE",
"32 -78 CURVE SMOOTH",
"32 -18 OFFCURVE",
"84 24 OFFCURVE",
"157 54 CURVE SMOOTH",
"241 88 OFFCURVE",
"343 102 OFFCURVE",
"440 102 CURVE SMOOTH",
"483 102 OFFCURVE",
"526 99 OFFCURVE",
"566 94 CURVE SMOOTH",
"619 86 OFFCURVE",
"655 74 OFFCURVE",
"660 71 CURVE SMOOTH",
"667 65 OFFCURVE",
"674 63 OFFCURVE",
"679 63 CURVE SMOOTH",
"686 63 OFFCURVE",
"691 68 OFFCURVE",
"691 76 CURVE SMOOTH",
"691 80 OFFCURVE",
"690 85 OFFCURVE",
"687 90 CURVE SMOOTH",
"664 130 OFFCURVE",
"498 137 OFFCURVE",
"413 137 CURVE SMOOTH",
"392 137 OFFCURVE",
"376 136 OFFCURVE",
"368 136 CURVE SMOOTH",
"251 128 OFFCURVE",
"-4 81 OFFCURVE",
"-4 -78 CURVE SMOOTH",
"-4 -167 OFFCURVE",
"82 -218 OFFCURVE",
"183 -218 CURVE SMOOTH"
);
}
);
};
layerId = "466AD7DC-B026-4005-940F-6404FDF7EB07";
paths = (
{
closed = 1;
nodes = (
"391 -218 OFFCURVE",
"523 -67 OFFCURVE",
"611 99 CURVE SMOOTH",
"656 185 OFFCURVE",
"682 274 OFFCURVE",
"729 378 CURVE SMOOTH",
"754 435 OFFCURVE",
"786 495 OFFCURVE",
"813 526 CURVE SMOOTH",
"828 544 OFFCURVE",
"845 550 OFFCURVE",
"858 547 CURVE",
"857 548 OFFCURVE",
"856 549 OFFCURVE",
"854 550 CURVE",
"857 555 OFFCURVE",
"855 560 OFFCURVE",
"852 564 CURVE",
"844 558 OFFCURVE",
"829 555 OFFCURVE",
"813 553 CURVE SMOOTH",
"728 541 OFFCURVE",
"640 544 OFFCURVE",
"560 510 CURVE SMOOTH",
"430 456 OFFCURVE",
"365 369 OFFCURVE",
"356 298 CURVE SMOOTH",
"355 290 OFFCURVE",
"354 282 OFFCURVE",
"354 274 CURVE SMOOTH",
"354 208 OFFCURVE",
"392 180 OFFCURVE",
"439 180 CURVE SMOOTH",
"513 180 OFFCURVE",
"609 251 OFFCURVE",
"609 356 CURVE SMOOTH",
"609 391 OFFCURVE",
"593 403 OFFCURVE",
"578 403 CURVE SMOOTH",
"567 403 OFFCURVE",
"556 395 OFFCURVE",
"556 386 CURVE SMOOTH",
"556 381 OFFCURVE",
"559 376 OFFCURVE",
"567 371 CURVE SMOOTH",
"569 370 OFFCURVE",
"572 366 OFFCURVE",
"572 353 CURVE SMOOTH",
"572 344 LINE",
"565 271 OFFCURVE",
"493 215 OFFCURVE",
"442 215 CURVE SMOOTH",
"413 215 OFFCURVE",
"391 233 OFFCURVE",
"391 275 CURVE SMOOTH",
"391 280 OFFCURVE",
"391 286 OFFCURVE",
"392 293 CURVE SMOOTH",
"398 347 OFFCURVE",
"452 425 OFFCURVE",
"574 477 CURVE SMOOTH",
"651 510 OFFCURVE",
"735 506 OFFCURVE",
"818 517 CURVE SMOOTH",
"869 523 OFFCURVE",
"887 542 OFFCURVE",
"887 558 CURVE SMOOTH",
"887 571 OFFCURVE",
"875 582 OFFCURVE",
"857 582 CURVE SMOOTH",
"821 582 OFFCURVE",
"785 553 OFFCURVE",
"763 517 CURVE SMOOTH",
"684 393 OFFCURVE",
"649 247 OFFCURVE",
"577 112 CURVE SMOOTH",
"496 -42 OFFCURVE",
"373 -182 OFFCURVE",
"183 -182 CURVE SMOOTH",
"89 -182 OFFCURVE",
"32 -136 OFFCURVE",
"32 -78 CURVE SMOOTH",
"32 -18 OFFCURVE",
"84 24 OFFCURVE",
"157 54 CURVE SMOOTH",
"241 88 OFFCURVE",
"343 102 OFFCURVE",
"440 102 CURVE SMOOTH",
"483 102 OFFCURVE",
"526 99 OFFCURVE",
"566 94 CURVE SMOOTH",
"619 86 OFFCURVE",
"655 74 OFFCURVE",
"660 71 CURVE SMOOTH",
"667 65 OFFCURVE",
"674 63 OFFCURVE",
"679 63 CURVE SMOOTH",
"686 63 OFFCURVE",
"691 68 OFFCURVE",
"691 76 CURVE SMOOTH",
"691 80 OFFCURVE",
"690 85 OFFCURVE",
"687 90 CURVE SMOOTH",
"664 130 OFFCURVE",
"498 137 OFFCURVE",
"413 137 CURVE SMOOTH",
"392 137 OFFCURVE",
"376 136 OFFCURVE",
"368 136 CURVE SMOOTH",
"251 128 OFFCURVE",
"-4 81 OFFCURVE",
"-4 -78 CURVE SMOOTH",
"-4 -167 OFFCURVE",
"82 -218 OFFCURVE",
"183 -218 CURVE SMOOTH"
);
}
);
width = 741;
}
);
note = J;
unicode = 004A;
},
{
glyphname = K;
lastChange = "2021-10-12 06:39:44 +0000";
layers = (
{
anchors = (
{
name = bottom;
position = "{717, -70}";
},
{
name = top;
position = "{1057, 617}";
}
);
background = {
paths = (
{
closed = 1;
nodes = (
"518 -128 OFFCURVE",
"679 53 OFFCURVE",
"751 228 CURVE",
"756 243 LINE SMOOTH",
"777 297 OFFCURVE",
"835 447 OFFCURVE",
"888 510 CURVE",
"894 511 LINE SMOOTH",
"943 517 OFFCURVE",
"962 535 OFFCURVE",
"962 552 CURVE SMOOTH",
"962 564 OFFCURVE",
"948 575 OFFCURVE",
"930 575 CURVE SMOOTH",
"909 575 OFFCURVE",
"886 560 OFFCURVE",
"867 543 CURVE",
"845 540 LINE SMOOTH",
"774 533 OFFCURVE",
"698 523 OFFCURVE",
"631 496 CURVE SMOOTH",
"498 439 OFFCURVE",
"431 352 OFFCURVE",
"422 277 CURVE SMOOTH",
"421 268 OFFCURVE",
"421 260 OFFCURVE",
"421 253 CURVE SMOOTH",
"421 185 OFFCURVE",
"459 156 OFFCURVE",
"508 156 CURVE SMOOTH",
"583 156 OFFCURVE",
"682 226 OFFCURVE",
"682 337 CURVE SMOOTH",
"682 373 OFFCURVE",
"665 385 OFFCURVE",
"651 385 CURVE SMOOTH",
"639 385 OFFCURVE",
"630 378 OFFCURVE",
"630 369 CURVE SMOOTH",
"630 364 OFFCURVE",
"633 359 OFFCURVE",
"640 354 CURVE SMOOTH",
"642 352 OFFCURVE",
"645 346 OFFCURVE",
"645 334 CURVE SMOOTH",
"645 332 OFFCURVE",
"644 328 OFFCURVE",
"644 325 CURVE SMOOTH",
"637 249 OFFCURVE",
"563 191 OFFCURVE",
"510 191 CURVE SMOOTH",
"482 191 OFFCURVE",
"459 209 OFFCURVE",
"459 253 CURVE SMOOTH",
"459 259 OFFCURVE",
"459 266 OFFCURVE",
"460 273 CURVE SMOOTH",
"467 330 OFFCURVE",
"521 410 OFFCURVE",
"646 462 CURVE SMOOTH",
"706 487 OFFCURVE",
"770 496 OFFCURVE",
"834 504 CURVE",
"797 444 OFFCURVE",
"755 339 OFFCURVE",
"727 268 CURVE SMOOTH",
"717 241 LINE SMOOTH",
"645 71 OFFCURVE",
"495 -92 OFFCURVE",
"332 -92 CURVE SMOOTH",
"179 -92 OFFCURVE",
"123 -10 OFFCURVE",
"123 69 CURVE SMOOTH",
"123 150 OFFCURVE",
"187 203 OFFCURVE",
"232 203 CURVE SMOOTH",
"247 203 OFFCURVE",
"262 197 OFFCURVE",
"269 182 CURVE SMOOTH",
"273 175 OFFCURVE",
"280 172 OFFCURVE",
"287 172 CURVE SMOOTH",
"297 172 OFFCURVE",
"306 178 OFFCURVE",
"306 188 CURVE SMOOTH",
"306 191 OFFCURVE",
"304 195 OFFCURVE",
"302 199 CURVE SMOOTH",
"287 229 OFFCURVE",
"261 239 OFFCURVE",
"233 239 CURVE SMOOTH",
"213 239 OFFCURVE",
"188 231 OFFCURVE",
"169 220 CURVE SMOOTH",
"115 188 OFFCURVE",
"85 130 OFFCURVE",
"85 71 CURVE SMOOTH",
"85 -25 OFFCURVE",
"163 -128 OFFCURVE",
"332 -128 CURVE SMOOTH"
);
},
{
closed = 1;
nodes = (
"1108 -113 OFFCURVE",
"1162 -65 OFFCURVE",
"1187 -14 CURVE SMOOTH",
"1189 -11 OFFCURVE",
"1189 -8 OFFCURVE",
"1189 -5 CURVE SMOOTH",
"1189 4 OFFCURVE",
"1181 11 OFFCURVE",
"1172 11 CURVE SMOOTH",
"1166 11 OFFCURVE",
"1160 8 OFFCURVE",
"1157 1 CURVE SMOOTH",
"1137 -38 OFFCURVE",
"1090 -79 OFFCURVE",
"1006 -79 CURVE SMOOTH",
"886 -79 OFFCURVE",
"824 164 OFFCURVE",
"818 254 CURVE",
"1019 317 OFFCURVE",
"1252 579 OFFCURVE",
"1318 679 CURVE SMOOTH",
"1320 682 OFFCURVE",
"1321 686 OFFCURVE",
"1321 689 CURVE SMOOTH",
"1321 700 OFFCURVE",
"1312 709 OFFCURVE",
"1302 709 CURVE SMOOTH",
"1298 709 OFFCURVE",
"1293 707 OFFCURVE",
"1290 702 CURVE SMOOTH",
"1221 598 OFFCURVE",
"982 337 OFFCURVE",
"794 287 CURVE",
"789 285 OFFCURVE",
"780 275 OFFCURVE",
"780 269 CURVE SMOOTH",
"780 259 OFFCURVE",
"781 248 OFFCURVE",
"782 234 CURVE SMOOTH",
"792 116 OFFCURVE",
"872 -113 OFFCURVE",
"1003 -113 CURVE SMOOTH"
);
}
);
};
layerId = "466AD7DC-B026-4005-940F-6404FDF7EB07";
paths = (
{
closed = 1;
nodes = (
"518 -128 OFFCURVE",
"679 53 OFFCURVE",
"751 228 CURVE",
"756 243 LINE SMOOTH",
"774 298 OFFCURVE",
"835 447 OFFCURVE",
"888 510 CURVE",
"894 511 LINE SMOOTH",
"943 519 OFFCURVE",
"962 535 OFFCURVE",
"962 552 CURVE SMOOTH",
"962 564 OFFCURVE",
"948 575 OFFCURVE",
"930 575 CURVE SMOOTH",
"909 575 OFFCURVE",
"886 560 OFFCURVE",
"867 543 CURVE",
"845 540 LINE SMOOTH",
"774 530 OFFCURVE",
"698 523 OFFCURVE",
"631 496 CURVE SMOOTH",
"498 439 OFFCURVE",
"431 352 OFFCURVE",
"422 277 CURVE SMOOTH",
"421 268 OFFCURVE",
"421 260 OFFCURVE",
"421 253 CURVE SMOOTH",
"421 185 OFFCURVE",
"459 156 OFFCURVE",
"508 156 CURVE SMOOTH",
"583 156 OFFCURVE",
"682 226 OFFCURVE",
"682 337 CURVE SMOOTH",
"682 373 OFFCURVE",
"665 385 OFFCURVE",
"651 385 CURVE SMOOTH",
"639 385 OFFCURVE",
"630 378 OFFCURVE",
"630 369 CURVE SMOOTH",
"630 364 OFFCURVE",
"633 359 OFFCURVE",
"640 354 CURVE SMOOTH",
"642 352 OFFCURVE",
"645 346 OFFCURVE",
"645 334 CURVE SMOOTH",
"645 332 OFFCURVE",
"644 328 OFFCURVE",
"644 325 CURVE SMOOTH",
"637 249 OFFCURVE",
"563 191 OFFCURVE",
"510 191 CURVE SMOOTH",
"482 191 OFFCURVE",
"459 209 OFFCURVE",
"459 253 CURVE SMOOTH",
"459 259 OFFCURVE",
"459 266 OFFCURVE",
"460 273 CURVE SMOOTH",
"467 330 OFFCURVE",
"521 410 OFFCURVE",
"646 462 CURVE SMOOTH",
"706 487 OFFCURVE",
"770 496 OFFCURVE",
"834 504 CURVE",
"797 444 OFFCURVE",
"754 340 OFFCURVE",
"727 268 CURVE SMOOTH",
"717 241 LINE SMOOTH",
"653 68 OFFCURVE",
"495 -92 OFFCURVE",
"332 -92 CURVE SMOOTH",
"179 -92 OFFCURVE",
"123 -10 OFFCURVE",
"123 69 CURVE SMOOTH",
"123 150 OFFCURVE",
"187 203 OFFCURVE",
"232 203 CURVE SMOOTH",
"247 203 OFFCURVE",
"262 197 OFFCURVE",
"269 182 CURVE SMOOTH",
"273 175 OFFCURVE",
"280 172 OFFCURVE",
"287 172 CURVE SMOOTH",
"297 172 OFFCURVE",
"306 178 OFFCURVE",
"306 188 CURVE SMOOTH",
"306 191 OFFCURVE",
"304 195 OFFCURVE",
"302 199 CURVE SMOOTH",
"287 229 OFFCURVE",
"261 239 OFFCURVE",
"233 239 CURVE SMOOTH",
"213 239 OFFCURVE",
"188 231 OFFCURVE",
"169 220 CURVE SMOOTH",
"115 188 OFFCURVE",
"85 130 OFFCURVE",
"85 71 CURVE SMOOTH",
"85 -25 OFFCURVE",
"163 -128 OFFCURVE",
"332 -128 CURVE SMOOTH"
);
},
{
closed = 1;
nodes = (
"1108 -113 OFFCURVE",
"1162 -65 OFFCURVE",
"1187 -14 CURVE SMOOTH",
"1189 -11 OFFCURVE",
"1189 -8 OFFCURVE",
"1189 -5 CURVE SMOOTH",
"1189 4 OFFCURVE",
"1181 11 OFFCURVE",
"1172 11 CURVE SMOOTH",
"1166 11 OFFCURVE",
"1160 8 OFFCURVE",
"1157 1 CURVE SMOOTH",
"1137 -38 OFFCURVE",
"1090 -79 OFFCURVE",
"1006 -79 CURVE SMOOTH",
"886 -79 OFFCURVE",
"824 164 OFFCURVE",
"818 254 CURVE",
"1019 317 OFFCURVE",
"1252 579 OFFCURVE",
"1318 679 CURVE SMOOTH",
"1320 682 OFFCURVE",
"1321 686 OFFCURVE",
"1321 689 CURVE SMOOTH",
"1321 700 OFFCURVE",
"1312 709 OFFCURVE",
"1302 709 CURVE SMOOTH",
"1298 709 OFFCURVE",
"1293 707 OFFCURVE",
"1290 702 CURVE SMOOTH",
"1221 598 OFFCURVE",
"982 337 OFFCURVE",
"794 287 CURVE",
"789 285 OFFCURVE",
"780 275 OFFCURVE",
"780 269 CURVE SMOOTH",
"780 259 OFFCURVE",
"781 248 OFFCURVE",
"782 234 CURVE SMOOTH",
"792 116 OFFCURVE",
"872 -113 OFFCURVE",
"1003 -113 CURVE SMOOTH"
);
}
);
width = 940;
}
);
note = K;
unicode = 004B;
},
{
glyphname = L;
lastChange = "2021-10-12 06:39:44 +0000";
layers = (
{
anchors = (
{
name = bottom;
position = "{609, -56}";
},
{
name = center;
position = "{363, 280}";
},
{
name = top;
position = "{830, 618}";
},
{
name = topright;
position = "{954, 610}";
}
);
background = {
paths = (
{
closed = 1;
nodes = (
"954 -135 OFFCURVE",
"958 -128 OFFCURVE",
"958 -121 CURVE SMOOTH",
"958 -111 OFFCURVE",
"950 -100 OFFCURVE",
"936 -103 CURVE SMOOTH",
"928 -105 OFFCURVE",
"918 -106 OFFCURVE",
"908 -106 CURVE SMOOTH",
"817 -106 OFFCURVE",
"663 -39 OFFCURVE",
"594 -11 CURVE SMOOTH",
"469 40 OFFCURVE",
"360 110 OFFCURVE",
"217 110 CURVE SMOOTH",
"107 110 OFFCURVE",
"51 55 OFFCURVE",
"51 3 CURVE SMOOTH",
"51 -46 OFFCURVE",
"98 -92 OFFCURVE",
"196 -92 CURVE SMOOTH",
"364 -92 OFFCURVE",
"468 42 OFFCURVE",
"535 165 CURVE SMOOTH",
"593 275 OFFCURVE",
"647 440 OFFCURVE",
"729 527 CURVE SMOOTH",
"766 566 OFFCURVE",
"801 583 OFFCURVE",
"829 583 CURVE SMOOTH",
"865 583 OFFCURVE",
"889 556 OFFCURVE",
"889 517 CURVE SMOOTH",
"889 485 OFFCURVE",
"873 444 OFFCURVE",
"833 403 CURVE SMOOTH",
"727 296 OFFCURVE",
"597 245 OFFCURVE",
"453 245 CURVE SMOOTH",
"408 245 OFFCURVE",
"362 250 OFFCURVE",
"315 260 CURVE SMOOTH",
"258 271 OFFCURVE",
"221 309 OFFCURVE",
"221 350 CURVE SMOOTH",
"221 393 OFFCURVE",
"262 438 OFFCURVE",
"365 457 CURVE SMOOTH",
"375 459 OFFCURVE",
"380 466 OFFCURVE",
"380 473 CURVE SMOOTH",
"380 483 OFFCURVE",
"371 493 OFFCURVE",
"357 491 CURVE SMOOTH",
"239 470 OFFCURVE",
"183 405 OFFCURVE",
"183 344 CURVE SMOOTH",
"183 292 OFFCURVE",
"225 242 OFFCURVE",
"307 225 CURVE SMOOTH",
"356 215 OFFCURVE",
"404 210 OFFCURVE",
"451 210 CURVE SMOOTH",
"605 210 OFFCURVE",
"746 264 OFFCURVE",
"860 380 CURVE SMOOTH",
"907 428 OFFCURVE",
"927 476 OFFCURVE",
"927 517 CURVE SMOOTH",
"927 576 OFFCURVE",
"886 618 OFFCURVE",
"830 618 CURVE SMOOTH",
"792 618 OFFCURVE",
"747 598 OFFCURVE",
"702 551 CURVE SMOOTH",
"549 390 OFFCURVE",
"495 -57 OFFCURVE",
"196 -57 CURVE SMOOTH",
"123 -57 OFFCURVE",
"88 -28 OFFCURVE",
"88 3 CURVE SMOOTH",
"88 39 OFFCURVE",
"133 76 OFFCURVE",
"217 76 CURVE SMOOTH",
"279 76 OFFCURVE",
"341 59 OFFCURVE",
"400 36 CURVE SMOOTH",
"517 -9 OFFCURVE",
"765 -140 OFFCURVE",
"908 -140 CURVE SMOOTH",
"921 -140 OFFCURVE",
"933 -139 OFFCURVE",
"944 -137 CURVE SMOOTH"
);
}
);
};
layerId = "466AD7DC-B026-4005-940F-6404FDF7EB07";
paths = (
{
closed = 1;
nodes = (
"921 -140 OFFCURVE",
"933 -139 OFFCURVE",
"944 -137 CURVE SMOOTH",
"954 -135 OFFCURVE",
"958 -128 OFFCURVE",
"958 -121 CURVE SMOOTH",
"958 -112 OFFCURVE",
"952 -102 OFFCURVE",
"941 -102 CURVE SMOOTH",
"939 -102 OFFCURVE",
"938 -103 OFFCURVE",
"936 -103 CURVE",
"928 -105 OFFCURVE",
"918 -106 OFFCURVE",
"908 -106 CURVE SMOOTH",
"817 -106 OFFCURVE",
"663 -39 OFFCURVE",
"594 -11 CURVE SMOOTH",
"469 40 OFFCURVE",
"360 110 OFFCURVE",
"217 110 CURVE SMOOTH",
"107 110 OFFCURVE",
"51 55 OFFCURVE",
"51 3 CURVE SMOOTH",
"51 -46 OFFCURVE",
"98 -92 OFFCURVE",
"196 -92 CURVE SMOOTH",
"364 -92 OFFCURVE",
"468 42 OFFCURVE",
"535 165 CURVE SMOOTH",
"593 275 OFFCURVE",
"647 440 OFFCURVE",
"729 527 CURVE SMOOTH",
"766 566 OFFCURVE",
"801 583 OFFCURVE",
"829 583 CURVE SMOOTH",
"865 583 OFFCURVE",
"889 556 OFFCURVE",
"889 517 CURVE SMOOTH",
"889 485 OFFCURVE",
"873 444 OFFCURVE",
"833 403 CURVE SMOOTH",
"727 296 OFFCURVE",
"597 245 OFFCURVE",
"453 245 CURVE SMOOTH",
"408 245 OFFCURVE",
"362 250 OFFCURVE",
"315 260 CURVE SMOOTH",
"258 271 OFFCURVE",
"221 309 OFFCURVE",
"221 350 CURVE SMOOTH",
"221 393 OFFCURVE",
"262 438 OFFCURVE",
"365 457 CURVE SMOOTH",
"375 459 OFFCURVE",
"380 466 OFFCURVE",
"380 473 CURVE SMOOTH",
"380 482 OFFCURVE",
"372 491 OFFCURVE",
"361 491 CURVE SMOOTH",
"357 491 LINE",
"239 470 OFFCURVE",
"183 405 OFFCURVE",
"183 344 CURVE SMOOTH",
"183 292 OFFCURVE",
"225 242 OFFCURVE",
"307 225 CURVE SMOOTH",
"356 215 OFFCURVE",
"404 210 OFFCURVE",
"451 210 CURVE SMOOTH",
"605 210 OFFCURVE",
"746 264 OFFCURVE",
"860 380 CURVE SMOOTH",
"907 428 OFFCURVE",
"927 476 OFFCURVE",
"927 517 CURVE SMOOTH",
"927 576 OFFCURVE",
"886 618 OFFCURVE",
"830 618 CURVE SMOOTH",
"792 618 OFFCURVE",
"747 598 OFFCURVE",
"702 551 CURVE SMOOTH",
"549 390 OFFCURVE",
"495 -57 OFFCURVE",
"196 -57 CURVE SMOOTH",
"123 -57 OFFCURVE",
"88 -28 OFFCURVE",
"88 3 CURVE SMOOTH",
"88 39 OFFCURVE",
"133 76 OFFCURVE",
"217 76 CURVE SMOOTH",
"279 76 OFFCURVE",
"341 59 OFFCURVE",
"400 36 CURVE SMOOTH",
"517 -9 OFFCURVE",
"765 -140 OFFCURVE",
"908 -140 CURVE SMOOTH"
);
}
);
width = 726;
}
);
note = L;
unicode = 004C;
},
{
glyphname = Lslash;
lastChange = "2021-10-12 06:39:44 +0000";
layers = (
{
anchors = (
{
name = bottom;
position = "{609, -56}";
},
{
name = center;
position = "{363, 280}";
},
{
name = top;
position = "{830, 618}";
},
{
name = topright;
position = "{954, 610}";
}
);
background = {
components = (
{
name = L;
},
{
name = hyphen;
transform = "{0.88771, 0.15119, -0.14593, 0.98824, 310, -119}";
}
);
};
layerId = "466AD7DC-B026-4005-940F-6404FDF7EB07";
paths = (
{
closed = 1;
nodes = (
"921 -140 OFFCURVE",
"933 -139 OFFCURVE",
"944 -137 CURVE SMOOTH",
"954 -135 OFFCURVE",
"958 -128 OFFCURVE",
"958 -121 CURVE SMOOTH",
"958 -112 OFFCURVE",
"952 -102 OFFCURVE",
"941 -102 CURVE SMOOTH",
"939 -102 OFFCURVE",
"938 -103 OFFCURVE",
"936 -103 CURVE",
"928 -105 OFFCURVE",
"918 -106 OFFCURVE",
"908 -106 CURVE SMOOTH",
"817 -106 OFFCURVE",
"663 -39 OFFCURVE",
"594 -11 CURVE SMOOTH",
"469 40 OFFCURVE",
"360 110 OFFCURVE",
"217 110 CURVE SMOOTH",
"107 110 OFFCURVE",
"51 55 OFFCURVE",
"51 3 CURVE SMOOTH",
"51 -46 OFFCURVE",
"98 -92 OFFCURVE",
"196 -92 CURVE SMOOTH",
"364 -92 OFFCURVE",
"468 42 OFFCURVE",
"535 165 CURVE SMOOTH",
"593 275 OFFCURVE",
"647 440 OFFCURVE",
"729 527 CURVE SMOOTH",
"766 566 OFFCURVE",
"801 583 OFFCURVE",
"829 583 CURVE SMOOTH",
"865 583 OFFCURVE",
"889 556 OFFCURVE",
"889 517 CURVE SMOOTH",
"889 485 OFFCURVE",
"873 444 OFFCURVE",
"833 403 CURVE SMOOTH",
"727 296 OFFCURVE",
"597 245 OFFCURVE",
"453 245 CURVE SMOOTH",
"408 245 OFFCURVE",
"362 250 OFFCURVE",
"315 260 CURVE SMOOTH",
"258 271 OFFCURVE",
"221 309 OFFCURVE",
"221 350 CURVE SMOOTH",
"221 393 OFFCURVE",
"262 438 OFFCURVE",
"365 457 CURVE SMOOTH",
"375 459 OFFCURVE",
"380 466 OFFCURVE",
"380 473 CURVE SMOOTH",
"380 482 OFFCURVE",
"372 491 OFFCURVE",
"361 491 CURVE SMOOTH",
"357 491 LINE",
"239 470 OFFCURVE",
"183 405 OFFCURVE",
"183 344 CURVE SMOOTH",
"183 292 OFFCURVE",
"225 242 OFFCURVE",
"307 225 CURVE SMOOTH",
"356 215 OFFCURVE",
"404 210 OFFCURVE",
"451 210 CURVE SMOOTH",
"605 210 OFFCURVE",
"746 264 OFFCURVE",
"860 380 CURVE SMOOTH",
"907 428 OFFCURVE",
"927 476 OFFCURVE",
"927 517 CURVE SMOOTH",
"927 576 OFFCURVE",
"886 618 OFFCURVE",
"830 618 CURVE SMOOTH",
"792 618 OFFCURVE",
"747 598 OFFCURVE",
"702 551 CURVE SMOOTH",
"549 390 OFFCURVE",
"495 -57 OFFCURVE",
"196 -57 CURVE SMOOTH",
"123 -57 OFFCURVE",
"88 -28 OFFCURVE",
"88 3 CURVE SMOOTH",
"88 39 OFFCURVE",
"133 76 OFFCURVE",
"217 76 CURVE SMOOTH",
"279 76 OFFCURVE",
"341 59 OFFCURVE",
"400 36 CURVE SMOOTH",
"517 -9 OFFCURVE",
"765 -140 OFFCURVE",
"908 -140 CURVE SMOOTH"
);
},
{
closed = 1;
nodes = (
"605 141 LINE SMOOTH",
"616 143 OFFCURVE",
"620 152 OFFCURVE",
"620 160 CURVE SMOOTH",
"620 163 LINE",
"618 172 OFFCURVE",
"612 179 OFFCURVE",
"603 179 CURVE SMOOTH",
"600 179 LINE",
"398 144 LINE SMOOTH",
"388 142 OFFCURVE",
"383 134 OFFCURVE",
"383 124 CURVE SMOOTH",
"383 122 LINE",
"385 115 OFFCURVE",
"391 107 OFFCURVE",
"400 107 CURVE SMOOTH",
"403 107 LINE"
);
}
);
width = 726;
}
);
unicode = 0141;
},
{
glyphname = M;
lastChange = "2021-10-12 06:39:44 +0000";
layers = (
{
background = {
paths = (
{
closed = 1;
nodes = (
"944 -173 OFFCURVE",
"930 -150 OFFCURVE",
"930 -113 CURVE SMOOTH",
"930 30 OFFCURVE",
"1147 385 OFFCURVE",
"1178 444 CURVE SMOOTH",
"1194 473 OFFCURVE",
"1202 499 OFFCURVE",
"1202 519 CURVE SMOOTH",
"1202 545 OFFCURVE",
"1188 561 OFFCURVE",
"1157 561 CURVE SMOOTH",
"1031 561 OFFCURVE",
"855 350 OFFCURVE",
"779 254 CURVE",
"797 296 OFFCURVE",
"849 411 OFFCURVE",
"849 488 CURVE SMOOTH",
"849 525 OFFCURVE",
"836 553 OFFCURVE",
"802 558 CURVE SMOOTH",
"707 570 OFFCURVE",
"603 402 OFFCURVE",
"555 332 CURVE",
"594 416 OFFCURVE",
"611 483 OFFCURVE",
"611 535 CURVE SMOOTH",
"611 614 OFFCURVE",
"570 655 OFFCURVE",
"505 658 CURVE SMOOTH",
"368 664 OFFCURVE",
"233 576 OFFCURVE",
"150 469 CURVE SMOOTH",
"89 390 OFFCURVE",
"53 302 OFFCURVE",
"53 231 CURVE SMOOTH",
"53 155 OFFCURVE",
"95 99 OFFCURVE",
"193 99 CURVE SMOOTH",
"320 99 OFFCURVE",
"400 225 OFFCURVE",
"400 313 CURVE SMOOTH",
"400 359 OFFCURVE",
"379 395 OFFCURVE",
"331 397 CURVE SMOOTH",
"319 398 OFFCURVE",
"312 388 OFFCURVE",
"312 379 CURVE SMOOTH",
"312 372 OFFCURVE",
"316 365 OFFCURVE",
"326 365 CURVE SMOOTH",
"353 363 OFFCURVE",
"365 341 OFFCURVE",
"365 312 CURVE SMOOTH",
"365 243 OFFCURVE",
"299 132 OFFCURVE",
"196 132 CURVE SMOOTH",
"123 132 OFFCURVE",
"91 173 OFFCURVE",
"91 231 CURVE SMOOTH",
"91 378 OFFCURVE",
"285 633 OFFCURVE",
"501 624 CURVE SMOOTH",
"539 622 OFFCURVE",
"576 598 OFFCURVE",
"576 530 CURVE SMOOTH",
"576 478 OFFCURVE",
"555 402 OFFCURVE",
"498 292 CURVE SMOOTH",
"448 196 OFFCURVE",
"349 20 OFFCURVE",
"349 20 CURVE",
"347 17 OFFCURVE",
"346 14 OFFCURVE",
"346 11 CURVE SMOOTH",
"346 3 OFFCURVE",
"354 -4 OFFCURVE",
"363 -4 CURVE SMOOTH",
"369 -4 OFFCURVE",
"375 -2 OFFCURVE",
"379 5 CURVE",
"379 5 OFFCURVE",
"463 150 OFFCURVE",
"489 190 CURVE SMOOTH",
"589 338 OFFCURVE",
"695 495 OFFCURVE",
"774 520 CURVE SMOOTH",
"779 522 OFFCURVE",
"784 523 OFFCURVE",
"788 523 CURVE SMOOTH",
"804 523 OFFCURVE",
"815 511 OFFCURVE",
"815 483 CURVE SMOOTH",
"815 462 OFFCURVE",
"810 432 OFFCURVE",
"796 392 CURVE SMOOTH",
"751 259 OFFCURVE",
"701 156 OFFCURVE",
"628 37 CURVE SMOOTH",
"626 34 OFFCURVE",
"625 30 OFFCURVE",
"625 28 CURVE SMOOTH",
"625 18 OFFCURVE",
"634 11 OFFCURVE",
"643 11 CURVE SMOOTH",
"648 11 OFFCURVE",
"654 14 OFFCURVE",
"658 20 CURVE SMOOTH",
"758 175 OFFCURVE",
"870 336 OFFCURVE",
"1014 456 CURVE SMOOTH",
"1038 476 OFFCURVE",
"1072 498 OFFCURVE",
"1103 511 CURVE SMOOTH",
"1123 519 OFFCURVE",
"1137 523 OFFCURVE",
"1146 523 CURVE SMOOTH",
"1157 523 OFFCURVE",
"1162 518 OFFCURVE",
"1162 508 CURVE SMOOTH",
"1162 493 OFFCURVE",
"1150 467 OFFCURVE",
"1132 433 CURVE SMOOTH",
"1101 373 OFFCURVE",
"1050 290 OFFCURVE",
"1006 205 CURVE SMOOTH",
"943 87 OFFCURVE",
"891 -37 OFFCURVE",
"891 -122 CURVE SMOOTH",
"891 -182 OFFCURVE",
"927 -207 OFFCURVE",
"968 -207 CURVE SMOOTH",
"1010 -207 OFFCURVE",
"1057 -183 OFFCURVE",
"1086 -148 CURVE SMOOTH",
"1090 -143 OFFCURVE",
"1092 -138 OFFCURVE",
"1092 -134 CURVE SMOOTH",
"1092 -126 OFFCURVE",
"1087 -121 OFFCURVE",
"1081 -121 CURVE SMOOTH",
"1077 -121 OFFCURVE",
"1072 -123 OFFCURVE",
"1068 -129 CURVE",
"1049 -150 OFFCURVE",
"1011 -174 OFFCURVE",
"980 -173 CURVE SMOOTH"
);
}
);
};
layerId = "466AD7DC-B026-4005-940F-6404FDF7EB07";
paths = (
{
closed = 1;
nodes = (
"1010 -207 OFFCURVE",
"1057 -183 OFFCURVE",
"1086 -148 CURVE SMOOTH",
"1090 -143 OFFCURVE",
"1092 -138 OFFCURVE",
"1092 -134 CURVE SMOOTH",
"1092 -126 OFFCURVE",
"1087 -121 OFFCURVE",
"1081 -121 CURVE SMOOTH",
"1077 -121 OFFCURVE",
"1072 -123 OFFCURVE",
"1068 -129 CURVE",
"1049 -150 OFFCURVE",
"1013 -173 OFFCURVE",
"982 -173 CURVE SMOOTH",
"944 -173 OFFCURVE",
"930 -151 OFFCURVE",
"930 -113 CURVE SMOOTH",
"930 30 OFFCURVE",
"1147 385 OFFCURVE",
"1178 444 CURVE SMOOTH",
"1194 473 OFFCURVE",
"1202 499 OFFCURVE",
"1202 519 CURVE SMOOTH",
"1202 545 OFFCURVE",
"1188 561 OFFCURVE",
"1157 561 CURVE SMOOTH",
"1031 561 OFFCURVE",
"855 350 OFFCURVE",
"779 254 CURVE",
"797 296 OFFCURVE",
"849 411 OFFCURVE",
"849 488 CURVE SMOOTH",
"849 528 OFFCURVE",
"833 559 OFFCURVE",
"792 559 CURVE SMOOTH",
"700 559 OFFCURVE",
"601 400 OFFCURVE",
"555 332 CURVE",
"594 416 OFFCURVE",
"611 483 OFFCURVE",
"611 535 CURVE SMOOTH",
"611 614 OFFCURVE",
"570 655 OFFCURVE",
"505 658 CURVE SMOOTH",
"368 664 OFFCURVE",
"233 576 OFFCURVE",
"150 469 CURVE SMOOTH",
"89 390 OFFCURVE",
"53 302 OFFCURVE",
"53 231 CURVE SMOOTH",
"53 155 OFFCURVE",
"95 99 OFFCURVE",
"193 99 CURVE SMOOTH",
"320 99 OFFCURVE",
"400 225 OFFCURVE",
"400 313 CURVE SMOOTH",
"400 360 OFFCURVE",
"378 397 OFFCURVE",
"329 397 CURVE SMOOTH",
"318 397 OFFCURVE",
"312 388 OFFCURVE",
"312 379 CURVE SMOOTH",
"312 372 OFFCURVE",
"316 365 OFFCURVE",
"326 365 CURVE SMOOTH",
"353 363 OFFCURVE",
"365 341 OFFCURVE",
"365 312 CURVE SMOOTH",
"365 243 OFFCURVE",
"299 132 OFFCURVE",
"196 132 CURVE SMOOTH",
"123 132 OFFCURVE",
"91 173 OFFCURVE",
"91 231 CURVE SMOOTH",
"91 378 OFFCURVE",
"285 633 OFFCURVE",
"501 624 CURVE SMOOTH",
"539 622 OFFCURVE",
"576 598 OFFCURVE",
"576 530 CURVE SMOOTH",
"576 478 OFFCURVE",
"555 402 OFFCURVE",
"498 292 CURVE SMOOTH",
"448 196 OFFCURVE",
"349 20 OFFCURVE",
"349 20 CURVE",
"347 17 OFFCURVE",
"346 14 OFFCURVE",
"346 11 CURVE SMOOTH",
"346 3 OFFCURVE",
"354 -4 OFFCURVE",
"363 -4 CURVE SMOOTH",
"369 -4 OFFCURVE",
"375 -2 OFFCURVE",
"379 5 CURVE",
"379 5 OFFCURVE",
"463 150 OFFCURVE",
"489 190 CURVE SMOOTH",
"589 338 OFFCURVE",
"695 495 OFFCURVE",
"774 520 CURVE SMOOTH",
"779 522 OFFCURVE",
"784 523 OFFCURVE",
"788 523 CURVE SMOOTH",
"804 523 OFFCURVE",
"815 511 OFFCURVE",
"815 483 CURVE SMOOTH",
"815 462 OFFCURVE",
"810 432 OFFCURVE",
"796 392 CURVE SMOOTH",
"751 259 OFFCURVE",
"701 156 OFFCURVE",
"628 37 CURVE SMOOTH",
"626 34 OFFCURVE",
"625 30 OFFCURVE",
"625 28 CURVE SMOOTH",
"625 18 OFFCURVE",
"634 11 OFFCURVE",
"643 11 CURVE SMOOTH",
"648 11 OFFCURVE",
"654 14 OFFCURVE",
"658 20 CURVE SMOOTH",
"758 175 OFFCURVE",
"870 336 OFFCURVE",
"1014 456 CURVE SMOOTH",
"1038 476 OFFCURVE",
"1072 498 OFFCURVE",
"1103 511 CURVE SMOOTH",
"1123 519 OFFCURVE",
"1137 523 OFFCURVE",
"1146 523 CURVE SMOOTH",
"1157 523 OFFCURVE",
"1162 518 OFFCURVE",
"1162 508 CURVE SMOOTH",
"1162 493 OFFCURVE",
"1150 467 OFFCURVE",
"1132 433 CURVE SMOOTH",
"1101 373 OFFCURVE",
"1050 290 OFFCURVE",
"1006 205 CURVE SMOOTH",
"943 87 OFFCURVE",
"891 -37 OFFCURVE",
"891 -122 CURVE SMOOTH",
"891 -182 OFFCURVE",
"927 -207 OFFCURVE",
"968 -207 CURVE SMOOTH"
);
}
);
width = 1076;
}
);
note = M;
unicode = 004D;
},
{
glyphname = N;
lastChange = "2021-10-12 06:39:44 +0000";
layers = (
{
anchors = (
{
name = bottom;
position = "{611, 0}";
},
{
name = top;
position = "{1038, 597}";
}
);
background = {
paths = (
{
closed = 1;
nodes = (
"815 -136 OFFCURVE",
"800 -112 OFFCURVE",
"800 -74 CURVE SMOOTH",
"800 70 OFFCURVE",
"1020 420 OFFCURVE",
"1051 475 CURVE SMOOTH",
"1068 503 OFFCURVE",
"1076 528 OFFCURVE",
"1076 547 CURVE SMOOTH",
"1076 578 OFFCURVE",
"1056 596 OFFCURVE",
"1017 596 CURVE SMOOTH",
"890 596 OFFCURVE",
"735 434 OFFCURVE",
"661 348 CURVE SMOOTH",
"639 321 OFFCURVE",
"597 263 OFFCURVE",
"550 201 CURVE",
"580 258 OFFCURVE",
"649 399 OFFCURVE",
"649 502 CURVE SMOOTH",
"649 569 OFFCURVE",
"620 620 OFFCURVE",
"532 622 CURVE SMOOTH",
"360 626 OFFCURVE",
"213 508 OFFCURVE",
"140 384 CURVE SMOOTH",
"107 328 OFFCURVE",
"89 271 OFFCURVE",
"89 222 CURVE SMOOTH",
"89 149 OFFCURVE",
"130 95 OFFCURVE",
"223 95 CURVE SMOOTH",
"368 95 OFFCURVE",
"463 222 OFFCURVE",
"463 303 CURVE SMOOTH",
"463 342 OFFCURVE",
"441 371 OFFCURVE",
"392 371 CURVE SMOOTH",
"376 371 OFFCURVE",
"368 364 OFFCURVE",
"368 356 CURVE SMOOTH",
"368 349 OFFCURVE",
"374 342 OFFCURVE",
"386 342 CURVE SMOOTH",
"387 342 LINE SMOOTH",
"415 343 OFFCURVE",
"428 327 OFFCURVE",
"428 303 CURVE SMOOTH",
"428 242 OFFCURVE",
"345 130 OFFCURVE",
"227 130 CURVE SMOOTH",
"159 130 OFFCURVE",
"128 169 OFFCURVE",
"128 225 CURVE SMOOTH",
"128 359 OFFCURVE",
"300 587 OFFCURVE",
"522 587 CURVE SMOOTH",
"568 587 OFFCURVE",
"611 562 OFFCURVE",
"611 484 CURVE SMOOTH",
"611 433 OFFCURVE",
"591 358 OFFCURVE",
"539 255 CURVE SMOOTH",
"490 159 OFFCURVE",
"390 -17 OFFCURVE",
"390 -17 CURVE",
"388 -21 OFFCURVE",
"387 -25 OFFCURVE",
"387 -28 CURVE SMOOTH",
"387 -38 OFFCURVE",
"394 -44 OFFCURVE",
"403 -44 CURVE SMOOTH",
"409 -44 OFFCURVE",
"415 -41 OFFCURVE",
"420 -35 CURVE",
"420 -35 OFFCURVE",
"631 256 OFFCURVE",
"690 326 CURVE SMOOTH",
"742 389 OFFCURVE",
"804 449 OFFCURVE",
"868 498 CURVE SMOOTH",
"890 514 OFFCURVE",
"974 561 OFFCURVE",
"1015 561 CURVE SMOOTH",
"1029 561 OFFCURVE",
"1038 556 OFFCURVE",
"1038 542 CURVE SMOOTH",
"1038 531 OFFCURVE",
"1033 515 OFFCURVE",
"1019 491 CURVE SMOOTH",
"937 347 OFFCURVE",
"764 78 OFFCURVE",
"762 -77 CURVE SMOOTH",
"762 -144 OFFCURVE",
"805 -171 OFFCURVE",
"855 -171 CURVE SMOOTH",
"897 -171 OFFCURVE",
"945 -151 OFFCURVE",
"974 -117 CURVE SMOOTH",
"978 -113 OFFCURVE",
"979 -108 OFFCURVE",
"979 -104 CURVE SMOOTH",
"979 -95 OFFCURVE",
"971 -88 OFFCURVE",
"962 -88 CURVE SMOOTH",
"957 -88 OFFCURVE",
"951 -90 OFFCURVE",
"947 -96 CURVE",
"928 -116 OFFCURVE",
"887 -136 OFFCURVE",
"854 -136 CURVE SMOOTH"
);
}
);
};
layerId = "466AD7DC-B026-4005-940F-6404FDF7EB07";
paths = (
{
closed = 1;
nodes = (
"897 -171 OFFCURVE",
"945 -151 OFFCURVE",
"974 -117 CURVE SMOOTH",
"978 -113 OFFCURVE",
"979 -108 OFFCURVE",
"979 -104 CURVE SMOOTH",
"979 -95 OFFCURVE",
"971 -88 OFFCURVE",
"962 -88 CURVE SMOOTH",
"957 -88 OFFCURVE",
"951 -90 OFFCURVE",
"947 -96 CURVE",
"928 -116 OFFCURVE",
"887 -136 OFFCURVE",
"854 -136 CURVE SMOOTH",
"815 -136 OFFCURVE",
"800 -112 OFFCURVE",
"800 -74 CURVE SMOOTH",
"800 70 OFFCURVE",
"1020 420 OFFCURVE",
"1051 475 CURVE SMOOTH",
"1068 503 OFFCURVE",
"1076 528 OFFCURVE",
"1076 547 CURVE SMOOTH",
"1076 578 OFFCURVE",
"1056 596 OFFCURVE",
"1017 596 CURVE SMOOTH",
"890 596 OFFCURVE",
"735 434 OFFCURVE",
"661 348 CURVE SMOOTH",
"639 321 OFFCURVE",
"597 263 OFFCURVE",
"550 201 CURVE",
"580 258 OFFCURVE",
"649 399 OFFCURVE",
"649 502 CURVE SMOOTH",
"649 571 OFFCURVE",
"618 622 OFFCURVE",
"523 622 CURVE SMOOTH",
"355 622 OFFCURVE",
"212 506 OFFCURVE",
"140 384 CURVE SMOOTH",
"107 328 OFFCURVE",
"89 271 OFFCURVE",
"89 222 CURVE SMOOTH",
"89 149 OFFCURVE",
"130 95 OFFCURVE",
"223 95 CURVE SMOOTH",
"368 95 OFFCURVE",
"463 222 OFFCURVE",
"463 303 CURVE SMOOTH",
"463 342 OFFCURVE",
"441 371 OFFCURVE",
"392 371 CURVE SMOOTH",
"376 371 OFFCURVE",
"368 364 OFFCURVE",
"368 356 CURVE SMOOTH",
"368 349 OFFCURVE",
"374 342 OFFCURVE",
"386 342 CURVE SMOOTH",
"387 342 LINE SMOOTH",
"415 342 OFFCURVE",
"428 327 OFFCURVE",
"428 303 CURVE SMOOTH",
"428 242 OFFCURVE",
"345 130 OFFCURVE",
"227 130 CURVE SMOOTH",
"159 130 OFFCURVE",
"128 169 OFFCURVE",
"128 225 CURVE SMOOTH",
"128 359 OFFCURVE",
"300 587 OFFCURVE",
"522 587 CURVE SMOOTH",
"568 587 OFFCURVE",
"611 562 OFFCURVE",
"611 484 CURVE SMOOTH",
"611 433 OFFCURVE",
"591 358 OFFCURVE",
"539 255 CURVE SMOOTH",
"490 159 OFFCURVE",
"390 -17 OFFCURVE",
"390 -17 CURVE",
"388 -21 OFFCURVE",
"387 -25 OFFCURVE",
"387 -28 CURVE SMOOTH",
"387 -38 OFFCURVE",
"394 -44 OFFCURVE",
"403 -44 CURVE SMOOTH",
"409 -44 OFFCURVE",
"415 -41 OFFCURVE",
"420 -35 CURVE",
"420 -35 OFFCURVE",
"631 256 OFFCURVE",
"690 326 CURVE SMOOTH",
"742 389 OFFCURVE",
"804 449 OFFCURVE",
"868 498 CURVE SMOOTH",
"890 514 OFFCURVE",
"974 561 OFFCURVE",
"1015 561 CURVE SMOOTH",
"1029 561 OFFCURVE",
"1038 556 OFFCURVE",
"1038 542 CURVE SMOOTH",
"1038 531 OFFCURVE",
"1033 515 OFFCURVE",
"1019 491 CURVE SMOOTH",
"937 347 OFFCURVE",
"764 78 OFFCURVE",
"762 -77 CURVE SMOOTH",
"762 -144 OFFCURVE",
"805 -171 OFFCURVE",
"855 -171 CURVE SMOOTH"
);
}
);
width = 934;
}
);
note = N;
unicode = 004E;
},
{
glyphname = Eng;
lastChange = "2021-10-12 06:39:44 +0000";
layers = (
{
background = {
paths = (
{
closed = 1;
nodes = (
"620 552 OFFCURVE",
"484 334 OFFCURVE",
"378 134 CURVE",
"389 216 OFFCURVE",
"392 295 OFFCURVE",
"392 360 CURVE SMOOTH",
"392 436 OFFCURVE",
"388 493 OFFCURVE",
"385 511 CURVE SMOOTH",
"383 527 OFFCURVE",
"372 535 OFFCURVE",
"359 535 CURVE SMOOTH",
"350 535 OFFCURVE",
"340 531 OFFCURVE",
"333 520 CURVE SMOOTH",
"214 344 OFFCURVE",
"35 51 OFFCURVE",
"-15 -28 CURVE SMOOTH",
"-17 -31 OFFCURVE",
"-18 -34 OFFCURVE",
"-18 -37 CURVE SMOOTH",
"-18 -47 OFFCURVE",
"-7 -57 OFFCURVE",
"3 -57 CURVE SMOOTH",
"8 -57 OFFCURVE",
"12 -55 OFFCURVE",
"15 -51 CURVE SMOOTH",
"72 39 OFFCURVE",
"173 209 OFFCURVE",
"348 467 CURVE",
"348 467 OFFCURVE",
"352 422 OFFCURVE",
"352 354 CURVE SMOOTH",
"352 253 OFFCURVE",
"343 103 OFFCURVE",
"300 -16 CURVE",
"259 -105 OFFCURVE",
"225 -170 OFFCURVE",
"201 -199 CURVE SMOOTH",
"165 -244 OFFCURVE",
"124 -272 OFFCURVE",
"82 -272 CURVE SMOOTH",
"65 -272 OFFCURVE",
"58 -263 OFFCURVE",
"58 -249 CURVE SMOOTH",
"58 -245 OFFCURVE",
"59 -241 OFFCURVE",
"60 -236 CURVE SMOOTH",
"68 -205 OFFCURVE",
"97 -171 OFFCURVE",
"144 -136 CURVE SMOOTH",
"153 -130 OFFCURVE",
"156 -124 OFFCURVE",
"156 -119 CURVE SMOOTH",
"156 -112 OFFCURVE",
"150 -108 OFFCURVE",
"143 -108 CURVE SMOOTH",
"140 -108 OFFCURVE",
"138 -109 OFFCURVE",
"135 -110 CURVE SMOOTH",
"63 -144 OFFCURVE",
"18 -202 OFFCURVE",
"18 -250 CURVE SMOOTH",
"18 -281 OFFCURVE",
"36 -300 OFFCURVE",
"64 -304 CURVE SMOOTH",
"71 -305 OFFCURVE",
"78 -306 OFFCURVE",
"84 -306 CURVE SMOOTH",
"144 -306 OFFCURVE",
"200 -264 OFFCURVE",
"243 -208 CURVE SMOOTH",
"289 -147 OFFCURVE",
"327 -64 OFFCURVE",
"378 39 CURVE SMOOTH",
"464 210 OFFCURVE",
"571 406 OFFCURVE",
"697 587 CURVE SMOOTH",
"700 591 OFFCURVE",
"701 596 OFFCURVE",
"701 599 CURVE SMOOTH",
"701 609 OFFCURVE",
"693 615 OFFCURVE",
"684 615 CURVE SMOOTH",
"675 615 OFFCURVE",
"665 610 OFFCURVE",
"655 598 CURVE SMOOTH"
);
}
);
};
layerId = "466AD7DC-B026-4005-940F-6404FDF7EB07";
paths = (
{
closed = 1;
nodes = (
"144 -306 OFFCURVE",
"200 -264 OFFCURVE",
"243 -208 CURVE SMOOTH",
"289 -147 OFFCURVE",
"327 -64 OFFCURVE",
"378 39 CURVE SMOOTH",
"464 210 OFFCURVE",
"571 406 OFFCURVE",
"697 587 CURVE SMOOTH",
"700 591 OFFCURVE",
"701 596 OFFCURVE",
"701 599 CURVE SMOOTH",
"701 609 OFFCURVE",
"693 615 OFFCURVE",
"684 615 CURVE SMOOTH",
"675 615 OFFCURVE",
"665 610 OFFCURVE",
"655 598 CURVE SMOOTH",
"620 552 OFFCURVE",
"484 334 OFFCURVE",
"378 134 CURVE",
"389 216 OFFCURVE",
"392 295 OFFCURVE",
"392 360 CURVE SMOOTH",
"392 436 OFFCURVE",
"388 493 OFFCURVE",
"385 511 CURVE SMOOTH",
"383 527 OFFCURVE",
"372 535 OFFCURVE",
"359 535 CURVE SMOOTH",
"350 535 OFFCURVE",
"340 531 OFFCURVE",
"333 520 CURVE SMOOTH",
"214 344 OFFCURVE",
"35 51 OFFCURVE",
"-15 -28 CURVE SMOOTH",
"-17 -31 OFFCURVE",
"-18 -34 OFFCURVE",
"-18 -37 CURVE SMOOTH",
"-18 -47 OFFCURVE",
"-7 -57 OFFCURVE",
"3 -57 CURVE SMOOTH",
"8 -57 OFFCURVE",
"12 -55 OFFCURVE",
"15 -51 CURVE SMOOTH",
"72 39 OFFCURVE",
"173 209 OFFCURVE",
"348 467 CURVE",
"348 467 OFFCURVE",
"352 422 OFFCURVE",
"352 354 CURVE SMOOTH",
"352 253 OFFCURVE",
"343 103 OFFCURVE",
"300 -16 CURVE",
"259 -105 OFFCURVE",
"225 -170 OFFCURVE",
"201 -199 CURVE SMOOTH",
"165 -244 OFFCURVE",
"124 -272 OFFCURVE",
"82 -272 CURVE SMOOTH",
"65 -272 OFFCURVE",
"58 -263 OFFCURVE",
"58 -249 CURVE SMOOTH",
"58 -245 OFFCURVE",
"59 -241 OFFCURVE",
"60 -236 CURVE SMOOTH",
"68 -205 OFFCURVE",
"97 -171 OFFCURVE",
"144 -136 CURVE SMOOTH",
"153 -130 OFFCURVE",
"156 -124 OFFCURVE",
"156 -119 CURVE SMOOTH",
"156 -112 OFFCURVE",
"150 -108 OFFCURVE",
"143 -108 CURVE SMOOTH",
"140 -108 OFFCURVE",
"138 -109 OFFCURVE",
"135 -110 CURVE SMOOTH",
"63 -144 OFFCURVE",
"18 -202 OFFCURVE",
"18 -250 CURVE SMOOTH",
"18 -281 OFFCURVE",
"36 -300 OFFCURVE",
"64 -304 CURVE SMOOTH",
"71 -305 OFFCURVE",
"78 -306 OFFCURVE",
"84 -306 CURVE SMOOTH"
);
}
);
width = 600;
}
);
unicode = 014A;
},
{
glyphname = O;
lastChange = "2021-10-12 14:31:03 +0000";
layers = (
{
anchors = (
{
name = bottom;
position = "{179, -55}";
},
{
name = center;
position = "{358, 280}";
},
{
name = ogonek;
position = "{215, -51}";
},
{
name = top;
position = "{563, 599}";
},
{
name = topleft;
position = "{20, 560}";
},
{
name = topright;
position = "{637, 476}";
}
);
background = {
paths = (
{
closed = 1;
nodes = (
"605 92 OFFCURVE",
"671 206 OFFCURVE",
"688 316 CURVE SMOOTH",
"690 332 OFFCURVE",
"691 347 OFFCURVE",
"691 362 CURVE SMOOTH",
"691 500 OFFCURVE",
"594 583 OFFCURVE",
"480 597 CURVE SMOOTH",
"462 599 OFFCURVE",
"445 600 OFFCURVE",
"428 600 CURVE SMOOTH",
"246 600 OFFCURVE",
"121 484 OFFCURVE",
"121 382 CURVE SMOOTH",
"121 298 OFFCURVE",
"206 223 OFFCURVE",
"418 229 CURVE SMOOTH",
"563 232 OFFCURVE",
"778 284 OFFCURVE",
"882 394 CURVE SMOOTH",
"886 398 OFFCURVE",
"888 403 OFFCURVE",
"888 408 CURVE SMOOTH",
"888 417 OFFCURVE",
"879 426 OFFCURVE",
"869 426 CURVE SMOOTH",
"864 426 OFFCURVE",
"859 424 OFFCURVE",
"854 419 CURVE SMOOTH",
"752 311 OFFCURVE",
"522 263 OFFCURVE",
"394 263 CURVE SMOOTH",
"226 263 OFFCURVE",
"158 320 OFFCURVE",
"158 384 CURVE SMOOTH",
"158 468 OFFCURVE",
"272 564 OFFCURVE",
"429 564 CURVE SMOOTH",
"444 564 OFFCURVE",
"460 563 OFFCURVE",
"476 561 CURVE SMOOTH",
"601 546 OFFCURVE",
"653 465 OFFCURVE",
"653 367 CURVE SMOOTH",
"653 262 OFFCURVE",
"593 136 OFFCURVE",
"500 49 CURVE SMOOTH",
"445 -2 OFFCURVE",
"352 -42 OFFCURVE",
"276 -42 CURVE SMOOTH",
"207 -42 OFFCURVE",
"151 -8 OFFCURVE",
"151 82 CURVE SMOOTH",
"151 104 OFFCURVE",
"154 129 OFFCURVE",
"161 158 CURVE SMOOTH",
"190 278 OFFCURVE",
"314 398 OFFCURVE",
"401 436 CURVE SMOOTH",
"434 450 OFFCURVE",
"473 460 OFFCURVE",
"503 460 CURVE SMOOTH",
"524 460 OFFCURVE",
"540 455 OFFCURVE",
"547 444 CURVE SMOOTH",
"553 434 OFFCURVE",
"559 429 OFFCURVE",
"565 429 CURVE SMOOTH",
"572 429 OFFCURVE",
"577 437 OFFCURVE",
"577 447 CURVE SMOOTH",
"577 451 OFFCURVE",
"576 454 OFFCURVE",
"575 458 CURVE SMOOTH",
"572 473 OFFCURVE",
"559 482 OFFCURVE",
"546 486 CURVE SMOOTH",
"528 491 OFFCURVE",
"510 493 OFFCURVE",
"492 493 CURVE SMOOTH",
"317 493 OFFCURVE",
"152 284 OFFCURVE",
"123 167 CURVE SMOOTH",
"115 136 OFFCURVE",
"112 108 OFFCURVE",
"112 83 CURVE SMOOTH",
"112 -32 OFFCURVE",
"188 -79 OFFCURVE",
"279 -79 CURVE SMOOTH",
"358 -79 OFFCURVE",
"448 -44 OFFCURVE",
"513 12 CURVE SMOOTH"
);
}
);
};
layerId = "466AD7DC-B026-4005-940F-6404FDF7EB07";
paths = (
{
closed = 1;
nodes = (
"358 -79 OFFCURVE",
"448 -44 OFFCURVE",
"513 12 CURVE SMOOTH",
"605 92 OFFCURVE",
"671 206 OFFCURVE",
"688 316 CURVE SMOOTH",
"690 332 OFFCURVE",
"691 347 OFFCURVE",
"691 362 CURVE SMOOTH",
"691 500 OFFCURVE",
"594 583 OFFCURVE",
"480 597 CURVE SMOOTH",
"462 599 OFFCURVE",
"445 600 OFFCURVE",
"428 600 CURVE SMOOTH",
"246 600 OFFCURVE",
"121 484 OFFCURVE",
"121 382 CURVE SMOOTH",
"121 298 OFFCURVE",
"206 223 OFFCURVE",
"418 229 CURVE SMOOTH",
"563 232 OFFCURVE",
"778 284 OFFCURVE",
"882 394 CURVE SMOOTH",
"886 398 OFFCURVE",
"888 403 OFFCURVE",
"888 408 CURVE SMOOTH",
"888 417 OFFCURVE",
"879 426 OFFCURVE",
"869 426 CURVE SMOOTH",
"864 426 OFFCURVE",
"859 424 OFFCURVE",
"854 419 CURVE SMOOTH",
"752 311 OFFCURVE",
"522 263 OFFCURVE",
"394 263 CURVE SMOOTH",
"226 263 OFFCURVE",
"158 320 OFFCURVE",
"158 384 CURVE SMOOTH",
"158 468 OFFCURVE",
"272 564 OFFCURVE",
"429 564 CURVE SMOOTH",
"444 564 OFFCURVE",
"460 563 OFFCURVE",
"476 561 CURVE SMOOTH",
"601 546 OFFCURVE",
"653 465 OFFCURVE",
"653 367 CURVE SMOOTH",
"653 262 OFFCURVE",
"593 136 OFFCURVE",
"500 49 CURVE SMOOTH",
"445 -2 OFFCURVE",
"352 -42 OFFCURVE",
"276 -42 CURVE SMOOTH",
"207 -42 OFFCURVE",
"151 -8 OFFCURVE",
"151 82 CURVE SMOOTH",
"151 104 OFFCURVE",
"154 129 OFFCURVE",
"161 158 CURVE SMOOTH",
"190 278 OFFCURVE",
"314 398 OFFCURVE",
"401 436 CURVE SMOOTH",
"434 450 OFFCURVE",
"473 460 OFFCURVE",
"503 460 CURVE SMOOTH",
"524 460 OFFCURVE",
"540 455 OFFCURVE",
"547 444 CURVE SMOOTH",
"553 434 OFFCURVE",
"559 429 OFFCURVE",
"565 429 CURVE SMOOTH",
"572 429 OFFCURVE",
"577 437 OFFCURVE",
"577 447 CURVE SMOOTH",
"577 451 OFFCURVE",
"576 454 OFFCURVE",
"575 458 CURVE SMOOTH",
"572 473 OFFCURVE",
"559 482 OFFCURVE",
"546 486 CURVE SMOOTH",
"528 491 OFFCURVE",
"510 493 OFFCURVE",
"492 493 CURVE SMOOTH",
"317 493 OFFCURVE",
"152 284 OFFCURVE",
"123 167 CURVE SMOOTH",
"115 136 OFFCURVE",
"112 108 OFFCURVE",
"112 83 CURVE SMOOTH",
"112 -32 OFFCURVE",
"188 -79 OFFCURVE",
"279 -79 CURVE SMOOTH"
);
}
);
width = 715;
}
);
note = O;
unicode = 004F;
},
{
glyphname = OE;
lastChange = "2021-10-12 06:39:44 +0000";
layers = (
{
background = {
paths = (
{
closed = 1;
nodes = (
"507 55 OFFCURVE",
"503 52 OFFCURVE",
"500 49 CURVE SMOOTH",
"445 -2 OFFCURVE",
"352 -42 OFFCURVE",
"276 -42 CURVE SMOOTH",
"207 -42 OFFCURVE",
"151 -8 OFFCURVE",
"151 82 CURVE SMOOTH",
"151 104 OFFCURVE",
"154 129 OFFCURVE",
"161 158 CURVE SMOOTH",
"190 278 OFFCURVE",
"314 398 OFFCURVE",
"401 436 CURVE SMOOTH",
"434 450 OFFCURVE",
"473 460 OFFCURVE",
"503 460 CURVE SMOOTH",
"524 460 OFFCURVE",
"540 455 OFFCURVE",
"547 444 CURVE SMOOTH",
"553 434 OFFCURVE",
"559 429 OFFCURVE",
"565 429 CURVE SMOOTH",
"572 429 OFFCURVE",
"577 437 OFFCURVE",
"577 447 CURVE SMOOTH",
"577 451 OFFCURVE",
"576 454 OFFCURVE",
"575 458 CURVE SMOOTH",
"572 473 OFFCURVE",
"559 482 OFFCURVE",
"546 486 CURVE SMOOTH",
"528 491 OFFCURVE",
"510 493 OFFCURVE",
"492 493 CURVE SMOOTH",
"317 493 OFFCURVE",
"152 284 OFFCURVE",
"123 167 CURVE SMOOTH",
"115 136 OFFCURVE",
"112 108 OFFCURVE",
"112 83 CURVE SMOOTH",
"112 -32 OFFCURVE",
"188 -79 OFFCURVE",
"279 -79 CURVE SMOOTH",
"358 -79 OFFCURVE",
"448 -44 OFFCURVE",
"513 12 CURVE SMOOTH",
"522 20 LINE",
"510 59 LINE"
);
},
{
closed = 1;
nodes = (
"935 -110 OFFCURVE",
"1060 -51 OFFCURVE",
"1132 10 CURVE SMOOTH",
"1160 34 OFFCURVE",
"1202 81 OFFCURVE",
"1202 124 CURVE SMOOTH",
"1202 152 OFFCURVE",
"1185 165 OFFCURVE",
"1172 165 CURVE SMOOTH",
"1163 165 OFFCURVE",
"1156 159 OFFCURVE",
"1156 151 CURVE SMOOTH",
"1156 146 OFFCURVE",
"1158 140 OFFCURVE",
"1165 133 CURVE SMOOTH",
"1167 131 OFFCURVE",
"1168 127 OFFCURVE",
"1168 124 CURVE SMOOTH",
"1168 97 OFFCURVE",
"1117 44 OFFCURVE",
"1107 35 CURVE SMOOTH",
"1042 -18 OFFCURVE",
"928 -76 OFFCURVE",
"741 -76 CURVE SMOOTH",
"600 -76 OFFCURVE",
"534 -14 OFFCURVE",
"534 57 CURVE SMOOTH",
"534 150 OFFCURVE",
"646 257 OFFCURVE",
"849 257 CURVE SMOOTH",
"864 257 OFFCURVE",
"879 256 OFFCURVE",
"895 255 CURVE",
"910 257 OFFCURVE",
"919 268 OFFCURVE",
"919 277 CURVE SMOOTH",
"919 285 OFFCURVE",
"913 292 OFFCURVE",
"900 292 CURVE SMOOTH",
"790 292 OFFCURVE",
"744 324 OFFCURVE",
"744 365 CURVE SMOOTH",
"744 440 OFFCURVE",
"896 547 OFFCURVE",
"1074 547 CURVE SMOOTH",
"1087 547 OFFCURVE",
"1099 546 OFFCURVE",
"1112 545 CURVE SMOOTH",
"1167 541 OFFCURVE",
"1198 519 OFFCURVE",
"1198 492 CURVE SMOOTH",
"1198 465 OFFCURVE",
"1167 433 OFFCURVE",
"1095 411 CURVE SMOOTH",
"1057 399 OFFCURVE",
"1014 393 OFFCURVE",
"970 393 CURVE SMOOTH",
"917 393 OFFCURVE",
"862 401 OFFCURVE",
"812 415 CURVE SMOOTH",
"691 448 OFFCURVE",
"641 498 OFFCURVE",
"641 528 CURVE SMOOTH",
"641 544 OFFCURVE",
"655 555 OFFCURVE",
"680 555 CURVE SMOOTH",
"690 555 OFFCURVE",
"702 554 OFFCURVE",
"715 550 CURVE SMOOTH",
"726 547 OFFCURVE",
"733 554 OFFCURVE",
"733 562 CURVE SMOOTH",
"733 568 OFFCURVE",
"730 575 OFFCURVE",
"721 578 CURVE SMOOTH",
"695 587 OFFCURVE",
"673 591 OFFCURVE",
"655 591 CURVE SMOOTH",
"615 591 OFFCURVE",
"597 570 OFFCURVE",
"597 543 CURVE SMOOTH",
"597 519 OFFCURVE",
"611 491 OFFCURVE",
"635 466 CURVE SMOOTH",
"698 393 OFFCURVE",
"837 359 OFFCURVE",
"961 359 CURVE SMOOTH",
"1017 359 OFFCURVE",
"1070 366 OFFCURVE",
"1112 379 CURVE SMOOTH",
"1192 404 OFFCURVE",
"1238 454 OFFCURVE",
"1238 498 CURVE SMOOTH",
"1238 537 OFFCURVE",
"1200 572 OFFCURVE",
"1116 580 CURVE SMOOTH",
"1103 581 OFFCURVE",
"1089 582 OFFCURVE",
"1076 582 CURVE SMOOTH",
"956 582 OFFCURVE",
"850 538 OFFCURVE",
"782 485 CURVE SMOOTH",
"745 454 OFFCURVE",
"706 403 OFFCURVE",
"706 356 CURVE SMOOTH",
"706 329 OFFCURVE",
"719 303 OFFCURVE",
"753 284 CURVE",
"587 257 OFFCURVE",
"494 150 OFFCURVE",
"494 54 CURVE SMOOTH",
"494 -32 OFFCURVE",
"571 -110 OFFCURVE",
"740 -110 CURVE SMOOTH"
);
},
{
closed = 1;
nodes = (
"678 265 OFFCURVE",
"684 291 OFFCURVE",
"688 316 CURVE SMOOTH",
"690 332 OFFCURVE",
"691 347 OFFCURVE",
"691 362 CURVE SMOOTH",
"691 500 OFFCURVE",
"594 583 OFFCURVE",
"480 597 CURVE SMOOTH",
"462 599 OFFCURVE",
"445 600 OFFCURVE",
"428 600 CURVE SMOOTH",
"246 600 OFFCURVE",
"121 484 OFFCURVE",
"121 382 CURVE SMOOTH",
"121 298 OFFCURVE",
"206 223 OFFCURVE",
"418 229 CURVE SMOOTH",
"442 230 OFFCURVE",
"456 239 OFFCURVE",
"456 248 CURVE SMOOTH",
"456 256 OFFCURVE",
"443 264 OFFCURVE",
"415 263 CURVE SMOOTH",
"232 258 OFFCURVE",
"158 317 OFFCURVE",
"158 384 CURVE SMOOTH",
"158 468 OFFCURVE",
"272 564 OFFCURVE",
"429 564 CURVE SMOOTH",
"444 564 OFFCURVE",
"460 563 OFFCURVE",
"476 561 CURVE SMOOTH",
"601 546 OFFCURVE",
"653 465 OFFCURVE",
"653 367 CURVE SMOOTH",
"653 321 OFFCURVE",
"641 271 OFFCURVE",
"621 222 CURVE",
"669 239 LINE"
);
}
);
};
layerId = "466AD7DC-B026-4005-940F-6404FDF7EB07";
paths = (
{
closed = 1;
nodes = (
"935 -110 OFFCURVE",
"1060 -51 OFFCURVE",
"1132 10 CURVE SMOOTH",
"1160 34 OFFCURVE",
"1202 81 OFFCURVE",
"1202 124 CURVE SMOOTH",
"1202 152 OFFCURVE",
"1185 165 OFFCURVE",
"1172 165 CURVE SMOOTH",
"1163 165 OFFCURVE",
"1156 159 OFFCURVE",
"1156 151 CURVE SMOOTH",
"1156 146 OFFCURVE",
"1158 140 OFFCURVE",
"1165 133 CURVE SMOOTH",
"1167 131 OFFCURVE",
"1168 127 OFFCURVE",
"1168 124 CURVE SMOOTH",
"1168 97 OFFCURVE",
"1117 44 OFFCURVE",
"1107 35 CURVE SMOOTH",
"1042 -18 OFFCURVE",
"928 -76 OFFCURVE",
"741 -76 CURVE SMOOTH",
"600 -76 OFFCURVE",
"534 -14 OFFCURVE",
"534 57 CURVE SMOOTH",
"534 150 OFFCURVE",
"646 257 OFFCURVE",
"849 257 CURVE SMOOTH",
"864 257 OFFCURVE",
"879 256 OFFCURVE",
"895 255 CURVE",
"910 257 OFFCURVE",
"919 268 OFFCURVE",
"919 277 CURVE SMOOTH",
"919 285 OFFCURVE",
"913 292 OFFCURVE",
"900 292 CURVE SMOOTH",
"790 292 OFFCURVE",
"744 324 OFFCURVE",
"744 365 CURVE SMOOTH",
"744 440 OFFCURVE",
"896 547 OFFCURVE",
"1074 547 CURVE SMOOTH",
"1087 547 OFFCURVE",
"1099 546 OFFCURVE",
"1112 545 CURVE SMOOTH",
"1167 541 OFFCURVE",
"1198 519 OFFCURVE",
"1198 492 CURVE SMOOTH",
"1198 465 OFFCURVE",
"1167 433 OFFCURVE",
"1095 411 CURVE SMOOTH",
"1057 399 OFFCURVE",
"1014 393 OFFCURVE",
"970 393 CURVE SMOOTH",
"917 393 OFFCURVE",
"862 401 OFFCURVE",
"812 415 CURVE SMOOTH",
"691 448 OFFCURVE",
"641 498 OFFCURVE",
"641 528 CURVE SMOOTH",
"641 544 OFFCURVE",
"655 555 OFFCURVE",
"680 555 CURVE SMOOTH",
"690 555 OFFCURVE",
"702 554 OFFCURVE",
"715 550 CURVE SMOOTH",
"726 547 OFFCURVE",
"733 554 OFFCURVE",
"733 562 CURVE SMOOTH",
"733 568 OFFCURVE",
"730 575 OFFCURVE",
"721 578 CURVE SMOOTH",
"695 587 OFFCURVE",
"673 591 OFFCURVE",
"655 591 CURVE SMOOTH",
"615 591 OFFCURVE",
"597 570 OFFCURVE",
"597 543 CURVE SMOOTH",
"597 519 OFFCURVE",
"611 491 OFFCURVE",
"635 466 CURVE SMOOTH",
"698 393 OFFCURVE",
"837 359 OFFCURVE",
"961 359 CURVE SMOOTH",
"1017 359 OFFCURVE",
"1070 366 OFFCURVE",
"1112 379 CURVE SMOOTH",
"1192 404 OFFCURVE",
"1238 454 OFFCURVE",
"1238 498 CURVE SMOOTH",
"1238 537 OFFCURVE",
"1200 572 OFFCURVE",
"1116 580 CURVE SMOOTH",
"1103 581 OFFCURVE",
"1089 582 OFFCURVE",
"1076 582 CURVE SMOOTH",
"956 582 OFFCURVE",
"850 538 OFFCURVE",
"782 485 CURVE SMOOTH",
"745 454 OFFCURVE",
"706 403 OFFCURVE",
"706 356 CURVE SMOOTH",
"706 329 OFFCURVE",
"719 303 OFFCURVE",
"753 284 CURVE",
"587 257 OFFCURVE",
"494 150 OFFCURVE",
"494 54 CURVE SMOOTH",
"494 -32 OFFCURVE",
"571 -110 OFFCURVE",
"740 -110 CURVE SMOOTH"
);
},
{
closed = 1;
nodes = (
"358 -79 OFFCURVE",
"448 -44 OFFCURVE",
"513 12 CURVE SMOOTH",
"522 20 LINE",
"510 59 LINE",
"507 55 OFFCURVE",
"503 52 OFFCURVE",
"500 49 CURVE SMOOTH",
"445 -2 OFFCURVE",
"352 -42 OFFCURVE",
"276 -42 CURVE SMOOTH",
"207 -42 OFFCURVE",
"151 -8 OFFCURVE",
"151 82 CURVE SMOOTH",
"151 104 OFFCURVE",
"154 129 OFFCURVE",
"161 158 CURVE SMOOTH",
"190 278 OFFCURVE",
"314 398 OFFCURVE",
"401 436 CURVE SMOOTH",
"434 450 OFFCURVE",
"473 460 OFFCURVE",
"503 460 CURVE SMOOTH",
"524 460 OFFCURVE",
"540 455 OFFCURVE",
"547 444 CURVE SMOOTH",
"553 434 OFFCURVE",
"559 429 OFFCURVE",
"565 429 CURVE SMOOTH",
"572 429 OFFCURVE",
"577 437 OFFCURVE",
"577 447 CURVE SMOOTH",
"577 451 OFFCURVE",
"576 454 OFFCURVE",
"575 458 CURVE SMOOTH",
"572 473 OFFCURVE",
"559 482 OFFCURVE",
"546 486 CURVE SMOOTH",
"528 491 OFFCURVE",
"510 493 OFFCURVE",
"492 493 CURVE SMOOTH",
"317 493 OFFCURVE",
"152 284 OFFCURVE",
"123 167 CURVE SMOOTH",
"115 136 OFFCURVE",
"112 108 OFFCURVE",
"112 83 CURVE SMOOTH",
"112 -32 OFFCURVE",
"188 -79 OFFCURVE",
"279 -79 CURVE SMOOTH"
);
},
{
closed = 1;
nodes = (
"669 239 LINE",
"678 265 OFFCURVE",
"684 291 OFFCURVE",
"688 316 CURVE SMOOTH",
"690 332 OFFCURVE",
"691 347 OFFCURVE",
"691 362 CURVE SMOOTH",
"691 500 OFFCURVE",
"594 583 OFFCURVE",
"480 597 CURVE SMOOTH",
"462 599 OFFCURVE",
"445 600 OFFCURVE",
"428 600 CURVE SMOOTH",
"246 600 OFFCURVE",
"121 484 OFFCURVE",
"121 382 CURVE SMOOTH",
"121 298 OFFCURVE",
"206 223 OFFCURVE",
"418 229 CURVE SMOOTH",
"442 230 OFFCURVE",
"456 239 OFFCURVE",
"456 248 CURVE SMOOTH",
"456 256 OFFCURVE",
"443 264 OFFCURVE",
"415 263 CURVE SMOOTH",
"232 258 OFFCURVE",
"158 317 OFFCURVE",
"158 384 CURVE SMOOTH",
"158 468 OFFCURVE",
"272 564 OFFCURVE",
"429 564 CURVE SMOOTH",
"444 564 OFFCURVE",
"460 563 OFFCURVE",
"476 561 CURVE SMOOTH",
"601 546 OFFCURVE",
"653 465 OFFCURVE",
"653 367 CURVE SMOOTH",
"653 321 OFFCURVE",
"641 271 OFFCURVE",
"621 222 CURVE"
);
}
);
width = 1219;
}
);
unicode = 0152;
},
{
glyphname = P;
lastChange = "2021-10-12 06:39:44 +0000";
layers = (
{
background = {
paths = (
{
closed = 1;
nodes = (
"350 -74 OFFCURVE",
"446 63 OFFCURVE",
"546 201 CURVE SMOOTH",
"631 319 OFFCURVE",
"716 459 OFFCURVE",
"826 551 CURVE SMOOTH",
"861 581 OFFCURVE",
"894 596 OFFCURVE",
"916 596 CURVE SMOOTH",
"926 596 OFFCURVE",
"931 601 OFFCURVE",
"931 608 CURVE SMOOTH",
"931 616 OFFCURVE",
"922 626 OFFCURVE",
"909 626 CURVE SMOOTH",
"786 626 OFFCURVE",
"633 387 OFFCURVE",
"501 203 CURVE SMOOTH",
"424 96 OFFCURVE",
"333 -38 OFFCURVE",
"181 -38 CURVE SMOOTH",
"124 -38 OFFCURVE",
"101 -14 OFFCURVE",
"101 13 CURVE SMOOTH",
"101 42 OFFCURVE",
"129 73 OFFCURVE",
"171 73 CURVE SMOOTH",
"177 73 OFFCURVE",
"184 73 OFFCURVE",
"191 71 CURVE SMOOTH",
"203 68 OFFCURVE",
"210 75 OFFCURVE",
"210 83 CURVE SMOOTH",
"210 91 OFFCURVE",
"204 100 OFFCURVE",
"192 102 CURVE SMOOTH",
"182 104 OFFCURVE",
"172 105 OFFCURVE",
"163 105 CURVE SMOOTH",
"101 105 OFFCURVE",
"63 58 OFFCURVE",
"63 13 CURVE SMOOTH",
"63 -31 OFFCURVE",
"97 -74 OFFCURVE",
"181 -74 CURVE SMOOTH"
);
},
{
closed = 1;
nodes = (
"533 155 OFFCURVE",
"555 153 OFFCURVE",
"576 153 CURVE SMOOTH",
"806 153 OFFCURVE",
"954 292 OFFCURVE",
"954 413 CURVE SMOOTH",
"954 509 OFFCURVE",
"862 595 OFFCURVE",
"647 595 CURVE SMOOTH",
"359 595 OFFCURVE",
"197 473 OFFCURVE",
"162 364 CURVE SMOOTH",
"155 343 OFFCURVE",
"152 324 OFFCURVE",
"152 307 CURVE SMOOTH",
"152 242 OFFCURVE",
"198 205 OFFCURVE",
"261 205 CURVE SMOOTH",
"344 205 OFFCURVE",
"456 267 OFFCURVE",
"537 408 CURVE SMOOTH",
"539 412 OFFCURVE",
"540 415 OFFCURVE",
"540 419 CURVE SMOOTH",
"540 428 OFFCURVE",
"533 434 OFFCURVE",
"525 434 CURVE SMOOTH",
"520 434 OFFCURVE",
"514 431 OFFCURVE",
"510 424 CURVE SMOOTH",
"435 293 OFFCURVE",
"329 241 OFFCURVE",
"263 241 CURVE SMOOTH",
"219 241 OFFCURVE",
"189 263 OFFCURVE",
"189 309 CURVE SMOOTH",
"189 322 OFFCURVE",
"191 337 OFFCURVE",
"196 353 CURVE SMOOTH",
"225 441 OFFCURVE",
"365 559 OFFCURVE",
"647 559 CURVE SMOOTH",
"838 559 OFFCURVE",
"918 490 OFFCURVE",
"918 412 CURVE SMOOTH",
"918 309 OFFCURVE",
"779 189 OFFCURVE",
"573 189 CURVE SMOOTH",
"554 189 OFFCURVE",
"534 190 OFFCURVE",
"514 192 CURVE SMOOTH",
"502 194 OFFCURVE",
"495 184 OFFCURVE",
"495 174 CURVE SMOOTH",
"495 166 OFFCURVE",
"500 158 OFFCURVE",
"511 157 CURVE SMOOTH"
);
}
);
};
layerId = "466AD7DC-B026-4005-940F-6404FDF7EB07";
paths = (
{
closed = 1;
nodes = (
"350 -74 OFFCURVE",
"446 63 OFFCURVE",
"546 201 CURVE SMOOTH",
"631 319 OFFCURVE",
"716 459 OFFCURVE",
"826 551 CURVE SMOOTH",
"861 581 OFFCURVE",
"894 596 OFFCURVE",
"916 596 CURVE SMOOTH",
"926 596 OFFCURVE",
"931 601 OFFCURVE",
"931 608 CURVE SMOOTH",
"931 616 OFFCURVE",
"922 626 OFFCURVE",
"909 626 CURVE SMOOTH",
"786 626 OFFCURVE",
"633 387 OFFCURVE",
"501 203 CURVE SMOOTH",
"424 96 OFFCURVE",
"333 -38 OFFCURVE",
"181 -38 CURVE SMOOTH",
"124 -38 OFFCURVE",
"101 -14 OFFCURVE",
"101 13 CURVE SMOOTH",
"101 42 OFFCURVE",
"129 73 OFFCURVE",
"171 73 CURVE SMOOTH",
"177 73 OFFCURVE",
"184 73 OFFCURVE",
"191 71 CURVE SMOOTH",
"203 68 OFFCURVE",
"210 75 OFFCURVE",
"210 83 CURVE SMOOTH",
"210 91 OFFCURVE",
"204 100 OFFCURVE",
"192 102 CURVE SMOOTH",
"182 104 OFFCURVE",
"172 105 OFFCURVE",
"163 105 CURVE SMOOTH",
"101 105 OFFCURVE",
"63 58 OFFCURVE",
"63 13 CURVE SMOOTH",
"63 -31 OFFCURVE",
"97 -74 OFFCURVE",
"181 -74 CURVE SMOOTH"
);
},
{
closed = 1;
nodes = (
"806 153 OFFCURVE",
"954 292 OFFCURVE",
"954 413 CURVE SMOOTH",
"954 509 OFFCURVE",
"862 595 OFFCURVE",
"647 595 CURVE SMOOTH",
"359 595 OFFCURVE",
"197 473 OFFCURVE",
"162 364 CURVE SMOOTH",
"155 343 OFFCURVE",
"152 324 OFFCURVE",
"152 307 CURVE SMOOTH",
"152 242 OFFCURVE",
"198 205 OFFCURVE",
"261 205 CURVE SMOOTH",
"344 205 OFFCURVE",
"456 267 OFFCURVE",
"537 408 CURVE SMOOTH",
"539 412 OFFCURVE",
"540 415 OFFCURVE",
"540 419 CURVE SMOOTH",
"540 428 OFFCURVE",
"533 434 OFFCURVE",
"525 434 CURVE SMOOTH",
"520 434 OFFCURVE",
"514 431 OFFCURVE",
"510 424 CURVE SMOOTH",
"435 293 OFFCURVE",
"329 241 OFFCURVE",
"263 241 CURVE SMOOTH",
"219 241 OFFCURVE",
"189 263 OFFCURVE",
"189 309 CURVE SMOOTH",
"189 322 OFFCURVE",
"191 337 OFFCURVE",
"196 353 CURVE SMOOTH",
"225 441 OFFCURVE",
"365 559 OFFCURVE",
"647 559 CURVE SMOOTH",
"838 559 OFFCURVE",
"918 490 OFFCURVE",
"918 412 CURVE SMOOTH",
"918 309 OFFCURVE",
"779 189 OFFCURVE",
"573 189 CURVE SMOOTH",
"554 189 OFFCURVE",
"534 190 OFFCURVE",
"514 192 CURVE SMOOTH",
"502 194 OFFCURVE",
"495 184 OFFCURVE",
"495 174 CURVE SMOOTH",
"495 166 OFFCURVE",
"500 158 OFFCURVE",
"511 157 CURVE SMOOTH",
"533 155 OFFCURVE",
"555 153 OFFCURVE",
"576 153 CURVE SMOOTH"
);
}
);
width = 871;
}
);
note = P;
unicode = 0050;
},
{
glyphname = Thorn;
lastChange = "2021-10-12 06:39:44 +0000";
layers = (
{
background = {
paths = (
{
closed = 1;
nodes = (
"175 147 LINE",
"202 145 OFFCURVE",
"234 147 OFFCURVE",
"262 151 CURVE SMOOTH",
"444 176 OFFCURVE",
"534 282 OFFCURVE",
"534 367 CURVE SMOOTH",
"534 428 OFFCURVE",
"489 479 OFFCURVE",
"398 484 CURVE",
"443 553 LINE SMOOTH",
"446 557 OFFCURVE",
"447 561 OFFCURVE",
"447 565 CURVE SMOOTH",
"447 576 OFFCURVE",
"436 584 OFFCURVE",
"426 584 CURVE SMOOTH",
"420 584 OFFCURVE",
"414 581 OFFCURVE",
"410 575 CURVE SMOOTH",
"349 483 LINE",
"267 475 OFFCURVE",
"193 438 OFFCURVE",
"128 404 CURVE SMOOTH",
"122 401 OFFCURVE",
"120 396 OFFCURVE",
"120 391 CURVE SMOOTH",
"120 379 OFFCURVE",
"132 367 OFFCURVE",
"144 374 CURVE SMOOTH",
"199 402 OFFCURVE",
"259 434 OFFCURVE",
"325 446 CURVE",
"151 183 LINE",
"139 187 OFFCURVE",
"131 179 OFFCURVE",
"131 170 CURVE SMOOTH",
"131 166 OFFCURVE",
"132 162 OFFCURVE",
"135 159 CURVE",
"29 -2 LINE SMOOTH",
"26 -6 OFFCURVE",
"25 -10 OFFCURVE",
"25 -14 CURVE SMOOTH",
"25 -25 OFFCURVE",
"36 -33 OFFCURVE",
"46 -33 CURVE SMOOTH",
"52 -33 OFFCURVE",
"58 -30 OFFCURVE",
"62 -24 CURVE SMOOTH"
);
},
{
closed = 1;
nodes = (
"376 452 LINE",
"383 452 LINE SMOOTH",
"461 452 OFFCURVE",
"499 414 OFFCURVE",
"499 367 CURVE SMOOTH",
"499 298 OFFCURVE",
"417 207 OFFCURVE",
"258 185 CURVE SMOOTH",
"238 182 OFFCURVE",
"216 180 OFFCURVE",
"196 179 CURVE"
);
}
);
};
layerId = "466AD7DC-B026-4005-940F-6404FDF7EB07";
paths = (
{
closed = 1;
nodes = (
"52 -33 OFFCURVE",
"58 -30 OFFCURVE",
"62 -24 CURVE SMOOTH",
"175 147 LINE",
"202 145 OFFCURVE",
"234 147 OFFCURVE",
"262 151 CURVE SMOOTH",
"444 176 OFFCURVE",
"534 282 OFFCURVE",
"534 367 CURVE SMOOTH",
"534 428 OFFCURVE",
"489 479 OFFCURVE",
"398 484 CURVE",
"443 553 LINE SMOOTH",
"446 557 OFFCURVE",
"447 561 OFFCURVE",
"447 565 CURVE SMOOTH",
"447 576 OFFCURVE",
"436 584 OFFCURVE",
"426 584 CURVE SMOOTH",
"420 584 OFFCURVE",
"414 581 OFFCURVE",
"410 575 CURVE SMOOTH",
"349 483 LINE",
"267 475 OFFCURVE",
"193 438 OFFCURVE",
"128 404 CURVE SMOOTH",
"122 401 OFFCURVE",
"120 396 OFFCURVE",
"120 391 CURVE SMOOTH",
"120 381 OFFCURVE",
"128 372 OFFCURVE",
"137 372 CURVE SMOOTH",
"139 372 OFFCURVE",
"142 373 OFFCURVE",
"144 374 CURVE SMOOTH",
"199 402 OFFCURVE",
"259 434 OFFCURVE",
"325 446 CURVE",
"151 183 LINE",
"139 187 OFFCURVE",
"131 179 OFFCURVE",
"131 170 CURVE SMOOTH",
"131 166 OFFCURVE",
"132 162 OFFCURVE",
"135 159 CURVE",
"29 -2 LINE SMOOTH",
"26 -6 OFFCURVE",
"25 -10 OFFCURVE",
"25 -14 CURVE SMOOTH",
"25 -25 OFFCURVE",
"36 -33 OFFCURVE",
"46 -33 CURVE SMOOTH"
);
},
{
closed = 1;
nodes = (
"376 452 LINE",
"383 452 LINE SMOOTH",
"461 452 OFFCURVE",
"499 414 OFFCURVE",
"499 367 CURVE SMOOTH",
"499 298 OFFCURVE",
"417 207 OFFCURVE",
"258 185 CURVE SMOOTH",
"238 182 OFFCURVE",
"216 180 OFFCURVE",
"196 179 CURVE"
);
}
);
width = 557;
}
);
note = Thorn;
unicode = 00DE;
},
{
glyphname = Q;
lastChange = "2021-10-12 06:39:44 +0000";
layers = (
{
background = {
paths = (
{
closed = 1;
nodes = (
"399 -117 OFFCURVE",
"561 24 OFFCURVE",
"634 239 CURVE SMOOTH",
"651 290 OFFCURVE",
"659 335 OFFCURVE",
"659 376 CURVE SMOOTH",
"659 541 OFFCURVE",
"527 617 OFFCURVE",
"393 617 CURVE SMOOTH",
"252 617 OFFCURVE",
"109 542 OFFCURVE",
"109 408 CURVE SMOOTH",
"109 385 OFFCURVE",
"114 361 OFFCURVE",
"123 334 CURVE SMOOTH",
"125 327 OFFCURVE",
"131 324 OFFCURVE",
"138 324 CURVE SMOOTH",
"150 324 OFFCURVE",
"165 336 OFFCURVE",
"159 351 CURVE SMOOTH",
"152 370 OFFCURVE",
"149 389 OFFCURVE",
"149 406 CURVE SMOOTH",
"149 505 OFFCURVE",
"244 580 OFFCURVE",
"373 580 CURVE SMOOTH",
"546 580 OFFCURVE",
"619 485 OFFCURVE",
"619 366 CURVE SMOOTH",
"619 331 OFFCURVE",
"612 293 OFFCURVE",
"600 255 CURVE SMOOTH",
"544 89 OFFCURVE",
"417 -80 OFFCURVE",
"245 -80 CURVE SMOOTH",
"175 -80 OFFCURVE",
"133 -40 OFFCURVE",
"133 43 CURVE SMOOTH",
"133 59 OFFCURVE",
"135 77 OFFCURVE",
"138 97 CURVE SMOOTH",
"165 254 OFFCURVE",
"317 401 OFFCURVE",
"369 432 CURVE SMOOTH",
"395 446 OFFCURVE",
"431 455 OFFCURVE",
"460 455 CURVE SMOOTH",
"477 455 OFFCURVE",
"492 452 OFFCURVE",
"500 445 CURVE SMOOTH",
"506 441 OFFCURVE",
"511 439 OFFCURVE",
"516 439 CURVE SMOOTH",
"525 439 OFFCURVE",
"531 444 OFFCURVE",
"531 453 CURVE SMOOTH",
"531 456 OFFCURVE",
"530 460 OFFCURVE",
"527 465 CURVE SMOOTH",
"515 485 OFFCURVE",
"489 494 OFFCURVE",
"459 494 CURVE SMOOTH",
"424 494 OFFCURVE",
"384 483 OFFCURVE",
"350 463 CURVE SMOOTH",
"294 428 OFFCURVE",
"131 274 OFFCURVE",
"101 100 CURVE SMOOTH",
"98 80 OFFCURVE",
"96 61 OFFCURVE",
"96 43 CURVE SMOOTH",
"96 -55 OFFCURVE",
"145 -117 OFFCURVE",
"243 -117 CURVE SMOOTH"
);
},
{
closed = 1;
nodes = (
"494 -178 OFFCURVE",
"444 -151 OFFCURVE",
"401 -121 CURVE SMOOTH",
"352 -87 OFFCURVE",
"206 55 OFFCURVE",
"112 55 CURVE SMOOTH",
"80 55 OFFCURVE",
"55 39 OFFCURVE",
"41 -2 CURVE SMOOTH",
"37 -17 OFFCURVE",
"48 -27 OFFCURVE",
"60 -27 CURVE SMOOTH",
"67 -27 OFFCURVE",
"74 -23 OFFCURVE",
"77 -14 CURVE SMOOTH",
"85 10 OFFCURVE",
"97 19 OFFCURVE",
"115 19 CURVE SMOOTH",
"123 19 OFFCURVE",
"132 17 OFFCURVE",
"142 14 CURVE SMOOTH",
"222 -14 OFFCURVE",
"310 -102 OFFCURVE",
"380 -151 CURVE SMOOTH",
"468 -213 OFFCURVE",
"543 -236 OFFCURVE",
"599 -236 CURVE SMOOTH",
"675 -236 OFFCURVE",
"718 -193 OFFCURVE",
"718 -143 CURVE SMOOTH",
"718 -89 OFFCURVE",
"667 -27 OFFCURVE",
"553 -2 CURVE SMOOTH",
"539 1 OFFCURVE",
"530 -8 OFFCURVE",
"530 -17 CURVE SMOOTH",
"530 -23 OFFCURVE",
"534 -28 OFFCURVE",
"543 -30 CURVE SMOOTH",
"635 -50 OFFCURVE",
"676 -99 OFFCURVE",
"676 -139 CURVE SMOOTH",
"676 -172 OFFCURVE",
"649 -199 OFFCURVE",
"598 -199 CURVE SMOOTH",
"586 -199 OFFCURVE",
"572 -198 OFFCURVE",
"557 -194 CURVE SMOOTH"
);
}
);
};
layerId = "466AD7DC-B026-4005-940F-6404FDF7EB07";
paths = (
{
closed = 1;
nodes = (
"399 -117 OFFCURVE",
"561 24 OFFCURVE",
"634 239 CURVE SMOOTH",
"651 290 OFFCURVE",
"659 335 OFFCURVE",
"659 376 CURVE SMOOTH",
"659 541 OFFCURVE",
"527 617 OFFCURVE",
"393 617 CURVE SMOOTH",
"252 617 OFFCURVE",
"109 542 OFFCURVE",
"109 408 CURVE SMOOTH",
"109 385 OFFCURVE",
"114 361 OFFCURVE",
"123 334 CURVE SMOOTH",
"125 327 OFFCURVE",
"131 324 OFFCURVE",
"138 324 CURVE SMOOTH",
"150 324 OFFCURVE",
"165 336 OFFCURVE",
"159 351 CURVE SMOOTH",
"152 370 OFFCURVE",
"149 389 OFFCURVE",
"149 406 CURVE SMOOTH",
"149 505 OFFCURVE",
"244 580 OFFCURVE",
"373 580 CURVE SMOOTH",
"546 580 OFFCURVE",
"619 485 OFFCURVE",
"619 366 CURVE SMOOTH",
"619 331 OFFCURVE",
"612 293 OFFCURVE",
"600 255 CURVE SMOOTH",
"544 89 OFFCURVE",
"417 -80 OFFCURVE",
"245 -80 CURVE SMOOTH",
"175 -80 OFFCURVE",
"133 -40 OFFCURVE",
"133 43 CURVE SMOOTH",
"133 59 OFFCURVE",
"135 77 OFFCURVE",
"138 97 CURVE SMOOTH",
"165 254 OFFCURVE",
"317 401 OFFCURVE",
"369 432 CURVE SMOOTH",
"395 446 OFFCURVE",
"431 455 OFFCURVE",
"460 455 CURVE SMOOTH",
"477 455 OFFCURVE",
"492 452 OFFCURVE",
"500 445 CURVE SMOOTH",
"506 441 OFFCURVE",
"511 439 OFFCURVE",
"516 439 CURVE SMOOTH",
"525 439 OFFCURVE",
"531 444 OFFCURVE",
"531 453 CURVE SMOOTH",
"531 456 OFFCURVE",
"530 460 OFFCURVE",
"527 465 CURVE SMOOTH",
"515 485 OFFCURVE",
"489 494 OFFCURVE",
"459 494 CURVE SMOOTH",
"424 494 OFFCURVE",
"384 483 OFFCURVE",
"350 463 CURVE SMOOTH",
"294 428 OFFCURVE",
"131 274 OFFCURVE",
"101 100 CURVE SMOOTH",
"98 80 OFFCURVE",
"96 61 OFFCURVE",
"96 43 CURVE SMOOTH",
"96 -55 OFFCURVE",
"145 -117 OFFCURVE",
"243 -117 CURVE SMOOTH"
);
},
{
closed = 1;
nodes = (
"675 -236 OFFCURVE",
"718 -193 OFFCURVE",
"718 -143 CURVE SMOOTH",
"718 -89 OFFCURVE",
"667 -27 OFFCURVE",
"553 -2 CURVE SMOOTH",
"539 1 OFFCURVE",
"530 -8 OFFCURVE",
"530 -17 CURVE SMOOTH",
"530 -23 OFFCURVE",
"534 -28 OFFCURVE",
"543 -30 CURVE SMOOTH",
"635 -50 OFFCURVE",
"676 -99 OFFCURVE",
"676 -139 CURVE SMOOTH",
"676 -172 OFFCURVE",
"649 -199 OFFCURVE",
"598 -199 CURVE SMOOTH",
"586 -199 OFFCURVE",
"572 -198 OFFCURVE",
"557 -194 CURVE SMOOTH",
"494 -178 OFFCURVE",
"444 -151 OFFCURVE",
"401 -121 CURVE SMOOTH",
"352 -87 OFFCURVE",
"206 55 OFFCURVE",
"112 55 CURVE SMOOTH",
"80 55 OFFCURVE",
"55 39 OFFCURVE",
"41 -2 CURVE SMOOTH",
"37 -17 OFFCURVE",
"48 -27 OFFCURVE",
"60 -27 CURVE SMOOTH",
"67 -27 OFFCURVE",
"74 -23 OFFCURVE",
"77 -14 CURVE SMOOTH",
"85 10 OFFCURVE",
"97 19 OFFCURVE",
"115 19 CURVE SMOOTH",
"123 19 OFFCURVE",
"132 17 OFFCURVE",
"142 14 CURVE SMOOTH",
"222 -14 OFFCURVE",
"310 -102 OFFCURVE",
"380 -151 CURVE SMOOTH",
"468 -213 OFFCURVE",
"543 -236 OFFCURVE",
"599 -236 CURVE SMOOTH"
);
}
);
width = 665;
}
);
note = Q;
unicode = 0051;
},
{
glyphname = R;
lastChange = "2021-10-12 06:39:44 +0000";
layers = (
{
anchors = (
{
name = bottom;
position = "{492, -31}";
},
{
name = top;
position = "{907, 601}";
}
);
background = {
paths = (
{
closed = 1;
nodes = (
"340 -60 OFFCURVE",
"430 70 OFFCURVE",
"525 200 CURVE SMOOTH",
"572 267 LINE SMOOTH",
"634 358 OFFCURVE",
"709 464 OFFCURVE",
"790 531 CURVE SMOOTH",
"823 560 OFFCURVE",
"853 574 OFFCURVE",
"874 574 CURVE SMOOTH",
"884 574 OFFCURVE",
"888 579 OFFCURVE",
"888 586 CURVE SMOOTH",
"888 595 OFFCURVE",
"880 605 OFFCURVE",
"867 605 CURVE SMOOTH",
"763 605 OFFCURVE",
"638 428 OFFCURVE",
"524 266 CURVE SMOOTH",
"480 204 LINE SMOOTH",
"408 104 OFFCURVE",
"320 -24 OFFCURVE",
"177 -24 CURVE SMOOTH",
"124 -24 OFFCURVE",
"103 -2 OFFCURVE",
"103 22 CURVE SMOOTH",
"103 50 OFFCURVE",
"129 79 OFFCURVE",
"168 79 CURVE SMOOTH",
"174 79 OFFCURVE",
"181 78 OFFCURVE",
"187 77 CURVE SMOOTH",
"199 75 OFFCURVE",
"205 82 OFFCURVE",
"205 90 CURVE SMOOTH",
"205 98 OFFCURVE",
"199 107 OFFCURVE",
"188 109 CURVE SMOOTH",
"178 111 OFFCURVE",
"169 112 OFFCURVE",
"161 112 CURVE SMOOTH",
"101 112 OFFCURVE",
"65 67 OFFCURVE",
"65 23 CURVE SMOOTH",
"65 -20 OFFCURVE",
"99 -60 OFFCURVE",
"179 -60 CURVE SMOOTH"
);
},
{
closed = 1;
nodes = (
"827 -116 OFFCURVE",
"898 -67 OFFCURVE",
"922 -2 CURVE SMOOTH",
"927 11 OFFCURVE",
"915 22 OFFCURVE",
"903 22 CURVE SMOOTH",
"897 22 OFFCURVE",
"891 19 OFFCURVE",
"888 11 CURVE SMOOTH",
"866 -45 OFFCURVE",
"814 -83 OFFCURVE",
"760 -83 CURVE SMOOTH",
"725 -83 OFFCURVE",
"690 -66 OFFCURVE",
"665 -28 CURVE SMOOTH",
"616 45 OFFCURVE",
"590 169 OFFCURVE",
"586 226 CURVE",
"765 219 OFFCURVE",
"897 331 OFFCURVE",
"897 431 CURVE SMOOTH",
"897 510 OFFCURVE",
"817 582 OFFCURVE",
"621 582 CURVE SMOOTH",
"378 582 OFFCURVE",
"197 464 OFFCURVE",
"164 360 CURVE SMOOTH",
"158 340 OFFCURVE",
"155 322 OFFCURVE",
"155 306 CURVE SMOOTH",
"155 243 OFFCURVE",
"198 208 OFFCURVE",
"259 208 CURVE SMOOTH",
"338 208 OFFCURVE",
"444 267 OFFCURVE",
"521 402 CURVE SMOOTH",
"523 405 OFFCURVE",
"523 408 OFFCURVE",
"523 411 CURVE SMOOTH",
"523 420 OFFCURVE",
"516 426 OFFCURVE",
"508 426 CURVE SMOOTH",
"502 426 OFFCURVE",
"496 424 OFFCURVE",
"492 417 CURVE SMOOTH",
"423 294 OFFCURVE",
"325 244 OFFCURVE",
"263 244 CURVE SMOOTH",
"220 244 OFFCURVE",
"191 265 OFFCURVE",
"191 308 CURVE SMOOTH",
"191 320 OFFCURVE",
"193 334 OFFCURVE",
"198 350 CURVE SMOOTH",
"224 433 OFFCURVE",
"385 546 OFFCURVE",
"621 546 CURVE SMOOTH",
"792 546 OFFCURVE",
"860 490 OFFCURVE",
"860 430 CURVE SMOOTH",
"860 351 OFFCURVE",
"750 262 OFFCURVE",
"607 262 CURVE SMOOTH",
"596 262 OFFCURVE",
"581 263 OFFCURVE",
"569 264 CURVE SMOOTH",
"561 264 OFFCURVE",
"549 258 OFFCURVE",
"549 246 CURVE SMOOTH",
"548 178 OFFCURVE",
"574 41 OFFCURVE",
"631 -45 CURVE SMOOTH",
"665 -96 OFFCURVE",
"710 -116 OFFCURVE",
"757 -116 CURVE SMOOTH"
);
}
);
};
layerId = "466AD7DC-B026-4005-940F-6404FDF7EB07";
paths = (
{
closed = 1;
nodes = (
"340 -60 OFFCURVE",
"433 68 OFFCURVE",
"525 200 CURVE SMOOTH",
"572 267 LINE SMOOTH",
"635 357 OFFCURVE",
"709 464 OFFCURVE",
"790 531 CURVE SMOOTH",
"823 560 OFFCURVE",
"853 574 OFFCURVE",
"874 574 CURVE SMOOTH",
"884 574 OFFCURVE",
"888 579 OFFCURVE",
"888 586 CURVE SMOOTH",
"888 595 OFFCURVE",
"880 605 OFFCURVE",
"867 605 CURVE SMOOTH",
"763 605 OFFCURVE",
"639 428 OFFCURVE",
"524 266 CURVE SMOOTH",
"480 204 LINE SMOOTH",
"409 104 OFFCURVE",
"320 -24 OFFCURVE",
"177 -24 CURVE SMOOTH",
"124 -24 OFFCURVE",
"103 -2 OFFCURVE",
"103 22 CURVE SMOOTH",
"103 50 OFFCURVE",
"129 79 OFFCURVE",
"168 79 CURVE SMOOTH",
"175 79 OFFCURVE",
"184 77 OFFCURVE",
"191 77 CURVE SMOOTH",
"200 77 OFFCURVE",
"205 83 OFFCURVE",
"205 90 CURVE SMOOTH",
"205 98 OFFCURVE",
"199 107 OFFCURVE",
"188 109 CURVE SMOOTH",
"178 111 OFFCURVE",
"169 112 OFFCURVE",
"161 112 CURVE SMOOTH",
"101 112 OFFCURVE",
"65 67 OFFCURVE",
"65 23 CURVE SMOOTH",
"65 -20 OFFCURVE",
"99 -60 OFFCURVE",
"179 -60 CURVE SMOOTH"
);
},
{
closed = 1;
nodes = (
"827 -116 OFFCURVE",
"898 -67 OFFCURVE",
"922 -2 CURVE SMOOTH",
"927 11 OFFCURVE",
"915 22 OFFCURVE",
"903 22 CURVE SMOOTH",
"897 22 OFFCURVE",
"891 19 OFFCURVE",
"888 11 CURVE SMOOTH",
"866 -45 OFFCURVE",
"814 -83 OFFCURVE",
"760 -83 CURVE SMOOTH",
"725 -83 OFFCURVE",
"690 -66 OFFCURVE",
"665 -28 CURVE SMOOTH",
"616 45 OFFCURVE",
"590 169 OFFCURVE",
"586 226 CURVE",
"765 219 OFFCURVE",
"897 331 OFFCURVE",
"897 431 CURVE SMOOTH",
"897 510 OFFCURVE",
"817 582 OFFCURVE",
"621 582 CURVE SMOOTH",
"378 582 OFFCURVE",
"197 464 OFFCURVE",
"164 360 CURVE SMOOTH",
"158 340 OFFCURVE",
"155 322 OFFCURVE",
"155 306 CURVE SMOOTH",
"155 243 OFFCURVE",
"198 208 OFFCURVE",
"259 208 CURVE SMOOTH",
"338 208 OFFCURVE",
"444 267 OFFCURVE",
"521 402 CURVE SMOOTH",
"523 405 OFFCURVE",
"523 408 OFFCURVE",
"523 411 CURVE SMOOTH",
"523 420 OFFCURVE",
"516 426 OFFCURVE",
"508 426 CURVE SMOOTH",
"502 426 OFFCURVE",
"496 424 OFFCURVE",
"492 417 CURVE SMOOTH",
"423 294 OFFCURVE",
"325 244 OFFCURVE",
"263 244 CURVE SMOOTH",
"220 244 OFFCURVE",
"191 265 OFFCURVE",
"191 308 CURVE SMOOTH",
"191 320 OFFCURVE",
"193 334 OFFCURVE",
"198 350 CURVE SMOOTH",
"224 433 OFFCURVE",
"385 546 OFFCURVE",
"621 546 CURVE SMOOTH",
"792 546 OFFCURVE",
"860 490 OFFCURVE",
"860 430 CURVE SMOOTH",
"860 351 OFFCURVE",
"750 262 OFFCURVE",
"607 262 CURVE SMOOTH",
"596 262 OFFCURVE",
"581 263 OFFCURVE",
"569 264 CURVE SMOOTH",
"561 264 OFFCURVE",
"549 258 OFFCURVE",
"549 246 CURVE SMOOTH",
"548 178 OFFCURVE",
"574 41 OFFCURVE",
"631 -45 CURVE SMOOTH",
"665 -96 OFFCURVE",
"710 -116 OFFCURVE",
"757 -116 CURVE SMOOTH"
);
}
);
width = 820;
}
);
note = R;
unicode = 0052;
},
{
glyphname = S;
lastChange = "2021-10-12 06:39:44 +0000";
layers = (
{
anchors = (
{
name = bottom;
position = "{367, -115}";
},
{
name = top;
position = "{724, 597}";
}
);
background = {
paths = (
{
closed = 1;
nodes = (
"573 -119 OFFCURVE",
"764 -32 OFFCURVE",
"764 127 CURVE SMOOTH",
"764 236 OFFCURVE",
"667 280 OFFCURVE",
"580 319 CURVE SMOOTH",
"534 339 OFFCURVE",
"453 374 OFFCURVE",
"453 438 CURVE SMOOTH",
"453 493 OFFCURVE",
"534 559 OFFCURVE",
"662 559 CURVE SMOOTH",
"759 559 OFFCURVE",
"797 534 OFFCURVE",
"797 506 CURVE SMOOTH",
"797 473 OFFCURVE",
"745 436 OFFCURVE",
"678 427 CURVE SMOOTH",
"669 425 OFFCURVE",
"665 420 OFFCURVE",
"665 413 CURVE SMOOTH",
"665 403 OFFCURVE",
"674 392 OFFCURVE",
"689 394 CURVE SMOOTH",
"780 406 OFFCURVE",
"839 459 OFFCURVE",
"839 509 CURVE SMOOTH",
"839 555 OFFCURVE",
"788 597 OFFCURVE",
"662 597 CURVE SMOOTH",
"523 597 OFFCURVE",
"410 519 OFFCURVE",
"410 435 CURVE SMOOTH",
"410 388 OFFCURVE",
"448 337 OFFCURVE",
"548 292 CURVE SMOOTH",
"644 248 OFFCURVE",
"726 210 OFFCURVE",
"726 127 CURVE SMOOTH",
"726 5 OFFCURVE",
"570 -81 OFFCURVE",
"393 -81 CURVE SMOOTH",
"260 -81 OFFCURVE",
"151 -26 OFFCURVE",
"151 90 CURVE SMOOTH",
"151 141 OFFCURVE",
"206 251 OFFCURVE",
"318 275 CURVE SMOOTH",
"331 278 OFFCURVE",
"338 287 OFFCURVE",
"338 296 CURVE SMOOTH",
"338 305 OFFCURVE",
"331 313 OFFCURVE",
"317 313 CURVE SMOOTH",
"315 313 OFFCURVE",
"312 313 OFFCURVE",
"309 312 CURVE SMOOTH",
"171 286 OFFCURVE",
"113 155 OFFCURVE",
"113 90 CURVE SMOOTH",
"113 -61 OFFCURVE",
"255 -119 OFFCURVE",
"393 -119 CURVE SMOOTH"
);
}
);
};
layerId = "466AD7DC-B026-4005-940F-6404FDF7EB07";
paths = (
{
closed = 1;
nodes = (
"573 -119 OFFCURVE",
"764 -32 OFFCURVE",
"764 127 CURVE SMOOTH",
"764 236 OFFCURVE",
"667 280 OFFCURVE",
"580 319 CURVE SMOOTH",
"534 339 OFFCURVE",
"453 374 OFFCURVE",
"453 438 CURVE SMOOTH",
"453 493 OFFCURVE",
"534 559 OFFCURVE",
"662 559 CURVE SMOOTH",
"759 559 OFFCURVE",
"797 534 OFFCURVE",
"797 506 CURVE SMOOTH",
"797 473 OFFCURVE",
"745 436 OFFCURVE",
"678 427 CURVE SMOOTH",
"669 425 OFFCURVE",
"665 420 OFFCURVE",
"665 413 CURVE SMOOTH",
"665 404 OFFCURVE",
"673 394 OFFCURVE",
"685 394 CURVE SMOOTH",
"689 394 LINE",
"780 406 OFFCURVE",
"839 459 OFFCURVE",
"839 509 CURVE SMOOTH",
"839 555 OFFCURVE",
"788 597 OFFCURVE",
"662 597 CURVE SMOOTH",
"523 597 OFFCURVE",
"410 519 OFFCURVE",
"410 435 CURVE SMOOTH",
"410 388 OFFCURVE",
"448 337 OFFCURVE",
"548 292 CURVE SMOOTH",
"644 248 OFFCURVE",
"726 210 OFFCURVE",
"726 127 CURVE SMOOTH",
"726 5 OFFCURVE",
"570 -81 OFFCURVE",
"393 -81 CURVE SMOOTH",
"260 -81 OFFCURVE",
"151 -26 OFFCURVE",
"151 90 CURVE SMOOTH",
"151 141 OFFCURVE",
"206 251 OFFCURVE",
"318 275 CURVE SMOOTH",
"331 278 OFFCURVE",
"338 287 OFFCURVE",
"338 296 CURVE SMOOTH",
"338 305 OFFCURVE",
"331 313 OFFCURVE",
"317 313 CURVE SMOOTH",
"315 313 OFFCURVE",
"312 313 OFFCURVE",
"309 312 CURVE SMOOTH",
"171 286 OFFCURVE",
"113 155 OFFCURVE",
"113 90 CURVE SMOOTH",
"113 -61 OFFCURVE",
"255 -119 OFFCURVE",
"393 -119 CURVE SMOOTH"
);
}
);
width = 805;
}
);
note = S;
unicode = 0053;
},
{
glyphname = Germandbls;
lastChange = "2021-10-12 06:39:44 +0000";
layers = (
{
background = {
paths = (
{
closed = 1;
nodes = (
"421 213 OFFCURVE",
"433 169 OFFCURVE",
"433 127 CURVE SMOOTH",
"433 86 OFFCURVE",
"421 47 OFFCURVE",
"386 14 CURVE SMOOTH",
"354 -15 OFFCURVE",
"303 -31 OFFCURVE",
"262 -31 CURVE SMOOTH",
"226 -31 OFFCURVE",
"198 -19 OFFCURVE",
"198 8 CURVE SMOOTH",
"198 12 OFFCURVE",
"199 17 OFFCURVE",
"201 23 CURVE SMOOTH",
"203 29 OFFCURVE",
"204 35 OFFCURVE",
"204 40 CURVE SMOOTH",
"204 55 OFFCURVE",
"197 65 OFFCURVE",
"188 65 CURVE SMOOTH",
"181 65 OFFCURVE",
"173 58 OFFCURVE",
"164 43 CURVE SMOOTH",
"160 36 OFFCURVE",
"158 25 OFFCURVE",
"158 13 CURVE SMOOTH",
"158 -14 OFFCURVE",
"169 -46 OFFCURVE",
"201 -57 CURVE SMOOTH",
"217 -63 OFFCURVE",
"237 -66 OFFCURVE",
"260 -66 CURVE SMOOTH",
"310 -66 OFFCURVE",
"371 -50 OFFCURVE",
"412 -17 CURVE SMOOTH",
"461 26 OFFCURVE",
"479 70 OFFCURVE",
"479 125 CURVE SMOOTH",
"479 157 OFFCURVE",
"472 194 OFFCURVE",
"462 236 CURVE SMOOTH",
"454 261 OFFCURVE",
"444 287 OFFCURVE",
"432 315 CURVE",
"500 342 OFFCURVE",
"539 356 OFFCURVE",
"580 385 CURVE SMOOTH",
"655 438 OFFCURVE",
"683 490 OFFCURVE",
"683 531 CURVE SMOOTH",
"683 588 OFFCURVE",
"630 626 OFFCURVE",
"575 626 CURVE SMOOTH",
"380 626 OFFCURVE",
"296 406 OFFCURVE",
"202 248 CURVE SMOOTH",
"156 168 OFFCURVE",
"82 23 OFFCURVE",
"-1 -26 CURVE SMOOTH",
"-20 -37 OFFCURVE",
"-53 -47 OFFCURVE",
"-73 -47 CURVE SMOOTH",
"-78 -47 OFFCURVE",
"-82 -46 OFFCURVE",
"-85 -45 CURVE SMOOTH",
"-89 -44 OFFCURVE",
"-94 -43 OFFCURVE",
"-97 -43 CURVE SMOOTH",
"-113 -43 OFFCURVE",
"-121 -53 OFFCURVE",
"-121 -63 CURVE SMOOTH",
"-121 -69 OFFCURVE",
"-118 -74 OFFCURVE",
"-112 -77 CURVE SMOOTH",
"-99 -84 OFFCURVE",
"-85 -86 OFFCURVE",
"-70 -86 CURVE SMOOTH",
"-35 -86 OFFCURVE",
"1 -72 OFFCURVE",
"26 -59 CURVE SMOOTH",
"116 -12 OFFCURVE",
"164 104 OFFCURVE",
"215 190 CURVE SMOOTH",
"293 324 OFFCURVE",
"400 589 OFFCURVE",
"560 589 CURVE SMOOTH",
"608 589 OFFCURVE",
"633 565 OFFCURVE",
"633 531 CURVE SMOOTH",
"633 492 OFFCURVE",
"600 440 OFFCURVE",
"532 397 CURVE SMOOTH",
"501 378 OFFCURVE",
"434 348 OFFCURVE",
"397 340 CURVE",
"389 335 OFFCURVE",
"386 329 OFFCURVE",
"386 321 CURVE SMOOTH",
"386 305 OFFCURVE",
"401 282 OFFCURVE",
"409 254 CURVE SMOOTH"
);
}
);
};
layerId = "466AD7DC-B026-4005-940F-6404FDF7EB07";
paths = (
{
closed = 1;
nodes = (
"-35 -86 OFFCURVE",
"1 -72 OFFCURVE",
"26 -59 CURVE SMOOTH",
"116 -12 OFFCURVE",
"164 104 OFFCURVE",
"215 190 CURVE SMOOTH",
"293 324 OFFCURVE",
"400 589 OFFCURVE",
"560 589 CURVE SMOOTH",
"608 589 OFFCURVE",
"633 565 OFFCURVE",
"633 531 CURVE SMOOTH",
"633 492 OFFCURVE",
"600 440 OFFCURVE",
"532 397 CURVE SMOOTH",
"501 378 OFFCURVE",
"434 348 OFFCURVE",
"397 340 CURVE",
"389 335 OFFCURVE",
"386 329 OFFCURVE",
"386 321 CURVE SMOOTH",
"386 305 OFFCURVE",
"401 282 OFFCURVE",
"409 254 CURVE SMOOTH",
"421 213 OFFCURVE",
"433 169 OFFCURVE",
"433 127 CURVE SMOOTH",
"433 86 OFFCURVE",
"421 47 OFFCURVE",
"386 14 CURVE SMOOTH",
"354 -15 OFFCURVE",
"303 -31 OFFCURVE",
"262 -31 CURVE SMOOTH",
"226 -31 OFFCURVE",
"198 -19 OFFCURVE",
"198 8 CURVE SMOOTH",
"198 12 OFFCURVE",
"199 17 OFFCURVE",
"201 23 CURVE SMOOTH",
"203 29 OFFCURVE",
"204 35 OFFCURVE",
"204 40 CURVE SMOOTH",
"204 55 OFFCURVE",
"197 65 OFFCURVE",
"188 65 CURVE SMOOTH",
"181 65 OFFCURVE",
"173 58 OFFCURVE",
"164 43 CURVE SMOOTH",
"160 36 OFFCURVE",
"158 25 OFFCURVE",
"158 13 CURVE SMOOTH",
"158 -14 OFFCURVE",
"169 -46 OFFCURVE",
"201 -57 CURVE SMOOTH",
"217 -63 OFFCURVE",
"237 -66 OFFCURVE",
"260 -66 CURVE SMOOTH",
"310 -66 OFFCURVE",
"371 -50 OFFCURVE",
"412 -17 CURVE SMOOTH",
"461 26 OFFCURVE",
"479 70 OFFCURVE",
"479 125 CURVE SMOOTH",
"479 157 OFFCURVE",
"472 194 OFFCURVE",
"462 236 CURVE SMOOTH",
"454 261 OFFCURVE",
"444 287 OFFCURVE",
"432 315 CURVE",
"500 342 OFFCURVE",
"539 356 OFFCURVE",
"580 385 CURVE SMOOTH",
"655 438 OFFCURVE",
"683 490 OFFCURVE",
"683 531 CURVE SMOOTH",
"683 588 OFFCURVE",
"630 626 OFFCURVE",
"575 626 CURVE SMOOTH",
"380 626 OFFCURVE",
"296 406 OFFCURVE",
"202 248 CURVE SMOOTH",
"156 168 OFFCURVE",
"82 23 OFFCURVE",
"-1 -26 CURVE SMOOTH",
"-20 -37 OFFCURVE",
"-53 -47 OFFCURVE",
"-73 -47 CURVE SMOOTH",
"-78 -47 OFFCURVE",
"-82 -46 OFFCURVE",
"-85 -45 CURVE SMOOTH",
"-89 -44 OFFCURVE",
"-94 -43 OFFCURVE",
"-97 -43 CURVE SMOOTH",
"-113 -43 OFFCURVE",
"-121 -53 OFFCURVE",
"-121 -63 CURVE SMOOTH",
"-121 -69 OFFCURVE",
"-118 -74 OFFCURVE",
"-112 -77 CURVE SMOOTH",
"-99 -84 OFFCURVE",
"-85 -86 OFFCURVE",
"-70 -86 CURVE SMOOTH"
);
}
);
width = 497;
}
);
unicode = 1E9E;
},
{
glyphname = Schwa;
lastChange = "2021-10-12 06:39:44 +0000";
layers = (
{
background = {
paths = (
{
closed = 1;
nodes = (
"532 225 OFFCURVE",
"534 221 OFFCURVE",
"538 221 CURVE SMOOTH",
"546 221 OFFCURVE",
"561 244 OFFCURVE",
"561 266 CURVE SMOOTH",
"561 320 OFFCURVE",
"517 343 OFFCURVE",
"455 343 CURVE SMOOTH",
"304 343 OFFCURVE",
"43 205 OFFCURVE",
"43 45 CURVE SMOOTH",
"43 -31 OFFCURVE",
"99 -65 OFFCURVE",
"158 -65 CURVE SMOOTH",
"381 -65 OFFCURVE",
"648 245 OFFCURVE",
"648 475 CURVE SMOOTH",
"648 606 OFFCURVE",
"528 626 OFFCURVE",
"463 626 CURVE SMOOTH",
"353 626 OFFCURVE",
"251 571 OFFCURVE",
"217 541 CURVE SMOOTH",
"210 534 OFFCURVE",
"207 526 OFFCURVE",
"207 519 CURVE SMOOTH",
"207 510 OFFCURVE",
"211 504 OFFCURVE",
"218 504 CURVE SMOOTH",
"221 504 OFFCURVE",
"225 506 OFFCURVE",
"230 510 CURVE SMOOTH",
"258 533 OFFCURVE",
"360 584 OFFCURVE",
"460 584 CURVE SMOOTH",
"530 584 OFFCURVE",
"606 557 OFFCURVE",
"606 475 CURVE SMOOTH",
"606 274 OFFCURVE",
"344 -26 OFFCURVE",
"160 -26 CURVE SMOOTH",
"109 -26 OFFCURVE",
"82 8 OFFCURVE",
"82 45 CURVE SMOOTH",
"82 174 OFFCURVE",
"312 303 OFFCURVE",
"443 303 CURVE SMOOTH",
"495 303 OFFCURVE",
"532 282 OFFCURVE",
"532 233 CURVE SMOOTH"
);
}
);
};
layerId = "466AD7DC-B026-4005-940F-6404FDF7EB07";
paths = (
{
closed = 1;
nodes = (
"381 -65 OFFCURVE",
"648 245 OFFCURVE",
"648 475 CURVE SMOOTH",
"648 606 OFFCURVE",
"528 626 OFFCURVE",
"463 626 CURVE SMOOTH",
"353 626 OFFCURVE",
"251 571 OFFCURVE",
"217 541 CURVE SMOOTH",
"210 534 OFFCURVE",
"207 526 OFFCURVE",
"207 519 CURVE SMOOTH",
"207 510 OFFCURVE",
"211 504 OFFCURVE",
"218 504 CURVE SMOOTH",
"221 504 OFFCURVE",
"225 506 OFFCURVE",
"230 510 CURVE SMOOTH",
"258 533 OFFCURVE",
"360 584 OFFCURVE",
"460 584 CURVE SMOOTH",
"530 584 OFFCURVE",
"606 557 OFFCURVE",
"606 475 CURVE SMOOTH",
"606 274 OFFCURVE",
"344 -26 OFFCURVE",
"160 -26 CURVE SMOOTH",
"109 -26 OFFCURVE",
"82 8 OFFCURVE",
"82 45 CURVE SMOOTH",
"82 174 OFFCURVE",
"312 303 OFFCURVE",
"443 303 CURVE SMOOTH",
"495 303 OFFCURVE",
"532 282 OFFCURVE",
"532 233 CURVE SMOOTH",
"532 225 OFFCURVE",
"534 221 OFFCURVE",
"538 221 CURVE SMOOTH",
"546 221 OFFCURVE",
"561 244 OFFCURVE",
"561 266 CURVE SMOOTH",
"561 320 OFFCURVE",
"517 343 OFFCURVE",
"455 343 CURVE SMOOTH",
"304 343 OFFCURVE",
"43 205 OFFCURVE",
"43 45 CURVE SMOOTH",
"43 -31 OFFCURVE",
"99 -65 OFFCURVE",
"158 -65 CURVE SMOOTH"
);
}
);
width = 600;
}
);
unicode = 018F;
},
{
glyphname = T;
lastChange = "2021-10-12 06:39:44 +0000";
layers = (
{
anchors = (
{
name = bottom;
position = "{405, -123}";
},
{
name = center;
position = "{783, 280}";
},
{
name = top;
position = "{1004, 567}";
}
);
background = {
paths = (
{
closed = 1;
nodes = (
"680 -130 OFFCURVE",
"781 253 OFFCURVE",
"925 469 CURVE SMOOTH",
"954 513 OFFCURVE",
"984 529 OFFCURVE",
"1005 529 CURVE SMOOTH",
"1011 529 OFFCURVE",
"1016 528 OFFCURVE",
"1020 525 CURVE SMOOTH",
"1024 523 OFFCURVE",
"1027 521 OFFCURVE",
"1031 521 CURVE SMOOTH",
"1041 521 OFFCURVE",
"1049 531 OFFCURVE",
"1049 542 CURVE SMOOTH",
"1049 547 OFFCURVE",
"1046 553 OFFCURVE",
"1040 557 CURVE SMOOTH",
"1029 564 OFFCURVE",
"1016 567 OFFCURVE",
"1004 567 CURVE SMOOTH",
"964 567 OFFCURVE",
"922 534 OFFCURVE",
"893 490 CURVE SMOOTH",
"759 289 OFFCURVE",
"654 -92 OFFCURVE",
"355 -92 CURVE SMOOTH",
"202 -92 OFFCURVE",
"135 -5 OFFCURVE",
"135 84 CURVE SMOOTH",
"135 161 OFFCURVE",
"186 239 OFFCURVE",
"278 259 CURVE SMOOTH",
"289 262 OFFCURVE",
"293 270 OFFCURVE",
"293 278 CURVE SMOOTH",
"293 289 OFFCURVE",
"284 299 OFFCURVE",
"270 296 CURVE SMOOTH",
"162 272 OFFCURVE",
"97 173 OFFCURVE",
"97 77 CURVE SMOOTH",
"97 -28 OFFCURVE",
"174 -130 OFFCURVE",
"355 -130 CURVE SMOOTH"
);
},
{
closed = 1;
nodes = (
"556 210 OFFCURVE",
"635 316 OFFCURVE",
"652 395 CURVE SMOOTH",
"655 409 OFFCURVE",
"644 417 OFFCURVE",
"634 417 CURVE SMOOTH",
"626 417 OFFCURVE",
"619 413 OFFCURVE",
"617 403 CURVE SMOOTH",
"601 331 OFFCURVE",
"531 244 OFFCURVE",
"443 244 CURVE SMOOTH",
"377 244 OFFCURVE",
"346 285 OFFCURVE",
"346 337 CURVE SMOOTH",
"346 419 OFFCURVE",
"423 527 OFFCURVE",
"560 539 CURVE SMOOTH",
"572 540 OFFCURVE",
"584 541 OFFCURVE",
"595 541 CURVE SMOOTH",
"683 541 OFFCURVE",
"767 513 OFFCURVE",
"848 481 CURVE SMOOTH",
"903 461 OFFCURVE",
"1034 402 OFFCURVE",
"1130 402 CURVE SMOOTH",
"1175 402 OFFCURVE",
"1212 415 OFFCURVE",
"1231 450 CURVE SMOOTH",
"1235 458 OFFCURVE",
"1237 465 OFFCURVE",
"1237 471 CURVE SMOOTH",
"1237 486 OFFCURVE",
"1225 494 OFFCURVE",
"1215 494 CURVE SMOOTH",
"1206 494 OFFCURVE",
"1199 489 OFFCURVE",
"1199 480 CURVE SMOOTH",
"1199 478 OFFCURVE",
"1200 475 OFFCURVE",
"1201 472 CURVE",
"1196 445 OFFCURVE",
"1140 436 OFFCURVE",
"1122 437 CURVE SMOOTH",
"949 449 OFFCURVE",
"802 577 OFFCURVE",
"600 577 CURVE SMOOTH",
"586 577 OFFCURVE",
"571 576 OFFCURVE",
"557 575 CURVE SMOOTH",
"397 561 OFFCURVE",
"312 437 OFFCURVE",
"312 336 CURVE SMOOTH",
"312 264 OFFCURVE",
"356 205 OFFCURVE",
"449 208 CURVE SMOOTH"
);
}
);
};
layerId = "466AD7DC-B026-4005-940F-6404FDF7EB07";
paths = (
{
closed = 1;
nodes = (
"680 -130 OFFCURVE",
"781 253 OFFCURVE",
"925 469 CURVE SMOOTH",
"954 513 OFFCURVE",
"984 529 OFFCURVE",
"1005 529 CURVE SMOOTH",
"1011 529 OFFCURVE",
"1016 528 OFFCURVE",
"1020 525 CURVE SMOOTH",
"1024 523 OFFCURVE",
"1027 521 OFFCURVE",
"1031 521 CURVE SMOOTH",
"1041 521 OFFCURVE",
"1049 531 OFFCURVE",
"1049 542 CURVE SMOOTH",
"1049 547 OFFCURVE",
"1046 553 OFFCURVE",
"1040 557 CURVE SMOOTH",
"1029 564 OFFCURVE",
"1016 567 OFFCURVE",
"1004 567 CURVE SMOOTH",
"964 567 OFFCURVE",
"922 534 OFFCURVE",
"893 490 CURVE SMOOTH",
"759 289 OFFCURVE",
"654 -92 OFFCURVE",
"355 -92 CURVE SMOOTH",
"202 -92 OFFCURVE",
"135 -5 OFFCURVE",
"135 84 CURVE SMOOTH",
"135 161 OFFCURVE",
"186 239 OFFCURVE",
"278 259 CURVE SMOOTH",
"289 262 OFFCURVE",
"293 270 OFFCURVE",
"293 278 CURVE SMOOTH",
"293 288 OFFCURVE",
"286 297 OFFCURVE",
"275 297 CURVE SMOOTH",
"273 297 OFFCURVE",
"272 296 OFFCURVE",
"270 296 CURVE",
"162 272 OFFCURVE",
"97 173 OFFCURVE",
"97 77 CURVE SMOOTH",
"97 -28 OFFCURVE",
"174 -130 OFFCURVE",
"355 -130 CURVE SMOOTH"
);
},
{
closed = 1;
nodes = (
"556 210 OFFCURVE",
"635 316 OFFCURVE",
"652 395 CURVE SMOOTH",
"655 409 OFFCURVE",
"644 417 OFFCURVE",
"634 417 CURVE SMOOTH",
"626 417 OFFCURVE",
"619 413 OFFCURVE",
"617 403 CURVE SMOOTH",
"601 331 OFFCURVE",
"531 244 OFFCURVE",
"443 244 CURVE SMOOTH",
"377 244 OFFCURVE",
"346 285 OFFCURVE",
"346 337 CURVE SMOOTH",
"346 419 OFFCURVE",
"423 527 OFFCURVE",
"560 539 CURVE SMOOTH",
"572 540 OFFCURVE",
"584 541 OFFCURVE",
"595 541 CURVE SMOOTH",
"683 541 OFFCURVE",
"767 513 OFFCURVE",
"848 481 CURVE SMOOTH",
"903 461 OFFCURVE",
"1034 402 OFFCURVE",
"1130 402 CURVE SMOOTH",
"1175 402 OFFCURVE",
"1212 415 OFFCURVE",
"1231 450 CURVE SMOOTH",
"1235 458 OFFCURVE",
"1237 465 OFFCURVE",
"1237 471 CURVE SMOOTH",
"1237 486 OFFCURVE",
"1225 494 OFFCURVE",
"1215 494 CURVE SMOOTH",
"1206 494 OFFCURVE",
"1199 489 OFFCURVE",
"1199 480 CURVE SMOOTH",
"1199 478 OFFCURVE",
"1200 475 OFFCURVE",
"1201 472 CURVE",
"1196 445 OFFCURVE",
"1140 436 OFFCURVE",
"1122 437 CURVE SMOOTH",
"949 449 OFFCURVE",
"802 577 OFFCURVE",
"600 577 CURVE SMOOTH",
"586 577 OFFCURVE",
"571 576 OFFCURVE",
"557 575 CURVE SMOOTH",
"397 561 OFFCURVE",
"312 437 OFFCURVE",
"312 336 CURVE SMOOTH",
"312 264 OFFCURVE",
"356 205 OFFCURVE",
"449 208 CURVE SMOOTH"
);
}
);
width = 837;
}
);
note = T;
unicode = 0054;
},
{
glyphname = U;
lastChange = "2021-10-12 06:39:44 +0000";
layers = (
{
anchors = (
{
name = bottom;
position = "{562, -56}";
},
{
name = ogonek;
position = "{719, -148}";
},
{
name = top;
position = "{850, 499}";
},
{
name = topright;
position = "{877, 405}";
}
);
background = {
paths = (
{
closed = 1;
nodes = (
"784 -169 OFFCURVE",
"840 -139 OFFCURVE",
"868 -107 CURVE SMOOTH",
"871 -104 OFFCURVE",
"873 -100 OFFCURVE",
"873 -96 CURVE SMOOTH",
"873 -86 OFFCURVE",
"865 -77 OFFCURVE",
"856 -77 CURVE SMOOTH",
"852 -77 OFFCURVE",
"848 -79 OFFCURVE",
"844 -83 CURVE SMOOTH",
"826 -104 OFFCURVE",
"775 -134 OFFCURVE",
"742 -134 CURVE SMOOTH",
"719 -134 OFFCURVE",
"701 -119 OFFCURVE",
"703 -81 CURVE SMOOTH",
"710 60 OFFCURVE",
"831 259 OFFCURVE",
"907 387 CURVE",
"908 390 OFFCURVE",
"909 393 OFFCURVE",
"909 395 CURVE SMOOTH",
"909 405 OFFCURVE",
"901 413 OFFCURVE",
"891 413 CURVE SMOOTH",
"886 413 OFFCURVE",
"881 411 OFFCURVE",
"877 405 CURVE SMOOTH",
"799 279 OFFCURVE",
"778 237 OFFCURVE",
"714 156 CURVE SMOOTH",
"671 100 OFFCURVE",
"562 -9 OFFCURVE",
"502 -9 CURVE SMOOTH",
"485 -9 OFFCURVE",
"475 3 OFFCURVE",
"475 30 CURVE SMOOTH",
"475 94 OFFCURVE",
"577 248 OFFCURVE",
"591 270 CURVE SMOOTH",
"648 354 OFFCURVE",
"699 434 OFFCURVE",
"699 514 CURVE SMOOTH",
"699 596 OFFCURVE",
"640 633 OFFCURVE",
"570 633 CURVE SMOOTH",
"329 633 OFFCURVE",
"140 380 OFFCURVE",
"140 221 CURVE SMOOTH",
"140 149 OFFCURVE",
"178 96 OFFCURVE",
"269 96 CURVE SMOOTH",
"396 96 OFFCURVE",
"470 227 OFFCURVE",
"470 308 CURVE SMOOTH",
"470 354 OFFCURVE",
"444 388 OFFCURVE",
"392 388 CURVE SMOOTH",
"379 388 OFFCURVE",
"371 378 OFFCURVE",
"371 368 CURVE SMOOTH",
"371 361 OFFCURVE",
"375 355 OFFCURVE",
"386 355 CURVE SMOOTH",
"413 355 OFFCURVE",
"434 334 OFFCURVE",
"434 307 CURVE SMOOTH",
"434 247 OFFCURVE",
"372 132 OFFCURVE",
"269 132 CURVE SMOOTH",
"204 132 OFFCURVE",
"175 171 OFFCURVE",
"175 223 CURVE SMOOTH",
"175 360 OFFCURVE",
"354 598 OFFCURVE",
"570 598 CURVE SMOOTH",
"610 598 OFFCURVE",
"662 578 OFFCURVE",
"662 511 CURVE SMOOTH",
"662 432 OFFCURVE",
"611 362 OFFCURVE",
"561 288 CURVE SMOOTH",
"533 247 OFFCURVE",
"440 107 OFFCURVE",
"440 20 CURVE SMOOTH",
"440 -26 OFFCURVE",
"470 -44 OFFCURVE",
"496 -44 CURVE SMOOTH",
"583 -44 OFFCURVE",
"669 53 OFFCURVE",
"723 117 CURVE",
"689 41 OFFCURVE",
"667 -35 OFFCURVE",
"667 -87 CURVE SMOOTH",
"667 -147 OFFCURVE",
"699 -169 OFFCURVE",
"739 -169 CURVE SMOOTH"
);
}
);
};
layerId = "466AD7DC-B026-4005-940F-6404FDF7EB07";
paths = (
{
closed = 1;
nodes = (
"784 -169 OFFCURVE",
"840 -139 OFFCURVE",
"868 -107 CURVE SMOOTH",
"871 -104 OFFCURVE",
"873 -100 OFFCURVE",
"873 -96 CURVE SMOOTH",
"873 -86 OFFCURVE",
"865 -77 OFFCURVE",
"856 -77 CURVE SMOOTH",
"852 -77 OFFCURVE",
"848 -79 OFFCURVE",
"844 -83 CURVE SMOOTH",
"826 -104 OFFCURVE",
"775 -134 OFFCURVE",
"742 -134 CURVE SMOOTH",
"719 -134 OFFCURVE",
"701 -119 OFFCURVE",
"703 -81 CURVE SMOOTH",
"710 60 OFFCURVE",
"831 259 OFFCURVE",
"907 387 CURVE",
"908 390 OFFCURVE",
"909 393 OFFCURVE",
"909 395 CURVE SMOOTH",
"909 405 OFFCURVE",
"901 413 OFFCURVE",
"891 413 CURVE SMOOTH",
"886 413 OFFCURVE",
"881 411 OFFCURVE",
"877 405 CURVE SMOOTH",
"799 279 OFFCURVE",
"778 237 OFFCURVE",
"714 156 CURVE SMOOTH",
"671 100 OFFCURVE",
"562 -9 OFFCURVE",
"502 -9 CURVE SMOOTH",
"485 -9 OFFCURVE",
"475 3 OFFCURVE",
"475 30 CURVE SMOOTH",
"475 94 OFFCURVE",
"577 248 OFFCURVE",
"591 270 CURVE SMOOTH",
"648 354 OFFCURVE",
"699 434 OFFCURVE",
"699 514 CURVE SMOOTH",
"699 596 OFFCURVE",
"640 633 OFFCURVE",
"570 633 CURVE SMOOTH",
"329 633 OFFCURVE",
"140 380 OFFCURVE",
"140 221 CURVE SMOOTH",
"140 149 OFFCURVE",
"178 96 OFFCURVE",
"269 96 CURVE SMOOTH",
"396 96 OFFCURVE",
"470 227 OFFCURVE",
"470 308 CURVE SMOOTH",
"470 354 OFFCURVE",
"444 388 OFFCURVE",
"392 388 CURVE SMOOTH",
"379 388 OFFCURVE",
"371 378 OFFCURVE",
"371 368 CURVE SMOOTH",
"371 361 OFFCURVE",
"375 355 OFFCURVE",
"386 355 CURVE SMOOTH",
"413 355 OFFCURVE",
"434 334 OFFCURVE",
"434 307 CURVE SMOOTH",
"434 247 OFFCURVE",
"372 132 OFFCURVE",
"269 132 CURVE SMOOTH",
"204 132 OFFCURVE",
"175 171 OFFCURVE",
"175 223 CURVE SMOOTH",
"175 360 OFFCURVE",
"354 598 OFFCURVE",
"570 598 CURVE SMOOTH",
"610 598 OFFCURVE",
"662 578 OFFCURVE",
"662 511 CURVE SMOOTH",
"662 432 OFFCURVE",
"611 362 OFFCURVE",
"561 288 CURVE SMOOTH",
"533 247 OFFCURVE",
"440 107 OFFCURVE",
"440 20 CURVE SMOOTH",
"440 -26 OFFCURVE",
"470 -44 OFFCURVE",
"496 -44 CURVE SMOOTH",
"583 -44 OFFCURVE",
"669 53 OFFCURVE",
"723 117 CURVE",
"689 41 OFFCURVE",
"667 -35 OFFCURVE",
"667 -87 CURVE SMOOTH",
"667 -147 OFFCURVE",
"699 -169 OFFCURVE",
"739 -169 CURVE SMOOTH"
);
}
);
width = 829;
}
);
note = U;
unicode = 0055;
},
{
glyphname = V;
lastChange = "2021-10-12 06:39:44 +0000";
layers = (
{
background = {
paths = (
{
closed = 1;
nodes = (
"680 -42 OFFCURVE",
"954 255 OFFCURVE",
"954 443 CURVE SMOOTH",
"954 489 OFFCURVE",
"928 534 OFFCURVE",
"868 534 CURVE SMOOTH",
"859 534 OFFCURVE",
"851 533 OFFCURVE",
"841 531 CURVE SMOOTH",
"830 529 OFFCURVE",
"825 520 OFFCURVE",
"825 512 CURVE SMOOTH",
"825 504 OFFCURVE",
"830 497 OFFCURVE",
"839 497 CURVE SMOOTH",
"847 497 OFFCURVE",
"853 499 OFFCURVE",
"859 499 CURVE SMOOTH",
"897 499 OFFCURVE",
"916 468 OFFCURVE",
"916 437 CURVE SMOOTH",
"916 262 OFFCURVE",
"641 -7 OFFCURVE",
"536 -11 CURVE SMOOTH",
"503 -13 OFFCURVE",
"488 8 OFFCURVE",
"488 39 CURVE SMOOTH",
"488 115 OFFCURVE",
"537 196 OFFCURVE",
"586 270 CURVE SMOOTH",
"642 355 OFFCURVE",
"692 436 OFFCURVE",
"692 516 CURVE SMOOTH",
"692 598 OFFCURVE",
"633 635 OFFCURVE",
"563 635 CURVE SMOOTH",
"322 635 OFFCURVE",
"123 382 OFFCURVE",
"123 220 CURVE SMOOTH",
"123 131 OFFCURVE",
"176 101 OFFCURVE",
"231 101 CURVE SMOOTH",
"333 101 OFFCURVE",
"463 193 OFFCURVE",
"463 310 CURVE SMOOTH",
"463 356 OFFCURVE",
"432 386 OFFCURVE",
"380 386 CURVE SMOOTH",
"368 386 OFFCURVE",
"361 378 OFFCURVE",
"361 370 CURVE SMOOTH",
"361 362 OFFCURVE",
"367 354 OFFCURVE",
"379 354 CURVE SMOOTH",
"406 354 OFFCURVE",
"427 336 OFFCURVE",
"427 309 CURVE SMOOTH",
"427 217 OFFCURVE",
"315 136 OFFCURVE",
"234 136 CURVE SMOOTH",
"196 136 OFFCURVE",
"162 158 OFFCURVE",
"162 222 CURVE SMOOTH",
"162 362 OFFCURVE",
"347 600 OFFCURVE",
"563 600 CURVE SMOOTH",
"603 600 OFFCURVE",
"655 580 OFFCURVE",
"655 513 CURVE SMOOTH",
"655 434 OFFCURVE",
"603 360 OFFCURVE",
"553 286 CURVE SMOOTH",
"507 213 OFFCURVE",
"449 129 OFFCURVE",
"449 36 CURVE SMOOTH",
"449 -15 OFFCURVE",
"475 -51 OFFCURVE",
"538 -48 CURVE SMOOTH"
);
}
);
};
layerId = "466AD7DC-B026-4005-940F-6404FDF7EB07";
paths = (
{
closed = 1;
nodes = (
"680 -42 OFFCURVE",
"954 255 OFFCURVE",
"954 443 CURVE SMOOTH",
"954 489 OFFCURVE",
"928 534 OFFCURVE",
"868 534 CURVE SMOOTH",
"859 534 OFFCURVE",
"851 533 OFFCURVE",
"841 531 CURVE SMOOTH",
"830 529 OFFCURVE",
"825 520 OFFCURVE",
"825 512 CURVE SMOOTH",
"825 504 OFFCURVE",
"830 497 OFFCURVE",
"839 497 CURVE SMOOTH",
"847 497 OFFCURVE",
"853 499 OFFCURVE",
"859 499 CURVE SMOOTH",
"897 499 OFFCURVE",
"916 468 OFFCURVE",
"916 437 CURVE SMOOTH",
"916 262 OFFCURVE",
"641 -7 OFFCURVE",
"536 -11 CURVE SMOOTH",
"503 -13 OFFCURVE",
"488 8 OFFCURVE",
"488 39 CURVE SMOOTH",
"488 115 OFFCURVE",
"537 196 OFFCURVE",
"586 270 CURVE SMOOTH",
"642 355 OFFCURVE",
"692 436 OFFCURVE",
"692 516 CURVE SMOOTH",
"692 598 OFFCURVE",
"633 635 OFFCURVE",
"563 635 CURVE SMOOTH",
"322 635 OFFCURVE",
"123 382 OFFCURVE",
"123 220 CURVE SMOOTH",
"123 131 OFFCURVE",
"176 101 OFFCURVE",
"231 101 CURVE SMOOTH",
"333 101 OFFCURVE",
"463 193 OFFCURVE",
"463 310 CURVE SMOOTH",
"463 356 OFFCURVE",
"432 386 OFFCURVE",
"380 386 CURVE SMOOTH",
"368 386 OFFCURVE",
"361 378 OFFCURVE",
"361 370 CURVE SMOOTH",
"361 362 OFFCURVE",
"367 354 OFFCURVE",
"379 354 CURVE SMOOTH",
"406 354 OFFCURVE",
"427 336 OFFCURVE",
"427 309 CURVE SMOOTH",
"427 217 OFFCURVE",
"315 136 OFFCURVE",
"234 136 CURVE SMOOTH",
"196 136 OFFCURVE",
"162 158 OFFCURVE",
"162 222 CURVE SMOOTH",
"162 362 OFFCURVE",
"347 600 OFFCURVE",
"563 600 CURVE SMOOTH",
"603 600 OFFCURVE",
"655 580 OFFCURVE",
"655 513 CURVE SMOOTH",
"655 434 OFFCURVE",
"603 360 OFFCURVE",
"553 286 CURVE SMOOTH",
"507 213 OFFCURVE",
"449 129 OFFCURVE",
"449 36 CURVE SMOOTH",
"449 -15 OFFCURVE",
"475 -51 OFFCURVE",
"538 -48 CURVE SMOOTH"
);
}
);
width = 879;
}
);
note = V;
unicode = 0056;
},
{
glyphname = W;
lastChange = "2021-10-12 06:39:44 +0000";
layers = (
{
anchors = (
{
name = bottom;
position = "{614, 0}";
},
{
name = top;
position = "{926, 482}";
}
);
background = {
paths = (
{
closed = 1;
nodes = (
"616 -57 OFFCURVE",
"711 52 OFFCURVE",
"782 156 CURVE",
"776 127 OFFCURVE",
"772 98 OFFCURVE",
"772 72 CURVE SMOOTH",
"772 22 OFFCURVE",
"786 -15 OFFCURVE",
"831 -26 CURVE SMOOTH",
"843 -29 OFFCURVE",
"856 -30 OFFCURVE",
"868 -30 CURVE SMOOTH",
"987 -30 OFFCURVE",
"1118 95 OFFCURVE",
"1183 247 CURVE SMOOTH",
"1198 284 OFFCURVE",
"1207 323 OFFCURVE",
"1207 356 CURVE SMOOTH",
"1207 449 OFFCURVE",
"1150 514 OFFCURVE",
"1082 514 CURVE SMOOTH",
"1068 514 OFFCURVE",
"1053 512 OFFCURVE",
"1038 505 CURVE SMOOTH",
"1030 502 OFFCURVE",
"1027 496 OFFCURVE",
"1027 490 CURVE SMOOTH",
"1027 478 OFFCURVE",
"1037 466 OFFCURVE",
"1051 471 CURVE SMOOTH",
"1059 475 OFFCURVE",
"1068 476 OFFCURVE",
"1077 476 CURVE SMOOTH",
"1121 476 OFFCURVE",
"1171 436 OFFCURVE",
"1171 359 CURVE SMOOTH",
"1171 330 OFFCURVE",
"1166 298 OFFCURVE",
"1148 259 CURVE SMOOTH",
"1084 109 OFFCURVE",
"954 0 OFFCURVE",
"875 0 CURVE SMOOTH",
"837 0 OFFCURVE",
"810 26 OFFCURVE",
"810 85 CURVE SMOOTH",
"810 133 OFFCURVE",
"830 207 OFFCURVE",
"870 300 CURVE SMOOTH",
"875 313 OFFCURVE",
"880 324 OFFCURVE",
"882 330 CURVE SMOOTH",
"887 345 OFFCURVE",
"877 354 OFFCURVE",
"866 354 CURVE SMOOTH",
"859 354 OFFCURVE",
"853 351 OFFCURVE",
"849 344 CURVE SMOOTH",
"845 337 OFFCURVE",
"840 324 OFFCURVE",
"835 314 CURVE SMOOTH",
"786 220 OFFCURVE",
"636 -10 OFFCURVE",
"547 -20 CURVE",
"523 -19 OFFCURVE",
"505 -5 OFFCURVE",
"505 33 CURVE SMOOTH",
"505 84 OFFCURVE",
"536 163 OFFCURVE",
"593 256 CURVE SMOOTH",
"661 367 OFFCURVE",
"688 447 OFFCURVE",
"688 507 CURVE SMOOTH",
"688 597 OFFCURVE",
"626 633 OFFCURVE",
"554 633 CURVE SMOOTH",
"306 633 OFFCURVE",
"145 395 OFFCURVE",
"145 241 CURVE SMOOTH",
"145 166 OFFCURVE",
"183 111 OFFCURVE",
"268 111 CURVE SMOOTH",
"400 111 OFFCURVE",
"496 251 OFFCURVE",
"496 345 CURVE SMOOTH",
"496 392 OFFCURVE",
"472 426 OFFCURVE",
"418 426 CURVE SMOOTH",
"407 426 OFFCURVE",
"401 417 OFFCURVE",
"401 408 CURVE SMOOTH",
"401 399 OFFCURVE",
"407 390 OFFCURVE",
"418 390 CURVE SMOOTH",
"447 390 OFFCURVE",
"459 369 OFFCURVE",
"459 343 CURVE SMOOTH",
"459 272 OFFCURVE",
"376 148 OFFCURVE",
"268 148 CURVE SMOOTH",
"209 148 OFFCURVE",
"182 187 OFFCURVE",
"182 244 CURVE SMOOTH",
"182 376 OFFCURVE",
"329 596 OFFCURVE",
"554 596 CURVE SMOOTH",
"595 596 OFFCURVE",
"651 578 OFFCURVE",
"651 505 CURVE SMOOTH",
"651 457 OFFCURVE",
"628 385 OFFCURVE",
"562 276 CURVE SMOOTH",
"501 180 OFFCURVE",
"470 92 OFFCURVE",
"470 30 CURVE SMOOTH",
"470 -20 OFFCURVE",
"492 -57 OFFCURVE",
"544 -57 CURVE SMOOTH"
);
}
);
};
layerId = "466AD7DC-B026-4005-940F-6404FDF7EB07";
paths = (
{
closed = 1;
nodes = (
"616 -57 OFFCURVE",
"711 52 OFFCURVE",
"782 156 CURVE",
"776 127 OFFCURVE",
"772 98 OFFCURVE",
"772 72 CURVE SMOOTH",
"772 22 OFFCURVE",
"786 -15 OFFCURVE",
"831 -26 CURVE SMOOTH",
"843 -29 OFFCURVE",
"856 -30 OFFCURVE",
"868 -30 CURVE SMOOTH",
"987 -30 OFFCURVE",
"1118 95 OFFCURVE",
"1183 247 CURVE SMOOTH",
"1198 284 OFFCURVE",
"1207 323 OFFCURVE",
"1207 356 CURVE SMOOTH",
"1207 449 OFFCURVE",
"1150 514 OFFCURVE",
"1082 514 CURVE SMOOTH",
"1068 514 OFFCURVE",
"1053 512 OFFCURVE",
"1038 505 CURVE SMOOTH",
"1030 502 OFFCURVE",
"1027 496 OFFCURVE",
"1027 490 CURVE SMOOTH",
"1027 480 OFFCURVE",
"1034 470 OFFCURVE",
"1045 470 CURVE SMOOTH",
"1047 470 OFFCURVE",
"1049 470 OFFCURVE",
"1051 471 CURVE SMOOTH",
"1059 475 OFFCURVE",
"1068 476 OFFCURVE",
"1077 476 CURVE SMOOTH",
"1121 476 OFFCURVE",
"1171 436 OFFCURVE",
"1171 359 CURVE SMOOTH",
"1171 330 OFFCURVE",
"1166 298 OFFCURVE",
"1148 259 CURVE SMOOTH",
"1084 109 OFFCURVE",
"954 0 OFFCURVE",
"875 0 CURVE SMOOTH",
"837 0 OFFCURVE",
"810 26 OFFCURVE",
"810 85 CURVE SMOOTH",
"810 133 OFFCURVE",
"830 207 OFFCURVE",
"870 300 CURVE SMOOTH",
"875 313 OFFCURVE",
"880 324 OFFCURVE",
"882 330 CURVE SMOOTH",
"887 345 OFFCURVE",
"877 354 OFFCURVE",
"866 354 CURVE SMOOTH",
"859 354 OFFCURVE",
"853 351 OFFCURVE",
"849 344 CURVE SMOOTH",
"845 337 OFFCURVE",
"840 324 OFFCURVE",
"835 314 CURVE SMOOTH",
"786 220 OFFCURVE",
"636 -10 OFFCURVE",
"547 -20 CURVE",
"523 -19 OFFCURVE",
"505 -5 OFFCURVE",
"505 33 CURVE SMOOTH",
"505 84 OFFCURVE",
"536 163 OFFCURVE",
"593 256 CURVE SMOOTH",
"661 367 OFFCURVE",
"688 447 OFFCURVE",
"688 507 CURVE SMOOTH",
"688 597 OFFCURVE",
"626 633 OFFCURVE",
"554 633 CURVE SMOOTH",
"306 633 OFFCURVE",
"145 395 OFFCURVE",
"145 241 CURVE SMOOTH",
"145 166 OFFCURVE",
"183 111 OFFCURVE",
"268 111 CURVE SMOOTH",
"400 111 OFFCURVE",
"496 251 OFFCURVE",
"496 345 CURVE SMOOTH",
"496 392 OFFCURVE",
"472 426 OFFCURVE",
"418 426 CURVE SMOOTH",
"407 426 OFFCURVE",
"401 417 OFFCURVE",
"401 408 CURVE SMOOTH",
"401 399 OFFCURVE",
"407 390 OFFCURVE",
"418 390 CURVE SMOOTH",
"447 390 OFFCURVE",
"459 369 OFFCURVE",
"459 343 CURVE SMOOTH",
"459 272 OFFCURVE",
"376 148 OFFCURVE",
"268 148 CURVE SMOOTH",
"209 148 OFFCURVE",
"182 187 OFFCURVE",
"182 244 CURVE SMOOTH",
"182 376 OFFCURVE",
"329 596 OFFCURVE",
"554 596 CURVE SMOOTH",
"595 596 OFFCURVE",
"651 578 OFFCURVE",
"651 505 CURVE SMOOTH",
"651 457 OFFCURVE",
"628 385 OFFCURVE",
"562 276 CURVE SMOOTH",
"501 180 OFFCURVE",
"470 92 OFFCURVE",
"470 30 CURVE SMOOTH",
"470 -20 OFFCURVE",
"492 -57 OFFCURVE",
"544 -57 CURVE SMOOTH"
);
}
);
width = 1227;
}
);
note = W;
unicode = 0057;
},
{
glyphname = X;
lastChange = "2021-10-12 06:39:44 +0000";
layers = (
{
background = {
paths = (
{
closed = 1;
nodes = (
"29 -130 OFFCURVE",
"38 -135 OFFCURVE",
"46 -135 CURVE SMOOTH",
"55 -135 OFFCURVE",
"64 -130 OFFCURVE",
"65 -120 CURVE SMOOTH",
"73 1 OFFCURVE",
"352 211 OFFCURVE",
"462 279 CURVE SMOOTH",
"569 345 OFFCURVE",
"860 573 OFFCURVE",
"891 621 CURVE SMOOTH",
"893 624 OFFCURVE",
"893 626 OFFCURVE",
"893 629 CURVE SMOOTH",
"893 639 OFFCURVE",
"882 648 OFFCURVE",
"872 648 CURVE SMOOTH",
"867 648 OFFCURVE",
"862 645 OFFCURVE",
"859 640 CURVE",
"822 592 OFFCURVE",
"549 376 OFFCURVE",
"443 312 CURVE SMOOTH",
"339 247 OFFCURVE",
"30 26 OFFCURVE",
"29 -120 CURVE SMOOTH"
);
},
{
closed = 1;
nodes = (
"547 -50 OFFCURVE",
"560 -47 OFFCURVE",
"572 -41 CURVE",
"669 -3 OFFCURVE",
"726 129 OFFCURVE",
"738 159 CURVE",
"742 173 OFFCURVE",
"729 184 OFFCURVE",
"717 184 CURVE SMOOTH",
"711 184 OFFCURVE",
"705 181 OFFCURVE",
"702 174 CURVE SMOOTH",
"691 141 OFFCURVE",
"638 26 OFFCURVE",
"558 -7 CURVE SMOOTH",
"551 -10 OFFCURVE",
"544 -12 OFFCURVE",
"539 -12 CURVE SMOOTH",
"526 -12 OFFCURVE",
"518 -5 OFFCURVE",
"511 9 CURVE SMOOTH",
"495 40 OFFCURVE",
"490 90 OFFCURVE",
"490 145 CURVE SMOOTH",
"490 182 OFFCURVE",
"493 225 OFFCURVE",
"495 267 CURVE SMOOTH",
"497 308 OFFCURVE",
"499 350 OFFCURVE",
"499 387 CURVE SMOOTH",
"499 430 OFFCURVE",
"497 469 OFFCURVE",
"488 497 CURVE SMOOTH",
"470 560 OFFCURVE",
"419 591 OFFCURVE",
"365 591 CURVE SMOOTH",
"271 591 OFFCURVE",
"154 509 OFFCURVE",
"133 422 CURVE SMOOTH",
"131 410 OFFCURVE",
"130 400 OFFCURVE",
"130 390 CURVE SMOOTH",
"130 340 OFFCURVE",
"165 319 OFFCURVE",
"208 319 CURVE SMOOTH",
"228 319 OFFCURVE",
"248 322 OFFCURVE",
"269 330 CURVE SMOOTH",
"276 333 OFFCURVE",
"279 338 OFFCURVE",
"279 345 CURVE SMOOTH",
"279 356 OFFCURVE",
"269 368 OFFCURVE",
"256 364 CURVE SMOOTH",
"239 359 OFFCURVE",
"222 356 OFFCURVE",
"207 356 CURVE SMOOTH",
"184 356 OFFCURVE",
"165 364 OFFCURVE",
"165 394 CURVE SMOOTH",
"165 400 OFFCURVE",
"166 407 OFFCURVE",
"168 415 CURVE SMOOTH",
"185 483 OFFCURVE",
"285 555 OFFCURVE",
"365 555 CURVE SMOOTH",
"405 555 OFFCURVE",
"438 535 OFFCURVE",
"453 487 CURVE",
"458 462 OFFCURVE",
"460 416 OFFCURVE",
"460 366 CURVE SMOOTH",
"460 316 OFFCURVE",
"458 259 OFFCURVE",
"456 213 CURVE SMOOTH",
"455 182 OFFCURVE",
"453 155 OFFCURVE",
"453 137 CURVE SMOOTH",
"453 83 OFFCURVE",
"459 -50 OFFCURVE",
"537 -50 CURVE SMOOTH"
);
}
);
};
layerId = "466AD7DC-B026-4005-940F-6404FDF7EB07";
paths = (
{
closed = 1;
nodes = (
"55 -135 OFFCURVE",
"64 -130 OFFCURVE",
"65 -120 CURVE SMOOTH",
"73 1 OFFCURVE",
"352 211 OFFCURVE",
"462 279 CURVE SMOOTH",
"569 345 OFFCURVE",
"860 573 OFFCURVE",
"891 621 CURVE SMOOTH",
"893 624 OFFCURVE",
"893 626 OFFCURVE",
"893 629 CURVE SMOOTH",
"893 639 OFFCURVE",
"882 648 OFFCURVE",
"872 648 CURVE SMOOTH",
"867 648 OFFCURVE",
"862 645 OFFCURVE",
"859 640 CURVE",
"822 592 OFFCURVE",
"549 376 OFFCURVE",
"443 312 CURVE SMOOTH",
"339 247 OFFCURVE",
"30 26 OFFCURVE",
"29 -120 CURVE SMOOTH",
"29 -130 OFFCURVE",
"38 -135 OFFCURVE",
"46 -135 CURVE SMOOTH"
);
},
{
closed = 1;
nodes = (
"547 -50 OFFCURVE",
"560 -47 OFFCURVE",
"572 -41 CURVE",
"669 -3 OFFCURVE",
"726 129 OFFCURVE",
"738 159 CURVE",
"742 173 OFFCURVE",
"729 184 OFFCURVE",
"717 184 CURVE SMOOTH",
"711 184 OFFCURVE",
"705 181 OFFCURVE",
"702 174 CURVE SMOOTH",
"691 141 OFFCURVE",
"638 26 OFFCURVE",
"558 -7 CURVE SMOOTH",
"551 -10 OFFCURVE",
"544 -12 OFFCURVE",
"539 -12 CURVE SMOOTH",
"526 -12 OFFCURVE",
"518 -5 OFFCURVE",
"511 9 CURVE SMOOTH",
"495 40 OFFCURVE",
"490 90 OFFCURVE",
"490 145 CURVE SMOOTH",
"490 182 OFFCURVE",
"493 225 OFFCURVE",
"495 267 CURVE SMOOTH",
"497 308 OFFCURVE",
"499 350 OFFCURVE",
"499 387 CURVE SMOOTH",
"499 430 OFFCURVE",
"497 469 OFFCURVE",
"488 497 CURVE SMOOTH",
"470 560 OFFCURVE",
"419 591 OFFCURVE",
"365 591 CURVE SMOOTH",
"271 591 OFFCURVE",
"154 509 OFFCURVE",
"133 422 CURVE SMOOTH",
"131 410 OFFCURVE",
"130 400 OFFCURVE",
"130 390 CURVE SMOOTH",
"130 340 OFFCURVE",
"165 319 OFFCURVE",
"208 319 CURVE SMOOTH",
"228 319 OFFCURVE",
"248 322 OFFCURVE",
"269 330 CURVE SMOOTH",
"276 333 OFFCURVE",
"279 338 OFFCURVE",
"279 345 CURVE SMOOTH",
"279 355 OFFCURVE",
"272 365 OFFCURVE",
"261 365 CURVE SMOOTH",
"259 365 OFFCURVE",
"258 365 OFFCURVE",
"256 364 CURVE SMOOTH",
"239 359 OFFCURVE",
"222 356 OFFCURVE",
"207 356 CURVE SMOOTH",
"184 356 OFFCURVE",
"165 364 OFFCURVE",
"165 394 CURVE SMOOTH",
"165 400 OFFCURVE",
"166 407 OFFCURVE",
"168 415 CURVE SMOOTH",
"185 483 OFFCURVE",
"285 555 OFFCURVE",
"365 555 CURVE SMOOTH",
"405 555 OFFCURVE",
"438 535 OFFCURVE",
"453 487 CURVE",
"458 462 OFFCURVE",
"460 416 OFFCURVE",
"460 366 CURVE SMOOTH",
"460 316 OFFCURVE",
"458 259 OFFCURVE",
"456 213 CURVE SMOOTH",
"455 182 OFFCURVE",
"453 155 OFFCURVE",
"453 137 CURVE SMOOTH",
"453 83 OFFCURVE",
"459 -50 OFFCURVE",
"537 -50 CURVE SMOOTH"
);
}
);
width = 742;
}
);
note = X;
unicode = 0058;
},
{
glyphname = Y;
lastChange = "2021-10-12 06:39:44 +0000";
layers = (
{
anchors = (
{
name = bottom;
position = "{763, -89}";
},
{
name = top;
position = "{820, 523}";
},
{
name = topleft;
position = "{20, 560}";
}
);
background = {
paths = (
{
closed = 1;
nodes = (
"470 -334 OFFCURVE",
"609 -247 OFFCURVE",
"709 -107 CURVE",
"763 -104 OFFCURVE",
"872 -96 OFFCURVE",
"893 -60 CURVE SMOOTH",
"895 -56 OFFCURVE",
"896 -52 OFFCURVE",
"896 -48 CURVE SMOOTH",
"896 -37 OFFCURVE",
"888 -29 OFFCURVE",
"880 -29 CURVE SMOOTH",
"875 -29 OFFCURVE",
"871 -32 OFFCURVE",
"867 -38 CURVE SMOOTH",
"857 -57 OFFCURVE",
"799 -66 OFFCURVE",
"730 -70 CURVE",
"802 31 OFFCURVE",
"857 228 OFFCURVE",
"857 354 CURVE SMOOTH",
"857 367 OFFCURVE",
"849 375 OFFCURVE",
"840 375 CURVE SMOOTH",
"833 375 OFFCURVE",
"825 370 OFFCURVE",
"821 361 CURVE SMOOTH",
"743 188 OFFCURVE",
"613 9 OFFCURVE",
"527 9 CURVE SMOOTH",
"500 9 OFFCURVE",
"484 23 OFFCURVE",
"484 61 CURVE SMOOTH",
"484 108 OFFCURVE",
"515 188 OFFCURVE",
"578 283 CURVE SMOOTH",
"651 390 OFFCURVE",
"680 473 OFFCURVE",
"680 532 CURVE SMOOTH",
"680 613 OFFCURVE",
"624 650 OFFCURVE",
"555 650 CURVE SMOOTH",
"315 650 OFFCURVE",
"125 396 OFFCURVE",
"125 237 CURVE SMOOTH",
"125 165 OFFCURVE",
"165 111 OFFCURVE",
"255 111 CURVE SMOOTH",
"381 111 OFFCURVE",
"456 221 OFFCURVE",
"456 302 CURVE SMOOTH",
"456 348 OFFCURVE",
"431 384 OFFCURVE",
"378 384 CURVE SMOOTH",
"366 384 OFFCURVE",
"359 376 OFFCURVE",
"359 368 CURVE SMOOTH",
"359 360 OFFCURVE",
"365 352 OFFCURVE",
"377 352 CURVE SMOOTH",
"406 352 OFFCURVE",
"417 332 OFFCURVE",
"417 305 CURVE SMOOTH",
"417 244 OFFCURVE",
"356 149 OFFCURVE",
"255 149 CURVE SMOOTH",
"191 149 OFFCURVE",
"163 188 OFFCURVE",
"163 240 CURVE SMOOTH",
"163 375 OFFCURVE",
"340 611 OFFCURVE",
"555 611 CURVE SMOOTH",
"595 611 OFFCURVE",
"642 594 OFFCURVE",
"642 529 CURVE SMOOTH",
"642 482 OFFCURVE",
"618 410 OFFCURVE",
"546 305 CURVE SMOOTH",
"483 210 OFFCURVE",
"448 121 OFFCURVE",
"448 61 CURVE SMOOTH",
"448 11 OFFCURVE",
"473 -29 OFFCURVE",
"527 -29 CURVE SMOOTH",
"618 -29 OFFCURVE",
"732 112 OFFCURVE",
"809 248 CURVE",
"809 180 OFFCURVE",
"751 23 OFFCURVE",
"687 -73 CURVE",
"585 -78 OFFCURVE",
"489 -82 OFFCURVE",
"405 -97 CURVE SMOOTH",
"283 -119 OFFCURVE",
"184 -162 OFFCURVE",
"184 -255 CURVE SMOOTH",
"184 -301 OFFCURVE",
"232 -334 OFFCURVE",
"296 -334 CURVE SMOOTH"
);
},
{
closed = 1;
nodes = (
"242 -298 OFFCURVE",
"226 -268 OFFCURVE",
"226 -255 CURVE SMOOTH",
"226 -189 OFFCURVE",
"290 -152 OFFCURVE",
"389 -133 CURVE SMOOTH",
"485 -115 OFFCURVE",
"589 -111 OFFCURVE",
"664 -108 CURVE",
"575 -225 OFFCURVE",
"446 -298 OFFCURVE",
"296 -298 CURVE SMOOTH"
);
}
);
};
layerId = "466AD7DC-B026-4005-940F-6404FDF7EB07";
paths = (
{
closed = 1;
nodes = (
"470 -334 OFFCURVE",
"609 -247 OFFCURVE",
"709 -107 CURVE",
"763 -104 OFFCURVE",
"872 -96 OFFCURVE",
"893 -60 CURVE SMOOTH",
"895 -56 OFFCURVE",
"896 -52 OFFCURVE",
"896 -48 CURVE SMOOTH",
"896 -37 OFFCURVE",
"888 -29 OFFCURVE",
"880 -29 CURVE SMOOTH",
"875 -29 OFFCURVE",
"871 -32 OFFCURVE",
"867 -38 CURVE SMOOTH",
"857 -57 OFFCURVE",
"799 -66 OFFCURVE",
"730 -70 CURVE",
"802 31 OFFCURVE",
"857 228 OFFCURVE",
"857 354 CURVE SMOOTH",
"857 367 OFFCURVE",
"849 375 OFFCURVE",
"840 375 CURVE SMOOTH",
"833 375 OFFCURVE",
"825 370 OFFCURVE",
"821 361 CURVE SMOOTH",
"743 188 OFFCURVE",
"613 9 OFFCURVE",
"527 9 CURVE SMOOTH",
"500 9 OFFCURVE",
"484 23 OFFCURVE",
"484 61 CURVE SMOOTH",
"484 108 OFFCURVE",
"515 188 OFFCURVE",
"578 283 CURVE SMOOTH",
"651 390 OFFCURVE",
"680 473 OFFCURVE",
"680 532 CURVE SMOOTH",
"680 613 OFFCURVE",
"624 650 OFFCURVE",
"555 650 CURVE SMOOTH",
"315 650 OFFCURVE",
"125 396 OFFCURVE",
"125 237 CURVE SMOOTH",
"125 165 OFFCURVE",
"165 111 OFFCURVE",
"255 111 CURVE SMOOTH",
"381 111 OFFCURVE",
"456 221 OFFCURVE",
"456 302 CURVE SMOOTH",
"456 348 OFFCURVE",
"431 384 OFFCURVE",
"378 384 CURVE SMOOTH",
"366 384 OFFCURVE",
"359 376 OFFCURVE",
"359 368 CURVE SMOOTH",
"359 360 OFFCURVE",
"365 352 OFFCURVE",
"377 352 CURVE SMOOTH",
"406 352 OFFCURVE",
"417 332 OFFCURVE",
"417 305 CURVE SMOOTH",
"417 244 OFFCURVE",
"356 149 OFFCURVE",
"255 149 CURVE SMOOTH",
"191 149 OFFCURVE",
"163 188 OFFCURVE",
"163 240 CURVE SMOOTH",
"163 375 OFFCURVE",
"340 611 OFFCURVE",
"555 611 CURVE SMOOTH",
"595 611 OFFCURVE",
"642 594 OFFCURVE",
"642 529 CURVE SMOOTH",
"642 482 OFFCURVE",
"618 410 OFFCURVE",
"546 305 CURVE SMOOTH",
"483 210 OFFCURVE",
"448 121 OFFCURVE",
"448 61 CURVE SMOOTH",
"448 11 OFFCURVE",
"473 -29 OFFCURVE",
"527 -29 CURVE SMOOTH",
"618 -29 OFFCURVE",
"732 112 OFFCURVE",
"809 248 CURVE",
"809 180 OFFCURVE",
"751 23 OFFCURVE",
"687 -73 CURVE",
"585 -78 OFFCURVE",
"489 -82 OFFCURVE",
"405 -97 CURVE SMOOTH",
"283 -119 OFFCURVE",
"184 -162 OFFCURVE",
"184 -255 CURVE SMOOTH",
"184 -301 OFFCURVE",
"232 -334 OFFCURVE",
"296 -334 CURVE SMOOTH"
);
},
{
closed = 1;
nodes = (
"242 -298 OFFCURVE",
"226 -268 OFFCURVE",
"226 -255 CURVE SMOOTH",
"226 -189 OFFCURVE",
"290 -152 OFFCURVE",
"389 -133 CURVE SMOOTH",
"485 -115 OFFCURVE",
"589 -111 OFFCURVE",
"664 -108 CURVE",
"575 -225 OFFCURVE",
"446 -298 OFFCURVE",
"296 -298 CURVE SMOOTH"
);
}
);
width = 883;
}
);
note = Y;
unicode = 0059;
},
{
glyphname = Z;
lastChange = "2021-10-12 06:39:44 +0000";
layers = (
{
anchors = (
{
name = bottom;
position = "{362, 0}";
},
{
name = center;
position = "{362, 280}";
},
{
name = top;
position = "{667, 575}";
}
);
background = {
paths = (
{
closed = 1;
nodes = (
"779 -112 OFFCURVE",
"840 -89 OFFCURVE",
"872 -17 CURVE SMOOTH",
"873 -14 OFFCURVE",
"874 -11 OFFCURVE",
"874 -8 CURVE SMOOTH",
"874 2 OFFCURVE",
"865 10 OFFCURVE",
"855 10 CURVE SMOOTH",
"850 10 OFFCURVE",
"845 7 OFFCURVE",
"842 1 CURVE SMOOTH",
"817 -52 OFFCURVE",
"768 -76 OFFCURVE",
"715 -76 CURVE SMOOTH",
"616 -76 OFFCURVE",
"487 -11 OFFCURVE",
"393 35 CURVE SMOOTH",
"369 47 LINE",
"428 101 OFFCURVE",
"485 167 OFFCURVE",
"530 222 CURVE SMOOTH",
"564 261 LINE SMOOTH",
"632 342 OFFCURVE",
"701 424 OFFCURVE",
"783 492 CURVE",
"810 487 OFFCURVE",
"835 483 OFFCURVE",
"858 483 CURVE SMOOTH",
"875 483 OFFCURVE",
"892 485 OFFCURVE",
"906 490 CURVE SMOOTH",
"933 502 OFFCURVE",
"957 531 OFFCURVE",
"957 555 CURVE SMOOTH",
"957 569 OFFCURVE",
"949 582 OFFCURVE",
"929 590 CURVE SMOOTH",
"921 593 OFFCURVE",
"913 594 OFFCURVE",
"904 594 CURVE SMOOTH",
"865 594 OFFCURVE",
"818 567 OFFCURVE",
"770 530 CURVE",
"748 535 OFFCURVE",
"725 542 OFFCURVE",
"701 549 CURVE SMOOTH",
"627 571 OFFCURVE",
"546 595 OFFCURVE",
"472 595 CURVE SMOOTH",
"418 595 OFFCURVE",
"372 582 OFFCURVE",
"334 549 CURVE SMOOTH",
"308 526 OFFCURVE",
"298 503 OFFCURVE",
"298 479 CURVE SMOOTH",
"298 417 OFFCURVE",
"377 364 OFFCURVE",
"442 354 CURVE SMOOTH",
"455 352 OFFCURVE",
"463 363 OFFCURVE",
"463 373 CURVE SMOOTH",
"463 381 OFFCURVE",
"458 389 OFFCURVE",
"448 391 CURVE SMOOTH",
"380 401 OFFCURVE",
"339 440 OFFCURVE",
"339 478 CURVE SMOOTH",
"339 493 OFFCURVE",
"345 509 OFFCURVE",
"360 522 CURVE SMOOTH",
"390 549 OFFCURVE",
"429 559 OFFCURVE",
"474 559 CURVE SMOOTH",
"538 559 OFFCURVE",
"614 538 OFFCURVE",
"684 518 CURVE SMOOTH",
"702 512 OFFCURVE",
"719 507 OFFCURVE",
"737 502 CURVE",
"655 430 OFFCURVE",
"578 337 OFFCURVE",
"549 303 CURVE SMOOTH",
"516 259 OFFCURVE",
"419 145 OFFCURVE",
"330 66 CURVE",
"316 72 LINE SMOOTH",
"260 95 OFFCURVE",
"210 105 OFFCURVE",
"174 105 CURVE SMOOTH",
"101 105 OFFCURVE",
"67 69 OFFCURVE",
"67 30 CURVE SMOOTH",
"67 -10 OFFCURVE",
"109 -51 OFFCURVE",
"183 -51 CURVE SMOOTH",
"190 -51 OFFCURVE",
"196 -51 OFFCURVE",
"203 -50 CURVE SMOOTH",
"246 -43 OFFCURVE",
"293 -16 OFFCURVE",
"339 21 CURVE",
"387 0 OFFCURVE",
"434 -24 OFFCURVE",
"469 -41 CURVE SMOOTH",
"496 -55 LINE SMOOTH",
"552 -84 OFFCURVE",
"637 -112 OFFCURVE",
"711 -112 CURVE SMOOTH"
);
},
{
closed = 1;
nodes = (
"133 -17 OFFCURVE",
"109 6 OFFCURVE",
"109 29 CURVE SMOOTH",
"109 50 OFFCURVE",
"131 71 OFFCURVE",
"173 71 CURVE SMOOTH",
"203 71 OFFCURVE",
"249 57 OFFCURVE",
"297 38 CURVE",
"263 12 OFFCURVE",
"233 -7 OFFCURVE",
"208 -14 CURVE SMOOTH",
"198 -16 OFFCURVE",
"186 -17 OFFCURVE",
"178 -17 CURVE SMOOTH"
);
},
{
closed = 1;
nodes = (
"846 516 OFFCURVE",
"833 517 OFFCURVE",
"819 520 CURVE SMOOTH",
"820 520 OFFCURVE",
"820 520 OFFCURVE",
"821 521 CURVE SMOOTH",
"833 530 OFFCURVE",
"876 560 OFFCURVE",
"902 560 CURVE SMOOTH",
"910 560 OFFCURVE",
"917 558 OFFCURVE",
"920 551 CURVE SMOOTH",
"922 548 OFFCURVE",
"914 531 OFFCURVE",
"892 522 CURVE SMOOTH",
"883 518 OFFCURVE",
"871 516 OFFCURVE",
"858 516 CURVE SMOOTH"
);
}
);
};
layerId = "466AD7DC-B026-4005-940F-6404FDF7EB07";
paths = (
{
closed = 1;
nodes = (
"779 -112 OFFCURVE",
"840 -89 OFFCURVE",
"872 -17 CURVE SMOOTH",
"873 -14 OFFCURVE",
"874 -11 OFFCURVE",
"874 -8 CURVE SMOOTH",
"874 2 OFFCURVE",
"865 10 OFFCURVE",
"855 10 CURVE SMOOTH",
"850 10 OFFCURVE",
"845 7 OFFCURVE",
"842 1 CURVE SMOOTH",
"817 -52 OFFCURVE",
"768 -76 OFFCURVE",
"715 -76 CURVE SMOOTH",
"616 -76 OFFCURVE",
"487 -12 OFFCURVE",
"393 35 CURVE SMOOTH",
"369 47 LINE",
"428 101 OFFCURVE",
"483 168 OFFCURVE",
"530 222 CURVE SMOOTH",
"564 261 LINE SMOOTH",
"633 341 OFFCURVE",
"701 424 OFFCURVE",
"783 492 CURVE",
"810 487 OFFCURVE",
"835 483 OFFCURVE",
"858 483 CURVE SMOOTH",
"875 483 OFFCURVE",
"892 485 OFFCURVE",
"906 490 CURVE SMOOTH",
"933 502 OFFCURVE",
"957 531 OFFCURVE",
"957 555 CURVE SMOOTH",
"957 569 OFFCURVE",
"949 582 OFFCURVE",
"929 590 CURVE SMOOTH",
"921 593 OFFCURVE",
"913 594 OFFCURVE",
"904 594 CURVE SMOOTH",
"865 594 OFFCURVE",
"818 567 OFFCURVE",
"770 530 CURVE",
"748 535 OFFCURVE",
"725 542 OFFCURVE",
"701 549 CURVE SMOOTH",
"627 571 OFFCURVE",
"546 595 OFFCURVE",
"472 595 CURVE SMOOTH",
"418 595 OFFCURVE",
"372 582 OFFCURVE",
"334 549 CURVE SMOOTH",
"308 526 OFFCURVE",
"298 503 OFFCURVE",
"298 479 CURVE SMOOTH",
"298 417 OFFCURVE",
"377 364 OFFCURVE",
"442 354 CURVE SMOOTH",
"455 352 OFFCURVE",
"463 363 OFFCURVE",
"463 373 CURVE SMOOTH",
"463 381 OFFCURVE",
"458 389 OFFCURVE",
"448 391 CURVE SMOOTH",
"380 401 OFFCURVE",
"339 440 OFFCURVE",
"339 478 CURVE SMOOTH",
"339 493 OFFCURVE",
"345 509 OFFCURVE",
"360 522 CURVE SMOOTH",
"390 549 OFFCURVE",
"429 559 OFFCURVE",
"474 559 CURVE SMOOTH",
"538 559 OFFCURVE",
"614 538 OFFCURVE",
"684 518 CURVE SMOOTH",
"702 512 OFFCURVE",
"719 507 OFFCURVE",
"737 502 CURVE",
"655 430 OFFCURVE",
"578 337 OFFCURVE",
"549 303 CURVE SMOOTH",
"516 259 OFFCURVE",
"419 145 OFFCURVE",
"330 66 CURVE",
"316 72 LINE SMOOTH",
"260 96 OFFCURVE",
"210 105 OFFCURVE",
"174 105 CURVE SMOOTH",
"101 105 OFFCURVE",
"67 69 OFFCURVE",
"67 30 CURVE SMOOTH",
"67 -10 OFFCURVE",
"109 -51 OFFCURVE",
"183 -51 CURVE SMOOTH",
"190 -51 OFFCURVE",
"196 -51 OFFCURVE",
"203 -50 CURVE SMOOTH",
"246 -43 OFFCURVE",
"293 -16 OFFCURVE",
"339 21 CURVE",
"387 0 OFFCURVE",
"434 -23 OFFCURVE",
"469 -41 CURVE SMOOTH",
"496 -55 LINE SMOOTH",
"552 -84 OFFCURVE",
"637 -112 OFFCURVE",
"711 -112 CURVE SMOOTH"
);
},
{
closed = 1;
nodes = (
"133 -17 OFFCURVE",
"109 6 OFFCURVE",
"109 29 CURVE SMOOTH",
"109 50 OFFCURVE",
"131 71 OFFCURVE",
"173 71 CURVE SMOOTH",
"203 71 OFFCURVE",
"249 57 OFFCURVE",
"297 38 CURVE",
"263 12 OFFCURVE",
"233 -7 OFFCURVE",
"208 -14 CURVE SMOOTH",
"198 -16 OFFCURVE",
"186 -17 OFFCURVE",
"178 -17 CURVE SMOOTH"
);
},
{
closed = 1;
nodes = (
"846 516 OFFCURVE",
"833 517 OFFCURVE",
"819 520 CURVE SMOOTH",
"820 520 OFFCURVE",
"820 520 OFFCURVE",
"821 521 CURVE SMOOTH",
"833 530 OFFCURVE",
"876 560 OFFCURVE",
"902 560 CURVE SMOOTH",
"910 560 OFFCURVE",
"917 558 OFFCURVE",
"920 551 CURVE SMOOTH",
"922 548 OFFCURVE",
"914 531 OFFCURVE",
"892 522 CURVE SMOOTH",
"883 518 OFFCURVE",
"871 516 OFFCURVE",
"858 516 CURVE SMOOTH"
);
}
);
width = 723;
}
);
note = Z;
unicode = 005A;
},
{
glyphname = A.1;
lastChange = "2021-10-12 06:39:44 +0000";
layers = (
{
background = {
paths = (
{
closed = 1;
nodes = (
"384 -27 OFFCURVE",
"352 -112 OFFCURVE",
"352 -174 CURVE SMOOTH",
"352 -228 OFFCURVE",
"377 -265 OFFCURVE",
"444 -265 CURVE SMOOTH",
"456 -265 OFFCURVE",
"469 -263 OFFCURVE",
"484 -261 CURVE SMOOTH",
"639 -235 OFFCURVE",
"792 -173 OFFCURVE",
"1085 -139 CURVE SMOOTH",
"1119 -135 OFFCURVE",
"1153 -133 OFFCURVE",
"1185 -133 CURVE SMOOTH",
"1276 -133 OFFCURVE",
"1356 -148 OFFCURVE",
"1407 -178 CURVE SMOOTH",
"1431 -192 OFFCURVE",
"1445 -216 OFFCURVE",
"1445 -238 CURVE SMOOTH",
"1445 -261 OFFCURVE",
"1430 -283 OFFCURVE",
"1396 -290 CURVE SMOOTH",
"1386 -292 OFFCURVE",
"1374 -293 OFFCURVE",
"1361 -293 CURVE SMOOTH",
"1286 -293 OFFCURVE",
"1179 -261 OFFCURVE",
"1179 -258 CURVE SMOOTH",
"1179 -265 OFFCURVE",
"1182 -273 OFFCURVE",
"1188 -279 CURVE SMOOTH",
"1215 -303 OFFCURVE",
"1297 -330 OFFCURVE",
"1368 -330 CURVE SMOOTH",
"1381 -330 OFFCURVE",
"1394 -329 OFFCURVE",
"1406 -327 CURVE SMOOTH",
"1455 -319 OFFCURVE",
"1484 -279 OFFCURVE",
"1484 -238 CURVE SMOOTH",
"1484 -211 OFFCURVE",
"1472 -183 OFFCURVE",
"1445 -162 CURVE SMOOTH",
"1392 -120 OFFCURVE",
"1297 -101 OFFCURVE",
"1188 -101 CURVE SMOOTH",
"1153 -101 OFFCURVE",
"1117 -103 OFFCURVE",
"1080 -107 CURVE SMOOTH",
"785 -138 OFFCURVE",
"639 -200 OFFCURVE",
"478 -227 CURVE SMOOTH",
"468 -229 OFFCURVE",
"460 -229 OFFCURVE",
"452 -229 CURVE SMOOTH",
"407 -229 OFFCURVE",
"390 -204 OFFCURVE",
"390 -163 CURVE SMOOTH",
"390 -108 OFFCURVE",
"422 -26 OFFCURVE",
"463 58 CURVE SMOOTH",
"505 146 OFFCURVE",
"563 238 OFFCURVE",
"601 273 CURVE",
"598 275 OFFCURVE",
"592 281 OFFCURVE",
"585 281 CURVE SMOOTH",
"582 281 OFFCURVE",
"579 280 OFFCURVE",
"575 277 CURVE",
"579 285 OFFCURVE",
"574 291 OFFCURVE",
"573 291 CURVE",
"567 282 OFFCURVE",
"549 260 OFFCURVE",
"511 214 CURVE SMOOTH",
"436 124 OFFCURVE",
"286 -31 OFFCURVE",
"139 -31 CURVE SMOOTH",
"82 -31 OFFCURVE",
"55 -3 OFFCURVE",
"55 56 CURVE SMOOTH",
"55 110 OFFCURVE",
"82 185 OFFCURVE",
"130 260 CURVE SMOOTH",
"226 410 OFFCURVE",
"395 536 OFFCURVE",
"587 536 CURVE SMOOTH",
"693 536 OFFCURVE",
"752 495 OFFCURVE",
"752 447 CURVE SMOOTH",
"752 406 OFFCURVE",
"710 363 OFFCURVE",
"616 341 CURVE SMOOTH",
"579 332 OFFCURVE",
"534 329 OFFCURVE",
"488 329 CURVE SMOOTH",
"389 329 OFFCURVE",
"280 346 OFFCURVE",
"208 368 CURVE SMOOTH",
"93 405 OFFCURVE",
"37 472 OFFCURVE",
"37 515 CURVE SMOOTH",
"37 539 OFFCURVE",
"54 555 OFFCURVE",
"87 555 CURVE SMOOTH",
"103 555 OFFCURVE",
"123 551 OFFCURVE",
"147 542 CURVE",
"150 540 OFFCURVE",
"153 540 OFFCURVE",
"156 540 CURVE SMOOTH",
"165 540 OFFCURVE",
"172 548 OFFCURVE",
"172 556 CURVE SMOOTH",
"172 562 OFFCURVE",
"168 568 OFFCURVE",
"159 571 CURVE SMOOTH",
"130 582 OFFCURVE",
"105 587 OFFCURVE",
"84 587 CURVE SMOOTH",
"28 587 OFFCURVE",
"0 553 OFFCURVE",
"0 512 CURVE SMOOTH",
"0 485 OFFCURVE",
"12 454 OFFCURVE",
"38 428 CURVE SMOOTH",
"66 399 OFFCURVE",
"104 372 OFFCURVE",
"153 351 CURVE SMOOTH",
"236 316 OFFCURVE",
"373 295 OFFCURVE",
"489 295 CURVE SMOOTH",
"540 295 OFFCURVE",
"588 299 OFFCURVE",
"625 308 CURVE SMOOTH",
"732 333 OFFCURVE",
"789 397 OFFCURVE",
"789 455 CURVE SMOOTH",
"789 512 OFFCURVE",
"735 564 OFFCURVE",
"620 571 CURVE SMOOTH",
"610 572 OFFCURVE",
"600 572 OFFCURVE",
"590 572 CURVE SMOOTH",
"409 572 OFFCURVE",
"256 470 OFFCURVE",
"153 351 CURVE SMOOTH",
"88 274 OFFCURVE",
"20 156 OFFCURVE",
"19 56 CURVE SMOOTH",
"19 -9 OFFCURVE",
"49 -62 OFFCURVE",
"124 -66 CURVE SMOOTH",
"297 -76 OFFCURVE",
"466 103 OFFCURVE",
"539 191 CURVE SMOOTH",
"578 237 OFFCURVE",
"597 264 OFFCURVE",
"605 273 CURVE",
"607 277 OFFCURVE",
"608 281 OFFCURVE",
"608 285 CURVE SMOOTH",
"608 296 OFFCURVE",
"600 304 OFFCURVE",
"590 304 CURVE SMOOTH",
"585 304 OFFCURVE",
"579 302 OFFCURVE",
"574 297 CURVE SMOOTH",
"533 258 OFFCURVE",
"476 162 OFFCURVE",
"423 53 CURVE SMOOTH"
);
}
);
};
layerId = "466AD7DC-B026-4005-940F-6404FDF7EB07";
paths = (
{
closed = 1;
nodes = (
"1381 -330 OFFCURVE",
"1394 -329 OFFCURVE",
"1406 -327 CURVE SMOOTH",
"1455 -319 OFFCURVE",
"1484 -279 OFFCURVE",
"1484 -238 CURVE SMOOTH",
"1484 -211 OFFCURVE",
"1472 -183 OFFCURVE",
"1445 -162 CURVE SMOOTH",
"1392 -120 OFFCURVE",
"1297 -101 OFFCURVE",
"1188 -101 CURVE SMOOTH",
"1153 -101 OFFCURVE",
"1117 -103 OFFCURVE",
"1080 -107 CURVE SMOOTH",
"785 -138 OFFCURVE",
"639 -200 OFFCURVE",
"478 -227 CURVE SMOOTH",
"468 -229 OFFCURVE",
"460 -229 OFFCURVE",
"452 -229 CURVE SMOOTH",
"407 -229 OFFCURVE",
"390 -204 OFFCURVE",
"390 -163 CURVE SMOOTH",
"390 -108 OFFCURVE",
"422 -26 OFFCURVE",
"463 58 CURVE SMOOTH",
"505 146 OFFCURVE",
"563 238 OFFCURVE",
"601 273 CURVE",
"598 275 OFFCURVE",
"592 281 OFFCURVE",
"585 281 CURVE SMOOTH",
"582 281 OFFCURVE",
"579 280 OFFCURVE",
"575 277 CURVE",
"579 285 OFFCURVE",
"574 291 OFFCURVE",
"573 291 CURVE",
"567 282 OFFCURVE",
"549 260 OFFCURVE",
"511 214 CURVE SMOOTH",
"436 124 OFFCURVE",
"286 -31 OFFCURVE",
"139 -31 CURVE SMOOTH",
"82 -31 OFFCURVE",
"55 -3 OFFCURVE",
"55 56 CURVE SMOOTH",
"55 110 OFFCURVE",
"82 185 OFFCURVE",
"130 260 CURVE SMOOTH",
"226 410 OFFCURVE",
"395 536 OFFCURVE",
"587 536 CURVE SMOOTH",
"693 536 OFFCURVE",
"752 495 OFFCURVE",
"752 447 CURVE SMOOTH",
"752 406 OFFCURVE",
"710 363 OFFCURVE",
"616 341 CURVE SMOOTH",
"579 332 OFFCURVE",
"534 329 OFFCURVE",
"488 329 CURVE SMOOTH",
"389 329 OFFCURVE",
"280 346 OFFCURVE",
"208 368 CURVE SMOOTH",
"93 405 OFFCURVE",
"37 472 OFFCURVE",
"37 515 CURVE SMOOTH",
"37 539 OFFCURVE",
"54 555 OFFCURVE",
"87 555 CURVE SMOOTH",
"103 555 OFFCURVE",
"123 551 OFFCURVE",
"147 542 CURVE",
"150 540 OFFCURVE",
"153 540 OFFCURVE",
"156 540 CURVE SMOOTH",
"165 540 OFFCURVE",
"172 548 OFFCURVE",
"172 556 CURVE SMOOTH",
"172 562 OFFCURVE",
"168 568 OFFCURVE",
"159 571 CURVE SMOOTH",
"130 582 OFFCURVE",
"105 587 OFFCURVE",
"84 587 CURVE SMOOTH",
"28 587 OFFCURVE",
"0 553 OFFCURVE",
"0 512 CURVE SMOOTH",
"0 485 OFFCURVE",
"12 454 OFFCURVE",
"38 428 CURVE SMOOTH",
"66 399 OFFCURVE",
"104 372 OFFCURVE",
"153 351 CURVE SMOOTH",
"236 316 OFFCURVE",
"373 295 OFFCURVE",
"489 295 CURVE SMOOTH",
"540 295 OFFCURVE",
"588 299 OFFCURVE",
"625 308 CURVE SMOOTH",
"732 333 OFFCURVE",
"789 397 OFFCURVE",
"789 455 CURVE SMOOTH",
"789 512 OFFCURVE",
"735 564 OFFCURVE",
"620 571 CURVE SMOOTH",
"610 572 OFFCURVE",
"600 572 OFFCURVE",
"590 572 CURVE SMOOTH",
"409 572 OFFCURVE",
"256 470 OFFCURVE",
"153 351 CURVE SMOOTH",
"88 274 OFFCURVE",
"20 156 OFFCURVE",
"19 56 CURVE SMOOTH",
"19 -9 OFFCURVE",
"49 -62 OFFCURVE",
"124 -66 CURVE SMOOTH",
"297 -76 OFFCURVE",
"466 103 OFFCURVE",
"539 191 CURVE SMOOTH",
"578 237 OFFCURVE",
"597 264 OFFCURVE",
"605 273 CURVE",
"607 277 OFFCURVE",
"608 281 OFFCURVE",
"608 285 CURVE SMOOTH",
"608 296 OFFCURVE",
"600 304 OFFCURVE",
"590 304 CURVE SMOOTH",
"585 304 OFFCURVE",
"579 302 OFFCURVE",
"574 297 CURVE SMOOTH",
"533 258 OFFCURVE",
"476 162 OFFCURVE",
"423 53 CURVE SMOOTH",
"384 -27 OFFCURVE",
"352 -112 OFFCURVE",
"352 -174 CURVE SMOOTH",
"352 -228 OFFCURVE",
"377 -265 OFFCURVE",
"444 -265 CURVE SMOOTH",
"456 -265 OFFCURVE",
"469 -263 OFFCURVE",
"484 -261 CURVE SMOOTH",
"639 -235 OFFCURVE",
"792 -173 OFFCURVE",
"1085 -139 CURVE SMOOTH",
"1119 -135 OFFCURVE",
"1153 -133 OFFCURVE",
"1185 -133 CURVE SMOOTH",
"1276 -133 OFFCURVE",
"1356 -148 OFFCURVE",
"1407 -178 CURVE SMOOTH",
"1431 -192 OFFCURVE",
"1445 -216 OFFCURVE",
"1445 -238 CURVE SMOOTH",
"1445 -261 OFFCURVE",
"1430 -283 OFFCURVE",
"1396 -290 CURVE SMOOTH",
"1386 -292 OFFCURVE",
"1374 -293 OFFCURVE",
"1361 -293 CURVE SMOOTH",
"1286 -293 OFFCURVE",
"1179 -261 OFFCURVE",
"1179 -258 CURVE SMOOTH",
"1179 -265 OFFCURVE",
"1182 -273 OFFCURVE",
"1188 -279 CURVE SMOOTH",
"1215 -303 OFFCURVE",
"1297 -330 OFFCURVE",
"1368 -330 CURVE SMOOTH"
);
}
);
width = 576;
}
);
note = A.1;
},
{
glyphname = B.1;
lastChange = "2021-10-12 06:39:44 +0000";
layers = (
{
background = {
paths = (
{
closed = 1;
nodes = (
"572 477 OFFCURVE",
"573 480 OFFCURVE",
"573 482 CURVE SMOOTH",
"573 493 OFFCURVE",
"560 502 OFFCURVE",
"550 502 CURVE SMOOTH",
"545 502 OFFCURVE",
"541 501 OFFCURVE",
"538 496 CURVE SMOOTH",
"458 378 OFFCURVE",
"350 191 OFFCURVE",
"294 89 CURVE SMOOTH",
"250 9 OFFCURVE",
"214 -79 OFFCURVE",
"214 -143 CURVE SMOOTH",
"214 -184 OFFCURVE",
"229 -216 OFFCURVE",
"266 -229 CURVE SMOOTH",
"279 -234 OFFCURVE",
"298 -237 OFFCURVE",
"319 -237 CURVE SMOOTH",
"363 -237 OFFCURVE",
"421 -225 OFFCURVE",
"480 -196 CURVE SMOOTH",
"489 -191 OFFCURVE",
"493 -183 OFFCURVE",
"493 -175 CURVE SMOOTH",
"493 -164 OFFCURVE",
"484 -154 OFFCURVE",
"474 -159 CURVE SMOOTH",
"427 -185 OFFCURVE",
"361 -200 OFFCURVE",
"320 -200 CURVE SMOOTH",
"272 -200 OFFCURVE",
"252 -173 OFFCURVE",
"252 -133 CURVE SMOOTH",
"252 -78 OFFCURVE",
"287 2 OFFCURVE",
"327 73 CURVE SMOOTH",
"383 175 OFFCURVE",
"496 362 OFFCURVE",
"570 474 CURVE SMOOTH"
);
},
{
closed = 1;
nodes = (
"648 100 OFFCURVE",
"446 -13 OFFCURVE",
"194 -13 CURVE SMOOTH",
"176 -13 OFFCURVE",
"157 -12 OFFCURVE",
"139 -11 CURVE SMOOTH",
"87 -8 OFFCURVE",
"68 9 OFFCURVE",
"68 29 CURVE SMOOTH",
"68 69 OFFCURVE",
"140 125 OFFCURVE",
"186 134 CURVE SMOOTH",
"194 136 OFFCURVE",
"197 140 OFFCURVE",
"197 145 CURVE SMOOTH",
"197 153 OFFCURVE",
"188 162 OFFCURVE",
"176 162 CURVE SMOOTH",
"174 162 OFFCURVE",
"172 161 OFFCURVE",
"170 161 CURVE",
"100 147 OFFCURVE",
"27 81 OFFCURVE",
"27 26 CURVE SMOOTH",
"27 -8 OFFCURVE",
"55 -37 OFFCURVE",
"129 -47 CURVE SMOOTH",
"149 -50 OFFCURVE",
"171 -51 OFFCURVE",
"195 -51 CURVE SMOOTH",
"381 -51 OFFCURVE",
"656 33 OFFCURVE",
"719 155 CURVE SMOOTH",
"728 173 OFFCURVE",
"732 190 OFFCURVE",
"732 206 CURVE SMOOTH",
"732 260 OFFCURVE",
"685 302 OFFCURVE",
"626 324 CURVE",
"654 333 OFFCURVE",
"683 345 OFFCURVE",
"708 361 CURVE SMOOTH",
"767 396 OFFCURVE",
"801 446 OFFCURVE",
"801 490 CURVE SMOOTH",
"801 540 OFFCURVE",
"758 583 OFFCURVE",
"661 593 CURVE SMOOTH",
"646 595 OFFCURVE",
"629 595 OFFCURVE",
"609 595 CURVE SMOOTH",
"501 595 OFFCURVE",
"326 571 OFFCURVE",
"196 507 CURVE SMOOTH",
"57 439 OFFCURVE",
"0 360 OFFCURVE",
"0 301 CURVE SMOOTH",
"0 249 OFFCURVE",
"44 213 OFFCURVE",
"116 213 CURVE SMOOTH",
"156 213 OFFCURVE",
"209 228 OFFCURVE",
"270 255 CURVE SMOOTH",
"281 260 OFFCURVE",
"286 270 OFFCURVE",
"286 279 CURVE SMOOTH",
"286 289 OFFCURVE",
"279 297 OFFCURVE",
"267 292 CURVE SMOOTH",
"220 271 OFFCURVE",
"172 257 OFFCURVE",
"145 252 CURVE SMOOTH",
"133 250 OFFCURVE",
"122 249 OFFCURVE",
"111 249 CURVE SMOOTH",
"66 249 OFFCURVE",
"43 268 OFFCURVE",
"43 298 CURVE SMOOTH",
"43 345 OFFCURVE",
"100 416 OFFCURVE",
"212 472 CURVE SMOOTH",
"331 531 OFFCURVE",
"497 558 OFFCURVE",
"608 558 CURVE SMOOTH",
"626 558 OFFCURVE",
"642 557 OFFCURVE",
"657 556 CURVE SMOOTH",
"729 548 OFFCURVE",
"764 520 OFFCURVE",
"764 486 CURVE SMOOTH",
"764 457 OFFCURVE",
"739 423 OFFCURVE",
"689 393 CURVE SMOOTH",
"636 361 OFFCURVE",
"567 343 OFFCURVE",
"523 339 CURVE SMOOTH",
"511 338 OFFCURVE",
"505 329 OFFCURVE",
"505 320 CURVE SMOOTH",
"505 310 OFFCURVE",
"512 300 OFFCURVE",
"526 301 CURVE SMOOTH",
"622 308 OFFCURVE",
"692 256 OFFCURVE",
"692 202 CURVE SMOOTH",
"692 192 OFFCURVE",
"690 183 OFFCURVE",
"685 173 CURVE SMOOTH"
);
}
);
};
layerId = "466AD7DC-B026-4005-940F-6404FDF7EB07";
paths = (
{
closed = 1;
nodes = (
"381 -51 OFFCURVE",
"656 33 OFFCURVE",
"719 155 CURVE SMOOTH",
"728 173 OFFCURVE",
"732 190 OFFCURVE",
"732 206 CURVE SMOOTH",
"732 260 OFFCURVE",
"685 302 OFFCURVE",
"626 324 CURVE",
"654 333 OFFCURVE",
"683 345 OFFCURVE",
"708 361 CURVE SMOOTH",
"767 396 OFFCURVE",
"801 446 OFFCURVE",
"801 490 CURVE SMOOTH",
"801 540 OFFCURVE",
"758 583 OFFCURVE",
"661 593 CURVE SMOOTH",
"646 595 OFFCURVE",
"629 595 OFFCURVE",
"609 595 CURVE SMOOTH",
"501 595 OFFCURVE",
"326 571 OFFCURVE",
"196 507 CURVE SMOOTH",
"57 439 OFFCURVE",
"0 360 OFFCURVE",
"0 301 CURVE SMOOTH",
"0 249 OFFCURVE",
"44 213 OFFCURVE",
"116 213 CURVE SMOOTH",
"156 213 OFFCURVE",
"209 228 OFFCURVE",
"270 255 CURVE SMOOTH",
"281 260 OFFCURVE",
"286 270 OFFCURVE",
"286 279 CURVE SMOOTH",
"286 287 OFFCURVE",
"282 294 OFFCURVE",
"274 294 CURVE SMOOTH",
"272 294 OFFCURVE",
"270 293 OFFCURVE",
"267 292 CURVE SMOOTH",
"220 271 OFFCURVE",
"172 257 OFFCURVE",
"145 252 CURVE SMOOTH",
"133 250 OFFCURVE",
"122 249 OFFCURVE",
"111 249 CURVE SMOOTH",
"66 249 OFFCURVE",
"43 268 OFFCURVE",
"43 298 CURVE SMOOTH",
"43 345 OFFCURVE",
"100 416 OFFCURVE",
"212 472 CURVE SMOOTH",
"331 531 OFFCURVE",
"497 558 OFFCURVE",
"608 558 CURVE SMOOTH",
"626 558 OFFCURVE",
"642 557 OFFCURVE",
"657 556 CURVE SMOOTH",
"729 548 OFFCURVE",
"764 520 OFFCURVE",
"764 486 CURVE SMOOTH",
"764 457 OFFCURVE",
"739 423 OFFCURVE",
"689 393 CURVE SMOOTH",
"636 361 OFFCURVE",
"567 343 OFFCURVE",
"523 339 CURVE SMOOTH",
"511 338 OFFCURVE",
"505 329 OFFCURVE",
"505 320 CURVE SMOOTH",
"505 310 OFFCURVE",
"511 301 OFFCURVE",
"524 301 CURVE SMOOTH",
"526 301 LINE SMOOTH",
"622 308 OFFCURVE",
"692 256 OFFCURVE",
"692 202 CURVE SMOOTH",
"692 192 OFFCURVE",
"690 183 OFFCURVE",
"685 173 CURVE SMOOTH",
"648 100 OFFCURVE",
"446 -13 OFFCURVE",
"194 -13 CURVE SMOOTH",
"176 -13 OFFCURVE",
"157 -12 OFFCURVE",
"139 -11 CURVE SMOOTH",
"87 -8 OFFCURVE",
"68 9 OFFCURVE",
"68 29 CURVE SMOOTH",
"68 69 OFFCURVE",
"140 125 OFFCURVE",
"186 134 CURVE SMOOTH",
"194 136 OFFCURVE",
"197 140 OFFCURVE",
"197 145 CURVE SMOOTH",
"197 153 OFFCURVE",
"188 162 OFFCURVE",
"176 162 CURVE SMOOTH",
"174 162 OFFCURVE",
"172 161 OFFCURVE",
"170 161 CURVE",
"100 147 OFFCURVE",
"27 81 OFFCURVE",
"27 26 CURVE SMOOTH",
"27 -8 OFFCURVE",
"55 -37 OFFCURVE",
"129 -47 CURVE SMOOTH",
"149 -50 OFFCURVE",
"171 -51 OFFCURVE",
"195 -51 CURVE SMOOTH"
);
},
{
closed = 1;
nodes = (
"363 -237 OFFCURVE",
"421 -225 OFFCURVE",
"480 -196 CURVE SMOOTH",
"489 -191 OFFCURVE",
"493 -183 OFFCURVE",
"493 -175 CURVE SMOOTH",
"493 -166 OFFCURVE",
"487 -158 OFFCURVE",
"479 -158 CURVE SMOOTH",
"478 -158 OFFCURVE",
"476 -158 OFFCURVE",
"474 -159 CURVE SMOOTH",
"427 -185 OFFCURVE",
"361 -200 OFFCURVE",
"320 -200 CURVE SMOOTH",
"272 -200 OFFCURVE",
"252 -173 OFFCURVE",
"252 -133 CURVE SMOOTH",
"252 -78 OFFCURVE",
"287 2 OFFCURVE",
"327 73 CURVE SMOOTH",
"383 175 OFFCURVE",
"496 362 OFFCURVE",
"570 474 CURVE SMOOTH",
"572 477 OFFCURVE",
"573 480 OFFCURVE",
"573 482 CURVE SMOOTH",
"573 493 OFFCURVE",
"560 502 OFFCURVE",
"550 502 CURVE SMOOTH",
"545 502 OFFCURVE",
"541 501 OFFCURVE",
"538 496 CURVE SMOOTH",
"458 378 OFFCURVE",
"350 191 OFFCURVE",
"294 89 CURVE SMOOTH",
"250 9 OFFCURVE",
"214 -79 OFFCURVE",
"214 -143 CURVE SMOOTH",
"214 -184 OFFCURVE",
"229 -216 OFFCURVE",
"266 -229 CURVE SMOOTH",
"279 -234 OFFCURVE",
"298 -237 OFFCURVE",
"319 -237 CURVE SMOOTH"
);
}
);
width = 695;
}
);
note = B.1;
},
{
glyphname = A.ss01;
lastChange = "2021-10-12 06:39:44 +0000";
layers = (
{
anchors = (
{
name = bottom;
position = "{314, -70}";
},
{
name = ogonek;
position = "{523, -189}";
},
{
name = top;
position = "{713, 574}";
}
);
background = {
paths = (
{
closed = 1;
nodes = (
"659 184 OFFCURVE",
"664 192 OFFCURVE",
"664 199 CURVE SMOOTH",
"664 209 OFFCURVE",
"655 218 OFFCURVE",
"640 215 CURVE SMOOTH",
"622 210 OFFCURVE",
"603 206 OFFCURVE",
"583 202 CURVE",
"711 544 LINE SMOOTH",
"712 548 OFFCURVE",
"713 551 OFFCURVE",
"713 554 CURVE SMOOTH",
"713 566 OFFCURVE",
"705 574 OFFCURVE",
"695 574 CURVE SMOOTH",
"690 574 OFFCURVE",
"684 571 OFFCURVE",
"679 566 CURVE SMOOTH",
"310 176 LINE",
"290 175 OFFCURVE",
"271 175 OFFCURVE",
"251 175 CURVE SMOOTH",
"166 175 OFFCURVE",
"83 181 OFFCURVE",
"17 192 CURVE SMOOTH",
"7 193 OFFCURVE",
"2 184 OFFCURVE",
"2 175 CURVE SMOOTH",
"2 165 OFFCURVE",
"7 154 OFFCURVE",
"18 152 CURVE SMOOTH",
"92 142 OFFCURVE",
"181 137 OFFCURVE",
"273 138 CURVE",
"106 -39 LINE SMOOTH",
"102 -44 OFFCURVE",
"100 -49 OFFCURVE",
"100 -54 CURVE SMOOTH",
"100 -66 OFFCURVE",
"109 -76 OFFCURVE",
"119 -76 CURVE SMOOTH",
"123 -76 OFFCURVE",
"128 -75 OFFCURVE",
"132 -70 CURVE SMOOTH",
"328 139 LINE",
"395 141 OFFCURVE",
"462 146 OFFCURVE",
"523 155 CURVE",
"516 137 LINE SMOOTH",
"498 91 OFFCURVE",
"465 -14 OFFCURVE",
"465 -97 CURVE SMOOTH",
"465 -137 OFFCURVE",
"472 -171 OFFCURVE",
"493 -192 CURVE SMOOTH",
"511 -210 OFFCURVE",
"533 -216 OFFCURVE",
"554 -216 CURVE SMOOTH",
"584 -216 OFFCURVE",
"612 -204 OFFCURVE",
"625 -193 CURVE SMOOTH",
"631 -188 OFFCURVE",
"634 -180 OFFCURVE",
"634 -173 CURVE SMOOTH",
"634 -165 OFFCURVE",
"630 -158 OFFCURVE",
"623 -158 CURVE SMOOTH",
"620 -158 OFFCURVE",
"617 -159 OFFCURVE",
"614 -161 CURVE SMOOTH",
"601 -168 OFFCURVE",
"580 -176 OFFCURVE",
"561 -176 CURVE SMOOTH",
"545 -176 OFFCURVE",
"530 -172 OFFCURVE",
"520 -158 CURVE SMOOTH",
"510 -145 OFFCURVE",
"506 -124 OFFCURVE",
"506 -100 CURVE SMOOTH",
"506 -24 OFFCURVE",
"543 89 OFFCURVE",
"555 127 CURVE SMOOTH",
"568 163 LINE",
"596 168 OFFCURVE",
"623 174 OFFCURVE",
"648 181 CURVE SMOOTH"
);
},
{
closed = 1;
nodes = (
"645 478 LINE",
"645 478 OFFCURVE",
"576 293 OFFCURVE",
"538 195 CURVE",
"485 187 OFFCURVE",
"425 181 OFFCURVE",
"365 178 CURVE"
);
}
);
};
layerId = "466AD7DC-B026-4005-940F-6404FDF7EB07";
paths = (
{
closed = 1;
nodes = (
"584 -216 OFFCURVE",
"612 -204 OFFCURVE",
"625 -193 CURVE SMOOTH",
"631 -188 OFFCURVE",
"634 -180 OFFCURVE",
"634 -173 CURVE SMOOTH",
"634 -165 OFFCURVE",
"630 -158 OFFCURVE",
"623 -158 CURVE SMOOTH",
"620 -158 OFFCURVE",
"617 -159 OFFCURVE",
"614 -161 CURVE SMOOTH",
"601 -168 OFFCURVE",
"580 -176 OFFCURVE",
"561 -176 CURVE SMOOTH",
"545 -176 OFFCURVE",
"530 -172 OFFCURVE",
"520 -158 CURVE SMOOTH",
"510 -145 OFFCURVE",
"506 -124 OFFCURVE",
"506 -100 CURVE SMOOTH",
"506 -24 OFFCURVE",
"542 90 OFFCURVE",
"555 127 CURVE SMOOTH",
"568 163 LINE",
"596 168 OFFCURVE",
"623 174 OFFCURVE",
"648 181 CURVE SMOOTH",
"659 184 OFFCURVE",
"664 192 OFFCURVE",
"664 199 CURVE SMOOTH",
"664 208 OFFCURVE",
"657 216 OFFCURVE",
"646 216 CURVE SMOOTH",
"644 216 OFFCURVE",
"642 215 OFFCURVE",
"640 215 CURVE",
"622 210 OFFCURVE",
"603 206 OFFCURVE",
"583 202 CURVE",
"711 544 LINE SMOOTH",
"712 548 OFFCURVE",
"713 551 OFFCURVE",
"713 554 CURVE SMOOTH",
"713 566 OFFCURVE",
"705 574 OFFCURVE",
"695 574 CURVE SMOOTH",
"690 574 OFFCURVE",
"684 571 OFFCURVE",
"679 566 CURVE SMOOTH",
"310 176 LINE",
"290 175 OFFCURVE",
"271 175 OFFCURVE",
"251 175 CURVE SMOOTH",
"166 175 OFFCURVE",
"83 181 OFFCURVE",
"17 192 CURVE SMOOTH",
"7 193 OFFCURVE",
"2 184 OFFCURVE",
"2 175 CURVE SMOOTH",
"2 165 OFFCURVE",
"7 154 OFFCURVE",
"18 152 CURVE SMOOTH",
"92 142 OFFCURVE",
"181 137 OFFCURVE",
"273 138 CURVE",
"106 -39 LINE SMOOTH",
"102 -44 OFFCURVE",
"100 -49 OFFCURVE",
"100 -54 CURVE SMOOTH",
"100 -66 OFFCURVE",
"109 -76 OFFCURVE",
"119 -76 CURVE SMOOTH",
"123 -76 OFFCURVE",
"128 -75 OFFCURVE",
"132 -70 CURVE SMOOTH",
"328 139 LINE",
"395 141 OFFCURVE",
"462 146 OFFCURVE",
"523 155 CURVE",
"516 137 LINE SMOOTH",
"498 91 OFFCURVE",
"465 -14 OFFCURVE",
"465 -97 CURVE SMOOTH",
"465 -137 OFFCURVE",
"472 -171 OFFCURVE",
"493 -192 CURVE SMOOTH",
"511 -210 OFFCURVE",
"533 -216 OFFCURVE",
"554 -216 CURVE SMOOTH"
);
},
{
closed = 1;
nodes = (
"645 478 LINE",
"645 478 OFFCURVE",
"576 293 OFFCURVE",
"538 195 CURVE",
"485 187 OFFCURVE",
"425 181 OFFCURVE",
"365 178 CURVE"
);
}
);
width = 628;
}
);
note = A;
},
{
glyphname = Aacute.ss01;
lastChange = "2021-10-12 06:38:52 +0000";
layers = (
{
background = {
paths = (
{
closed = 1;
nodes = (
"659 184 OFFCURVE",
"664 192 OFFCURVE",
"664 199 CURVE SMOOTH",
"664 209 OFFCURVE",
"655 218 OFFCURVE",
"640 215 CURVE SMOOTH",
"622 210 OFFCURVE",
"603 206 OFFCURVE",
"583 202 CURVE",
"711 544 LINE SMOOTH",
"712 548 OFFCURVE",
"713 551 OFFCURVE",
"713 554 CURVE SMOOTH",
"713 566 OFFCURVE",
"705 574 OFFCURVE",
"695 574 CURVE SMOOTH",
"690 574 OFFCURVE",
"684 571 OFFCURVE",
"679 566 CURVE SMOOTH",
"310 176 LINE",
"290 175 OFFCURVE",
"271 175 OFFCURVE",
"251 175 CURVE SMOOTH",
"166 175 OFFCURVE",
"83 181 OFFCURVE",
"17 192 CURVE SMOOTH",
"7 193 OFFCURVE",
"2 184 OFFCURVE",
"2 175 CURVE SMOOTH",
"2 165 OFFCURVE",
"7 154 OFFCURVE",
"18 152 CURVE SMOOTH",
"92 142 OFFCURVE",
"181 137 OFFCURVE",
"273 138 CURVE",
"106 -39 LINE SMOOTH",
"102 -44 OFFCURVE",
"100 -49 OFFCURVE",
"100 -54 CURVE SMOOTH",
"100 -66 OFFCURVE",
"109 -76 OFFCURVE",
"119 -76 CURVE SMOOTH",
"123 -76 OFFCURVE",
"128 -75 OFFCURVE",
"132 -70 CURVE SMOOTH",
"328 139 LINE",
"395 141 OFFCURVE",
"462 146 OFFCURVE",
"523 155 CURVE",
"516 137 LINE SMOOTH",
"498 91 OFFCURVE",
"465 -14 OFFCURVE",
"465 -97 CURVE SMOOTH",
"465 -137 OFFCURVE",
"472 -171 OFFCURVE",
"493 -192 CURVE SMOOTH",
"511 -210 OFFCURVE",
"533 -216 OFFCURVE",
"554 -216 CURVE SMOOTH",
"584 -216 OFFCURVE",
"612 -204 OFFCURVE",
"625 -193 CURVE SMOOTH",
"631 -188 OFFCURVE",
"634 -180 OFFCURVE",
"634 -173 CURVE SMOOTH",
"634 -165 OFFCURVE",
"630 -158 OFFCURVE",
"623 -158 CURVE SMOOTH",
"620 -158 OFFCURVE",
"617 -159 OFFCURVE",
"614 -161 CURVE SMOOTH",
"601 -168 OFFCURVE",
"580 -176 OFFCURVE",
"561 -176 CURVE SMOOTH",
"545 -176 OFFCURVE",
"530 -172 OFFCURVE",
"520 -158 CURVE SMOOTH",
"510 -145 OFFCURVE",
"506 -124 OFFCURVE",
"506 -100 CURVE SMOOTH",
"506 -24 OFFCURVE",
"543 89 OFFCURVE",
"555 127 CURVE SMOOTH",
"568 163 LINE",
"596 168 OFFCURVE",
"623 174 OFFCURVE",
"648 181 CURVE SMOOTH"
);
},
{
closed = 1;
nodes = (
"645 478 LINE",
"645 478 OFFCURVE",
"576 293 OFFCURVE",
"538 195 CURVE",
"485 187 OFFCURVE",
"425 181 OFFCURVE",
"365 178 CURVE"
);
},
{
closed = 1;
nodes = (
"642 651 OFFCURVE",
"637 643 OFFCURVE",
"637 637 CURVE SMOOTH",
"637 629 OFFCURVE",
"643 623 OFFCURVE",
"653 623 CURVE SMOOTH",
"658 623 OFFCURVE",
"664 624 OFFCURVE",
"670 627 CURVE SMOOTH",
"788 677 LINE SMOOTH",
"797 681 OFFCURVE",
"800 689 OFFCURVE",
"800 697 CURVE SMOOTH",
"800 708 OFFCURVE",
"794 718 OFFCURVE",
"783 718 CURVE SMOOTH",
"780 718 OFFCURVE",
"776 717 OFFCURVE",
"772 715 CURVE SMOOTH",
"769 713 OFFCURVE",
"653 657 OFFCURVE",
"653 657 CURVE"
);
}
);
};
components = (
{
name = A.ss01;
},
{
name = acutecomb.case;
transform = "{1, 0, 0, 1, 676, 254}";
}
);
layerId = "466AD7DC-B026-4005-940F-6404FDF7EB07";
width = 628;
}
);
note = Aacute;
},
